G04 EAGLE Gerber X2 export*
G75*
%MOMM*%
%FSLAX34Y34*%
%LPD*%
%AMOC8*
5,1,8,0,0,1.08239X$1,22.5*%
G01*
%ADD10C,3.703200*%
%ADD11P,1.649562X8X112.500000*%
%ADD12C,1.524000*%
%ADD13C,1.727200*%
%ADD14P,1.649562X8X292.500000*%
%ADD15P,1.649562X8X22.500000*%


D10*
X38100Y482600D03*
X533400Y38100D03*
D11*
X127000Y292100D03*
X127000Y342900D03*
D12*
X241300Y488696D02*
X241300Y501904D01*
X215900Y501904D02*
X215900Y488696D01*
X88900Y488696D02*
X88900Y501904D01*
X88900Y425704D02*
X88900Y412496D01*
X190500Y488696D02*
X190500Y501904D01*
X165100Y501904D02*
X165100Y488696D01*
X114300Y488696D02*
X114300Y501904D01*
X139700Y501904D02*
X139700Y488696D01*
X114300Y425704D02*
X114300Y412496D01*
X139700Y412496D02*
X139700Y425704D01*
X165100Y425704D02*
X165100Y412496D01*
X190500Y412496D02*
X190500Y425704D01*
X215900Y425704D02*
X215900Y412496D01*
X241300Y412496D02*
X241300Y425704D01*
D13*
X284480Y495300D02*
X299720Y495300D01*
X299720Y469900D02*
X284480Y469900D01*
X284480Y444500D02*
X299720Y444500D01*
X299720Y419100D02*
X284480Y419100D01*
X284480Y393700D02*
X299720Y393700D01*
X299720Y368300D02*
X284480Y368300D01*
X284480Y342900D02*
X299720Y342900D01*
X299720Y317500D02*
X284480Y317500D01*
X284480Y292100D02*
X299720Y292100D01*
X299720Y266700D02*
X284480Y266700D01*
X284480Y241300D02*
X299720Y241300D01*
X299720Y215900D02*
X284480Y215900D01*
X284480Y190500D02*
X299720Y190500D01*
X299720Y165100D02*
X284480Y165100D01*
X513080Y495300D02*
X528320Y495300D01*
X528320Y469900D02*
X513080Y469900D01*
X513080Y444500D02*
X528320Y444500D01*
X528320Y419100D02*
X513080Y419100D01*
X513080Y393700D02*
X528320Y393700D01*
X528320Y368300D02*
X513080Y368300D01*
X513080Y342900D02*
X528320Y342900D01*
X528320Y317500D02*
X513080Y317500D01*
X513080Y292100D02*
X528320Y292100D01*
X528320Y266700D02*
X513080Y266700D01*
X513080Y241300D02*
X528320Y241300D01*
X528320Y215900D02*
X513080Y215900D01*
X513080Y190500D02*
X528320Y190500D01*
X528320Y165100D02*
X513080Y165100D01*
X172720Y152400D02*
X157480Y152400D01*
X157480Y177800D02*
X172720Y177800D01*
X172720Y203200D02*
X157480Y203200D01*
X157480Y228600D02*
X172720Y228600D01*
X172720Y25400D02*
X157480Y25400D01*
X157480Y50800D02*
X172720Y50800D01*
X172720Y76200D02*
X157480Y76200D01*
X157480Y101600D02*
X172720Y101600D01*
X271780Y101600D02*
X287020Y101600D01*
X287020Y76200D02*
X271780Y76200D01*
X271780Y50800D02*
X287020Y50800D01*
X287020Y25400D02*
X271780Y25400D01*
X45720Y406400D02*
X30480Y406400D01*
X30480Y431800D02*
X45720Y431800D01*
X45720Y292100D02*
X30480Y292100D01*
X30480Y317500D02*
X45720Y317500D01*
X45720Y342900D02*
X30480Y342900D01*
D11*
X228600Y279400D03*
X228600Y355600D03*
D14*
X228600Y177800D03*
X228600Y101600D03*
D15*
X50800Y177800D03*
X127000Y177800D03*
X50800Y25400D03*
X127000Y25400D03*
X50800Y228600D03*
X127000Y228600D03*
X50800Y76200D03*
X127000Y76200D03*
M02*
