%
M48
M72
T01C0.03200
T02C0.04000
T03C0.13780
%
T01
X113333Y16300
X113333Y36300
X143333Y36300
X143333Y16300
X183333Y46300
X183333Y76300
X143333Y76300
X143333Y96300
X113333Y96300
X113333Y76300
X143333Y121300
X143333Y141300
X183333Y146300
X178333Y171300
X168333Y171300
X158333Y171300
X148333Y171300
X138333Y171300
X128333Y171300
X128333Y201300
X138333Y201300
X148333Y201300
X158333Y201300
X168333Y201300
X178333Y201300
X188333Y201300
X188333Y171300
X183333Y116300
T02
X158333Y16300
X158333Y26300
X158333Y36300
X158333Y46300
X158333Y66300
X158333Y76300
X158333Y86300
X158333Y96300
X108333Y121300
X108333Y131300
X108333Y141300
X108333Y166300
X108333Y176300
X208333Y191300
X208333Y181300
X208333Y171300
X208333Y161300
X208333Y151300
X208333Y141300
X208333Y131300
X208333Y121300
X208333Y111300
X208333Y101300
X208333Y91300
X208333Y81300
X208333Y71300
X203333Y46300
X203333Y36300
X203333Y26300
X203333Y16300
X298333Y71300
X298333Y81300
X298333Y91300
X298333Y101300
X298333Y111300
X298333Y121300
X298333Y131300
X298333Y141300
X298333Y151300
X298333Y161300
X298333Y171300
X298333Y181300
X298333Y191300
X298333Y201300
X208333Y201300
T03
X303333Y21300
X108333Y196300
M30
