M48
;GenerationSoftware,Autodesk,EAGLE,8.7.1*%
;CreationDate,2018-04-06T19:22:44Z*%
FMAT,2
ICI,OFF
METRIC,TZ,000.000
T4C0.813
T3C1.016
T2C3.500
%
G90
M71
T2
X53340Y3810
X3810Y48260
T3
X16510Y17780
X52070Y46990
X16510Y15240
X52070Y16510
X52070Y19050
X52070Y21590
X52070Y24130
X52070Y26670
X52070Y29210
X52070Y31750
X52070Y34290
X52070Y39370
X52070Y41910
X52070Y44450
X52070Y36830
X16510Y20320
X16510Y22860
X16510Y2540
X16510Y5080
X16510Y7620
X16510Y10160
X27940Y10160
X27940Y7620
X27940Y5080
X27940Y2540
X3810Y40640
X3810Y43180
X3810Y29210
X3810Y31750
X3810Y34290
X29210Y16510
X52070Y49530
X29210Y49530
X29210Y46990
X29210Y44450
X29210Y41910
X29210Y39370
X29210Y36830
X29210Y31750
X29210Y29210
X29210Y26670
X29210Y24130
X29210Y21590
X29210Y19050
X29210Y34290
T4
X12700Y34290
X12700Y29210
X22860Y27940
X22860Y35560
X22860Y17780
X22860Y10160
X5080Y17780
X12700Y17780
X5080Y2540
X12700Y2540
X5080Y22860
X12700Y22860
X5080Y7620
X12700Y7620
X24130Y49530
X21590Y49530
X8890Y49530
X8890Y41910
X19050Y49530
X16510Y49530
X11430Y49530
X13970Y49530
X11430Y41910
X13970Y41910
X16510Y41910
X19050Y41910
X21590Y41910
X24130Y41910
M30