G75*
%MOIN*%
%OFA0B0*%
%FSLAX25Y25*%
%IPPOS*%
%LPD*%
%AMOC8*
5,1,8,0,0,1.08239X$1,22.5*
%
%ADD10C,0.00000*%
%ADD11OC8,0.05200*%
%ADD12C,0.05200*%
%ADD13C,0.06000*%
%ADD14C,0.01200*%
%ADD15C,0.00600*%
D10*
X0093333Y0006300D02*
X0093333Y0211261D01*
X0317034Y0211261D01*
X0317034Y0006300D01*
X0093333Y0006300D01*
X0296443Y0021300D02*
X0296445Y0021469D01*
X0296451Y0021638D01*
X0296462Y0021807D01*
X0296476Y0021975D01*
X0296495Y0022143D01*
X0296518Y0022311D01*
X0296544Y0022478D01*
X0296575Y0022644D01*
X0296610Y0022810D01*
X0296649Y0022974D01*
X0296693Y0023138D01*
X0296740Y0023300D01*
X0296791Y0023461D01*
X0296846Y0023621D01*
X0296905Y0023780D01*
X0296967Y0023937D01*
X0297034Y0024092D01*
X0297105Y0024246D01*
X0297179Y0024398D01*
X0297257Y0024548D01*
X0297338Y0024696D01*
X0297423Y0024842D01*
X0297512Y0024986D01*
X0297604Y0025128D01*
X0297700Y0025267D01*
X0297799Y0025404D01*
X0297901Y0025539D01*
X0298007Y0025671D01*
X0298116Y0025800D01*
X0298228Y0025927D01*
X0298343Y0026051D01*
X0298461Y0026172D01*
X0298582Y0026290D01*
X0298706Y0026405D01*
X0298833Y0026517D01*
X0298962Y0026626D01*
X0299094Y0026732D01*
X0299229Y0026834D01*
X0299366Y0026933D01*
X0299505Y0027029D01*
X0299647Y0027121D01*
X0299791Y0027210D01*
X0299937Y0027295D01*
X0300085Y0027376D01*
X0300235Y0027454D01*
X0300387Y0027528D01*
X0300541Y0027599D01*
X0300696Y0027666D01*
X0300853Y0027728D01*
X0301012Y0027787D01*
X0301172Y0027842D01*
X0301333Y0027893D01*
X0301495Y0027940D01*
X0301659Y0027984D01*
X0301823Y0028023D01*
X0301989Y0028058D01*
X0302155Y0028089D01*
X0302322Y0028115D01*
X0302490Y0028138D01*
X0302658Y0028157D01*
X0302826Y0028171D01*
X0302995Y0028182D01*
X0303164Y0028188D01*
X0303333Y0028190D01*
X0303502Y0028188D01*
X0303671Y0028182D01*
X0303840Y0028171D01*
X0304008Y0028157D01*
X0304176Y0028138D01*
X0304344Y0028115D01*
X0304511Y0028089D01*
X0304677Y0028058D01*
X0304843Y0028023D01*
X0305007Y0027984D01*
X0305171Y0027940D01*
X0305333Y0027893D01*
X0305494Y0027842D01*
X0305654Y0027787D01*
X0305813Y0027728D01*
X0305970Y0027666D01*
X0306125Y0027599D01*
X0306279Y0027528D01*
X0306431Y0027454D01*
X0306581Y0027376D01*
X0306729Y0027295D01*
X0306875Y0027210D01*
X0307019Y0027121D01*
X0307161Y0027029D01*
X0307300Y0026933D01*
X0307437Y0026834D01*
X0307572Y0026732D01*
X0307704Y0026626D01*
X0307833Y0026517D01*
X0307960Y0026405D01*
X0308084Y0026290D01*
X0308205Y0026172D01*
X0308323Y0026051D01*
X0308438Y0025927D01*
X0308550Y0025800D01*
X0308659Y0025671D01*
X0308765Y0025539D01*
X0308867Y0025404D01*
X0308966Y0025267D01*
X0309062Y0025128D01*
X0309154Y0024986D01*
X0309243Y0024842D01*
X0309328Y0024696D01*
X0309409Y0024548D01*
X0309487Y0024398D01*
X0309561Y0024246D01*
X0309632Y0024092D01*
X0309699Y0023937D01*
X0309761Y0023780D01*
X0309820Y0023621D01*
X0309875Y0023461D01*
X0309926Y0023300D01*
X0309973Y0023138D01*
X0310017Y0022974D01*
X0310056Y0022810D01*
X0310091Y0022644D01*
X0310122Y0022478D01*
X0310148Y0022311D01*
X0310171Y0022143D01*
X0310190Y0021975D01*
X0310204Y0021807D01*
X0310215Y0021638D01*
X0310221Y0021469D01*
X0310223Y0021300D01*
X0310221Y0021131D01*
X0310215Y0020962D01*
X0310204Y0020793D01*
X0310190Y0020625D01*
X0310171Y0020457D01*
X0310148Y0020289D01*
X0310122Y0020122D01*
X0310091Y0019956D01*
X0310056Y0019790D01*
X0310017Y0019626D01*
X0309973Y0019462D01*
X0309926Y0019300D01*
X0309875Y0019139D01*
X0309820Y0018979D01*
X0309761Y0018820D01*
X0309699Y0018663D01*
X0309632Y0018508D01*
X0309561Y0018354D01*
X0309487Y0018202D01*
X0309409Y0018052D01*
X0309328Y0017904D01*
X0309243Y0017758D01*
X0309154Y0017614D01*
X0309062Y0017472D01*
X0308966Y0017333D01*
X0308867Y0017196D01*
X0308765Y0017061D01*
X0308659Y0016929D01*
X0308550Y0016800D01*
X0308438Y0016673D01*
X0308323Y0016549D01*
X0308205Y0016428D01*
X0308084Y0016310D01*
X0307960Y0016195D01*
X0307833Y0016083D01*
X0307704Y0015974D01*
X0307572Y0015868D01*
X0307437Y0015766D01*
X0307300Y0015667D01*
X0307161Y0015571D01*
X0307019Y0015479D01*
X0306875Y0015390D01*
X0306729Y0015305D01*
X0306581Y0015224D01*
X0306431Y0015146D01*
X0306279Y0015072D01*
X0306125Y0015001D01*
X0305970Y0014934D01*
X0305813Y0014872D01*
X0305654Y0014813D01*
X0305494Y0014758D01*
X0305333Y0014707D01*
X0305171Y0014660D01*
X0305007Y0014616D01*
X0304843Y0014577D01*
X0304677Y0014542D01*
X0304511Y0014511D01*
X0304344Y0014485D01*
X0304176Y0014462D01*
X0304008Y0014443D01*
X0303840Y0014429D01*
X0303671Y0014418D01*
X0303502Y0014412D01*
X0303333Y0014410D01*
X0303164Y0014412D01*
X0302995Y0014418D01*
X0302826Y0014429D01*
X0302658Y0014443D01*
X0302490Y0014462D01*
X0302322Y0014485D01*
X0302155Y0014511D01*
X0301989Y0014542D01*
X0301823Y0014577D01*
X0301659Y0014616D01*
X0301495Y0014660D01*
X0301333Y0014707D01*
X0301172Y0014758D01*
X0301012Y0014813D01*
X0300853Y0014872D01*
X0300696Y0014934D01*
X0300541Y0015001D01*
X0300387Y0015072D01*
X0300235Y0015146D01*
X0300085Y0015224D01*
X0299937Y0015305D01*
X0299791Y0015390D01*
X0299647Y0015479D01*
X0299505Y0015571D01*
X0299366Y0015667D01*
X0299229Y0015766D01*
X0299094Y0015868D01*
X0298962Y0015974D01*
X0298833Y0016083D01*
X0298706Y0016195D01*
X0298582Y0016310D01*
X0298461Y0016428D01*
X0298343Y0016549D01*
X0298228Y0016673D01*
X0298116Y0016800D01*
X0298007Y0016929D01*
X0297901Y0017061D01*
X0297799Y0017196D01*
X0297700Y0017333D01*
X0297604Y0017472D01*
X0297512Y0017614D01*
X0297423Y0017758D01*
X0297338Y0017904D01*
X0297257Y0018052D01*
X0297179Y0018202D01*
X0297105Y0018354D01*
X0297034Y0018508D01*
X0296967Y0018663D01*
X0296905Y0018820D01*
X0296846Y0018979D01*
X0296791Y0019139D01*
X0296740Y0019300D01*
X0296693Y0019462D01*
X0296649Y0019626D01*
X0296610Y0019790D01*
X0296575Y0019956D01*
X0296544Y0020122D01*
X0296518Y0020289D01*
X0296495Y0020457D01*
X0296476Y0020625D01*
X0296462Y0020793D01*
X0296451Y0020962D01*
X0296445Y0021131D01*
X0296443Y0021300D01*
X0101443Y0196300D02*
X0101445Y0196469D01*
X0101451Y0196638D01*
X0101462Y0196807D01*
X0101476Y0196975D01*
X0101495Y0197143D01*
X0101518Y0197311D01*
X0101544Y0197478D01*
X0101575Y0197644D01*
X0101610Y0197810D01*
X0101649Y0197974D01*
X0101693Y0198138D01*
X0101740Y0198300D01*
X0101791Y0198461D01*
X0101846Y0198621D01*
X0101905Y0198780D01*
X0101967Y0198937D01*
X0102034Y0199092D01*
X0102105Y0199246D01*
X0102179Y0199398D01*
X0102257Y0199548D01*
X0102338Y0199696D01*
X0102423Y0199842D01*
X0102512Y0199986D01*
X0102604Y0200128D01*
X0102700Y0200267D01*
X0102799Y0200404D01*
X0102901Y0200539D01*
X0103007Y0200671D01*
X0103116Y0200800D01*
X0103228Y0200927D01*
X0103343Y0201051D01*
X0103461Y0201172D01*
X0103582Y0201290D01*
X0103706Y0201405D01*
X0103833Y0201517D01*
X0103962Y0201626D01*
X0104094Y0201732D01*
X0104229Y0201834D01*
X0104366Y0201933D01*
X0104505Y0202029D01*
X0104647Y0202121D01*
X0104791Y0202210D01*
X0104937Y0202295D01*
X0105085Y0202376D01*
X0105235Y0202454D01*
X0105387Y0202528D01*
X0105541Y0202599D01*
X0105696Y0202666D01*
X0105853Y0202728D01*
X0106012Y0202787D01*
X0106172Y0202842D01*
X0106333Y0202893D01*
X0106495Y0202940D01*
X0106659Y0202984D01*
X0106823Y0203023D01*
X0106989Y0203058D01*
X0107155Y0203089D01*
X0107322Y0203115D01*
X0107490Y0203138D01*
X0107658Y0203157D01*
X0107826Y0203171D01*
X0107995Y0203182D01*
X0108164Y0203188D01*
X0108333Y0203190D01*
X0108502Y0203188D01*
X0108671Y0203182D01*
X0108840Y0203171D01*
X0109008Y0203157D01*
X0109176Y0203138D01*
X0109344Y0203115D01*
X0109511Y0203089D01*
X0109677Y0203058D01*
X0109843Y0203023D01*
X0110007Y0202984D01*
X0110171Y0202940D01*
X0110333Y0202893D01*
X0110494Y0202842D01*
X0110654Y0202787D01*
X0110813Y0202728D01*
X0110970Y0202666D01*
X0111125Y0202599D01*
X0111279Y0202528D01*
X0111431Y0202454D01*
X0111581Y0202376D01*
X0111729Y0202295D01*
X0111875Y0202210D01*
X0112019Y0202121D01*
X0112161Y0202029D01*
X0112300Y0201933D01*
X0112437Y0201834D01*
X0112572Y0201732D01*
X0112704Y0201626D01*
X0112833Y0201517D01*
X0112960Y0201405D01*
X0113084Y0201290D01*
X0113205Y0201172D01*
X0113323Y0201051D01*
X0113438Y0200927D01*
X0113550Y0200800D01*
X0113659Y0200671D01*
X0113765Y0200539D01*
X0113867Y0200404D01*
X0113966Y0200267D01*
X0114062Y0200128D01*
X0114154Y0199986D01*
X0114243Y0199842D01*
X0114328Y0199696D01*
X0114409Y0199548D01*
X0114487Y0199398D01*
X0114561Y0199246D01*
X0114632Y0199092D01*
X0114699Y0198937D01*
X0114761Y0198780D01*
X0114820Y0198621D01*
X0114875Y0198461D01*
X0114926Y0198300D01*
X0114973Y0198138D01*
X0115017Y0197974D01*
X0115056Y0197810D01*
X0115091Y0197644D01*
X0115122Y0197478D01*
X0115148Y0197311D01*
X0115171Y0197143D01*
X0115190Y0196975D01*
X0115204Y0196807D01*
X0115215Y0196638D01*
X0115221Y0196469D01*
X0115223Y0196300D01*
X0115221Y0196131D01*
X0115215Y0195962D01*
X0115204Y0195793D01*
X0115190Y0195625D01*
X0115171Y0195457D01*
X0115148Y0195289D01*
X0115122Y0195122D01*
X0115091Y0194956D01*
X0115056Y0194790D01*
X0115017Y0194626D01*
X0114973Y0194462D01*
X0114926Y0194300D01*
X0114875Y0194139D01*
X0114820Y0193979D01*
X0114761Y0193820D01*
X0114699Y0193663D01*
X0114632Y0193508D01*
X0114561Y0193354D01*
X0114487Y0193202D01*
X0114409Y0193052D01*
X0114328Y0192904D01*
X0114243Y0192758D01*
X0114154Y0192614D01*
X0114062Y0192472D01*
X0113966Y0192333D01*
X0113867Y0192196D01*
X0113765Y0192061D01*
X0113659Y0191929D01*
X0113550Y0191800D01*
X0113438Y0191673D01*
X0113323Y0191549D01*
X0113205Y0191428D01*
X0113084Y0191310D01*
X0112960Y0191195D01*
X0112833Y0191083D01*
X0112704Y0190974D01*
X0112572Y0190868D01*
X0112437Y0190766D01*
X0112300Y0190667D01*
X0112161Y0190571D01*
X0112019Y0190479D01*
X0111875Y0190390D01*
X0111729Y0190305D01*
X0111581Y0190224D01*
X0111431Y0190146D01*
X0111279Y0190072D01*
X0111125Y0190001D01*
X0110970Y0189934D01*
X0110813Y0189872D01*
X0110654Y0189813D01*
X0110494Y0189758D01*
X0110333Y0189707D01*
X0110171Y0189660D01*
X0110007Y0189616D01*
X0109843Y0189577D01*
X0109677Y0189542D01*
X0109511Y0189511D01*
X0109344Y0189485D01*
X0109176Y0189462D01*
X0109008Y0189443D01*
X0108840Y0189429D01*
X0108671Y0189418D01*
X0108502Y0189412D01*
X0108333Y0189410D01*
X0108164Y0189412D01*
X0107995Y0189418D01*
X0107826Y0189429D01*
X0107658Y0189443D01*
X0107490Y0189462D01*
X0107322Y0189485D01*
X0107155Y0189511D01*
X0106989Y0189542D01*
X0106823Y0189577D01*
X0106659Y0189616D01*
X0106495Y0189660D01*
X0106333Y0189707D01*
X0106172Y0189758D01*
X0106012Y0189813D01*
X0105853Y0189872D01*
X0105696Y0189934D01*
X0105541Y0190001D01*
X0105387Y0190072D01*
X0105235Y0190146D01*
X0105085Y0190224D01*
X0104937Y0190305D01*
X0104791Y0190390D01*
X0104647Y0190479D01*
X0104505Y0190571D01*
X0104366Y0190667D01*
X0104229Y0190766D01*
X0104094Y0190868D01*
X0103962Y0190974D01*
X0103833Y0191083D01*
X0103706Y0191195D01*
X0103582Y0191310D01*
X0103461Y0191428D01*
X0103343Y0191549D01*
X0103228Y0191673D01*
X0103116Y0191800D01*
X0103007Y0191929D01*
X0102901Y0192061D01*
X0102799Y0192196D01*
X0102700Y0192333D01*
X0102604Y0192472D01*
X0102512Y0192614D01*
X0102423Y0192758D01*
X0102338Y0192904D01*
X0102257Y0193052D01*
X0102179Y0193202D01*
X0102105Y0193354D01*
X0102034Y0193508D01*
X0101967Y0193663D01*
X0101905Y0193820D01*
X0101846Y0193979D01*
X0101791Y0194139D01*
X0101740Y0194300D01*
X0101693Y0194462D01*
X0101649Y0194626D01*
X0101610Y0194790D01*
X0101575Y0194956D01*
X0101544Y0195122D01*
X0101518Y0195289D01*
X0101495Y0195457D01*
X0101476Y0195625D01*
X0101462Y0195793D01*
X0101451Y0195962D01*
X0101445Y0196131D01*
X0101443Y0196300D01*
D11*
X0183333Y0146300D03*
X0143333Y0141300D03*
X0143333Y0121300D03*
X0143333Y0096300D03*
X0143333Y0076300D03*
X0113333Y0076300D03*
X0113333Y0096300D03*
X0183333Y0076300D03*
X0183333Y0046300D03*
X0143333Y0036300D03*
X0143333Y0016300D03*
X0113333Y0016300D03*
X0113333Y0036300D03*
X0183333Y0116300D03*
D12*
X0178333Y0168700D02*
X0178333Y0173900D01*
X0168333Y0173900D02*
X0168333Y0168700D01*
X0158333Y0168700D02*
X0158333Y0173900D01*
X0148333Y0173900D02*
X0148333Y0168700D01*
X0138333Y0168700D02*
X0138333Y0173900D01*
X0128333Y0173900D02*
X0128333Y0168700D01*
X0128333Y0198700D02*
X0128333Y0203900D01*
X0138333Y0203900D02*
X0138333Y0198700D01*
X0148333Y0198700D02*
X0148333Y0203900D01*
X0158333Y0203900D02*
X0158333Y0198700D01*
X0168333Y0198700D02*
X0168333Y0203900D01*
X0178333Y0203900D02*
X0178333Y0198700D01*
X0188333Y0198700D02*
X0188333Y0203900D01*
X0188333Y0173900D02*
X0188333Y0168700D01*
D13*
X0205333Y0171300D02*
X0211333Y0171300D01*
X0211333Y0161300D02*
X0205333Y0161300D01*
X0205333Y0151300D02*
X0211333Y0151300D01*
X0211333Y0141300D02*
X0205333Y0141300D01*
X0205333Y0131300D02*
X0211333Y0131300D01*
X0211333Y0121300D02*
X0205333Y0121300D01*
X0205333Y0111300D02*
X0211333Y0111300D01*
X0211333Y0101300D02*
X0205333Y0101300D01*
X0205333Y0091300D02*
X0211333Y0091300D01*
X0211333Y0081300D02*
X0205333Y0081300D01*
X0205333Y0071300D02*
X0211333Y0071300D01*
X0206333Y0046300D02*
X0200333Y0046300D01*
X0200333Y0036300D02*
X0206333Y0036300D01*
X0206333Y0026300D02*
X0200333Y0026300D01*
X0200333Y0016300D02*
X0206333Y0016300D01*
X0161333Y0016300D02*
X0155333Y0016300D01*
X0155333Y0026300D02*
X0161333Y0026300D01*
X0161333Y0036300D02*
X0155333Y0036300D01*
X0155333Y0046300D02*
X0161333Y0046300D01*
X0161333Y0066300D02*
X0155333Y0066300D01*
X0155333Y0076300D02*
X0161333Y0076300D01*
X0161333Y0086300D02*
X0155333Y0086300D01*
X0155333Y0096300D02*
X0161333Y0096300D01*
X0111333Y0121300D02*
X0105333Y0121300D01*
X0105333Y0131300D02*
X0111333Y0131300D01*
X0111333Y0141300D02*
X0105333Y0141300D01*
X0105333Y0166300D02*
X0111333Y0166300D01*
X0111333Y0176300D02*
X0105333Y0176300D01*
X0205333Y0181300D02*
X0211333Y0181300D01*
X0211333Y0191300D02*
X0205333Y0191300D01*
X0205333Y0201300D02*
X0211333Y0201300D01*
X0295333Y0201300D02*
X0301333Y0201300D01*
X0301333Y0191300D02*
X0295333Y0191300D01*
X0295333Y0181300D02*
X0301333Y0181300D01*
X0301333Y0171300D02*
X0295333Y0171300D01*
X0295333Y0161300D02*
X0301333Y0161300D01*
X0301333Y0151300D02*
X0295333Y0151300D01*
X0295333Y0141300D02*
X0301333Y0141300D01*
X0301333Y0131300D02*
X0295333Y0131300D01*
X0295333Y0121300D02*
X0301333Y0121300D01*
X0301333Y0111300D02*
X0295333Y0111300D01*
X0295333Y0101300D02*
X0301333Y0101300D01*
X0301333Y0091300D02*
X0295333Y0091300D01*
X0295333Y0081300D02*
X0301333Y0081300D01*
X0301333Y0071300D02*
X0295333Y0071300D01*
D14*
X0208333Y0081300D02*
X0206933Y0081500D01*
X0184533Y0103900D01*
X0184533Y0115100D01*
X0183333Y0116300D01*
X0170133Y0111900D02*
X0170133Y0027100D01*
X0158933Y0015900D01*
X0158333Y0016300D01*
X0157333Y0017500D01*
X0144533Y0017500D01*
X0143333Y0016300D01*
X0143333Y0036300D02*
X0144533Y0036700D01*
X0157333Y0036700D01*
X0158333Y0036300D01*
X0158933Y0035100D01*
X0166933Y0043100D01*
X0166933Y0121500D01*
X0205333Y0159900D01*
X0206933Y0159900D01*
X0208333Y0161300D01*
X0182933Y0156700D02*
X0182933Y0147100D01*
X0183333Y0146300D01*
X0182933Y0156700D02*
X0168333Y0171300D01*
X0178333Y0171300D02*
X0197333Y0190300D01*
X0206933Y0190300D01*
X0208333Y0191300D01*
X0143333Y0141300D02*
X0142933Y0140700D01*
X0138133Y0140700D01*
X0138133Y0073500D01*
X0157333Y0054300D01*
X0157333Y0046300D01*
X0158333Y0046300D01*
X0183333Y0046300D02*
X0203333Y0046300D01*
X0158333Y0076300D02*
X0157333Y0076700D01*
X0144533Y0076700D01*
X0143333Y0076300D01*
X0143333Y0096300D02*
X0144533Y0097500D01*
X0157333Y0097500D01*
X0158333Y0096300D01*
X0170133Y0111900D02*
X0189333Y0131100D01*
X0206933Y0131100D01*
X0208333Y0131300D01*
X0138133Y0140700D02*
X0120533Y0140700D01*
X0109333Y0151900D01*
X0109333Y0166300D01*
X0108333Y0166300D01*
X0104533Y0172700D02*
X0102933Y0172700D01*
X0099733Y0169500D01*
X0099733Y0127900D01*
X0107733Y0119900D01*
X0108333Y0121300D01*
X0109333Y0131100D02*
X0108333Y0131300D01*
X0109333Y0131100D02*
X0118933Y0140700D01*
X0120533Y0140700D01*
X0104533Y0172700D02*
X0107733Y0175900D01*
X0108333Y0176300D01*
X0109333Y0177500D01*
X0126933Y0195100D01*
X0126933Y0199900D01*
X0128333Y0201300D01*
X0113333Y0096300D02*
X0114133Y0095900D01*
X0114133Y0076700D01*
X0113333Y0076300D01*
X0113333Y0036300D02*
X0114133Y0035100D01*
X0114133Y0017500D01*
X0113333Y0016300D01*
D15*
X0113033Y0016475D02*
X0097633Y0016475D01*
X0097633Y0017073D02*
X0109433Y0017073D01*
X0109433Y0016600D02*
X0113033Y0016600D01*
X0113033Y0016000D01*
X0109433Y0016000D01*
X0109433Y0014685D01*
X0111718Y0012400D01*
X0113033Y0012400D01*
X0113033Y0016000D01*
X0113633Y0016000D01*
X0113633Y0012400D01*
X0114949Y0012400D01*
X0117233Y0014685D01*
X0117233Y0016000D01*
X0113633Y0016000D01*
X0113633Y0016600D01*
X0113033Y0016600D01*
X0113033Y0020200D01*
X0111718Y0020200D01*
X0109433Y0017915D01*
X0109433Y0016600D01*
X0109433Y0015876D02*
X0097633Y0015876D01*
X0097633Y0015278D02*
X0109433Y0015278D01*
X0109439Y0014679D02*
X0097633Y0014679D01*
X0097633Y0014081D02*
X0110037Y0014081D01*
X0110636Y0013482D02*
X0097633Y0013482D01*
X0097633Y0012884D02*
X0111234Y0012884D01*
X0113033Y0012884D02*
X0113633Y0012884D01*
X0113633Y0013482D02*
X0113033Y0013482D01*
X0113033Y0014081D02*
X0113633Y0014081D01*
X0113633Y0014679D02*
X0113033Y0014679D01*
X0113033Y0015278D02*
X0113633Y0015278D01*
X0113633Y0015876D02*
X0113033Y0015876D01*
X0113633Y0016475D02*
X0138433Y0016475D01*
X0138433Y0017073D02*
X0117233Y0017073D01*
X0117233Y0016600D02*
X0117233Y0017915D01*
X0114949Y0020200D01*
X0113633Y0020200D01*
X0113633Y0016600D01*
X0117233Y0016600D01*
X0117233Y0015876D02*
X0138433Y0015876D01*
X0138433Y0015278D02*
X0117233Y0015278D01*
X0117228Y0014679D02*
X0138433Y0014679D01*
X0138433Y0014270D02*
X0141304Y0011400D01*
X0145363Y0011400D01*
X0148233Y0014270D01*
X0148233Y0014600D01*
X0150301Y0014600D01*
X0150840Y0013298D01*
X0152331Y0011807D01*
X0154279Y0011000D01*
X0162388Y0011000D01*
X0164336Y0011807D01*
X0165826Y0013298D01*
X0166633Y0015246D01*
X0166633Y0017354D01*
X0166005Y0018871D01*
X0172592Y0025457D01*
X0173033Y0026523D01*
X0173033Y0110699D01*
X0178433Y0116099D01*
X0178433Y0114270D01*
X0181304Y0111400D01*
X0181633Y0111400D01*
X0181633Y0103323D01*
X0182075Y0102257D01*
X0200603Y0083729D01*
X0200033Y0082354D01*
X0200033Y0080246D01*
X0200840Y0078298D01*
X0202331Y0076807D01*
X0203555Y0076300D01*
X0202331Y0075793D01*
X0200840Y0074302D01*
X0200033Y0072354D01*
X0200033Y0070246D01*
X0200840Y0068298D01*
X0202331Y0066807D01*
X0204279Y0066000D01*
X0212388Y0066000D01*
X0214336Y0066807D01*
X0215826Y0068298D01*
X0216633Y0070246D01*
X0216633Y0072354D01*
X0215826Y0074302D01*
X0214336Y0075793D01*
X0213112Y0076300D01*
X0214336Y0076807D01*
X0215826Y0078298D01*
X0216633Y0080246D01*
X0216633Y0082354D01*
X0215826Y0084302D01*
X0214336Y0085793D01*
X0213112Y0086300D01*
X0214336Y0086807D01*
X0215826Y0088298D01*
X0216633Y0090246D01*
X0216633Y0092354D01*
X0215826Y0094302D01*
X0214336Y0095793D01*
X0213112Y0096300D01*
X0214336Y0096807D01*
X0215826Y0098298D01*
X0216633Y0100246D01*
X0216633Y0102354D01*
X0215826Y0104302D01*
X0214336Y0105793D01*
X0213112Y0106300D01*
X0214336Y0106807D01*
X0215826Y0108298D01*
X0216633Y0110246D01*
X0216633Y0112354D01*
X0215826Y0114302D01*
X0214336Y0115793D01*
X0213112Y0116300D01*
X0214336Y0116807D01*
X0215826Y0118298D01*
X0216633Y0120246D01*
X0216633Y0122354D01*
X0215826Y0124302D01*
X0214336Y0125793D01*
X0213112Y0126300D01*
X0214336Y0126807D01*
X0215826Y0128298D01*
X0216633Y0130246D01*
X0216633Y0132354D01*
X0215826Y0134302D01*
X0214336Y0135793D01*
X0213112Y0136300D01*
X0214336Y0136807D01*
X0215826Y0138298D01*
X0216633Y0140246D01*
X0216633Y0142354D01*
X0215826Y0144302D01*
X0214336Y0145793D01*
X0213112Y0146300D01*
X0214336Y0146807D01*
X0215826Y0148298D01*
X0216633Y0150246D01*
X0216633Y0152354D01*
X0215826Y0154302D01*
X0214336Y0155793D01*
X0213112Y0156300D01*
X0214336Y0156807D01*
X0215826Y0158298D01*
X0216633Y0160246D01*
X0216633Y0162354D01*
X0215826Y0164302D01*
X0214336Y0165793D01*
X0213112Y0166300D01*
X0214336Y0166807D01*
X0215826Y0168298D01*
X0216633Y0170246D01*
X0216633Y0172354D01*
X0215826Y0174302D01*
X0214336Y0175793D01*
X0213112Y0176300D01*
X0214336Y0176807D01*
X0215826Y0178298D01*
X0216633Y0180246D01*
X0216633Y0182354D01*
X0215826Y0184302D01*
X0214336Y0185793D01*
X0212388Y0186600D01*
X0204279Y0186600D01*
X0202331Y0185793D01*
X0200840Y0184302D01*
X0200033Y0182354D01*
X0200033Y0180246D01*
X0200840Y0178298D01*
X0202331Y0176807D01*
X0203555Y0176300D01*
X0202331Y0175793D01*
X0200840Y0174302D01*
X0200033Y0172354D01*
X0200033Y0170246D01*
X0200840Y0168298D01*
X0202331Y0166807D01*
X0203555Y0166300D01*
X0202331Y0165793D01*
X0200840Y0164302D01*
X0200033Y0162354D01*
X0200033Y0160246D01*
X0200486Y0159154D01*
X0188233Y0146901D01*
X0188233Y0148330D01*
X0185833Y0150730D01*
X0185833Y0157277D01*
X0185392Y0158343D01*
X0178899Y0164836D01*
X0179471Y0164950D01*
X0180181Y0165244D01*
X0180819Y0165671D01*
X0181363Y0166214D01*
X0181789Y0166853D01*
X0182083Y0167562D01*
X0182233Y0168316D01*
X0182233Y0171000D01*
X0178633Y0171000D01*
X0178633Y0171600D01*
X0178033Y0171600D01*
X0178033Y0171000D01*
X0174433Y0171000D01*
X0174433Y0169301D01*
X0173233Y0170501D01*
X0173233Y0174875D01*
X0172487Y0176676D01*
X0171109Y0178054D01*
X0169308Y0178800D01*
X0167359Y0178800D01*
X0165558Y0178054D01*
X0164179Y0176676D01*
X0163433Y0174875D01*
X0163433Y0167725D01*
X0164179Y0165924D01*
X0165558Y0164546D01*
X0167359Y0163800D01*
X0169308Y0163800D01*
X0171022Y0164510D01*
X0180033Y0155499D01*
X0180033Y0149930D01*
X0178433Y0148330D01*
X0178433Y0144270D01*
X0181304Y0141400D01*
X0182732Y0141400D01*
X0165291Y0123958D01*
X0164475Y0123143D01*
X0164033Y0122077D01*
X0164033Y0100918D01*
X0162388Y0101600D01*
X0154279Y0101600D01*
X0152331Y0100793D01*
X0151938Y0100400D01*
X0146163Y0100400D01*
X0145363Y0101200D01*
X0141304Y0101200D01*
X0141033Y0100930D01*
X0141033Y0118085D01*
X0141718Y0117400D01*
X0143033Y0117400D01*
X0143033Y0121000D01*
X0143633Y0121000D01*
X0143633Y0117400D01*
X0144949Y0117400D01*
X0147233Y0119685D01*
X0147233Y0121000D01*
X0143633Y0121000D01*
X0143633Y0121600D01*
X0143033Y0121600D01*
X0143033Y0125200D01*
X0141718Y0125200D01*
X0141033Y0124515D01*
X0141033Y0136670D01*
X0141304Y0136400D01*
X0145363Y0136400D01*
X0148233Y0139270D01*
X0148233Y0143330D01*
X0145363Y0146200D01*
X0141304Y0146200D01*
X0138704Y0143600D01*
X0121735Y0143600D01*
X0112233Y0153101D01*
X0112233Y0161000D01*
X0112388Y0161000D01*
X0114336Y0161807D01*
X0115826Y0163298D01*
X0116633Y0165246D01*
X0116633Y0167354D01*
X0115826Y0169302D01*
X0114336Y0170793D01*
X0112388Y0171600D01*
X0104279Y0171600D01*
X0102331Y0170793D01*
X0100840Y0169302D01*
X0100033Y0167354D01*
X0100033Y0165246D01*
X0100840Y0163298D01*
X0102331Y0161807D01*
X0104279Y0161000D01*
X0106433Y0161000D01*
X0106433Y0151323D01*
X0106875Y0150257D01*
X0110532Y0146600D01*
X0104279Y0146600D01*
X0102331Y0145793D01*
X0100840Y0144302D01*
X0100033Y0142354D01*
X0100033Y0140246D01*
X0100840Y0138298D01*
X0102331Y0136807D01*
X0103555Y0136300D01*
X0102331Y0135793D01*
X0100840Y0134302D01*
X0100033Y0132354D01*
X0100033Y0130246D01*
X0100840Y0128298D01*
X0102331Y0126807D01*
X0104279Y0126000D01*
X0112388Y0126000D01*
X0114336Y0126807D01*
X0115826Y0128298D01*
X0116633Y0130246D01*
X0116633Y0132354D01*
X0116064Y0133729D01*
X0120135Y0137800D01*
X0135233Y0137800D01*
X0135233Y0072923D01*
X0135675Y0071857D01*
X0136491Y0071041D01*
X0154433Y0053099D01*
X0154433Y0051600D01*
X0154279Y0051600D01*
X0152331Y0050793D01*
X0150840Y0049302D01*
X0150033Y0047354D01*
X0150033Y0045246D01*
X0150840Y0043298D01*
X0152331Y0041807D01*
X0153555Y0041300D01*
X0152331Y0040793D01*
X0151138Y0039600D01*
X0146963Y0039600D01*
X0145363Y0041200D01*
X0141304Y0041200D01*
X0138433Y0038330D01*
X0138433Y0034270D01*
X0141304Y0031400D01*
X0145363Y0031400D01*
X0147763Y0033800D01*
X0150632Y0033800D01*
X0150840Y0033298D01*
X0152331Y0031807D01*
X0153555Y0031300D01*
X0152331Y0030793D01*
X0150840Y0029302D01*
X0150033Y0027354D01*
X0150033Y0025246D01*
X0150840Y0023298D01*
X0152331Y0021807D01*
X0153555Y0021300D01*
X0152331Y0020793D01*
X0151938Y0020400D01*
X0146163Y0020400D01*
X0145363Y0021200D01*
X0141304Y0021200D01*
X0138433Y0018330D01*
X0138433Y0014270D01*
X0138623Y0014081D02*
X0116629Y0014081D01*
X0116031Y0013482D02*
X0139222Y0013482D01*
X0139820Y0012884D02*
X0115432Y0012884D01*
X0113633Y0017073D02*
X0113033Y0017073D01*
X0113033Y0017672D02*
X0113633Y0017672D01*
X0113633Y0018270D02*
X0113033Y0018270D01*
X0113033Y0018869D02*
X0113633Y0018869D01*
X0113633Y0019467D02*
X0113033Y0019467D01*
X0113033Y0020066D02*
X0113633Y0020066D01*
X0115083Y0020066D02*
X0140169Y0020066D01*
X0139571Y0019467D02*
X0115681Y0019467D01*
X0116280Y0018869D02*
X0138972Y0018869D01*
X0138433Y0018270D02*
X0116879Y0018270D01*
X0117233Y0017672D02*
X0138433Y0017672D01*
X0140768Y0020664D02*
X0097633Y0020664D01*
X0097633Y0020066D02*
X0111584Y0020066D01*
X0110985Y0019467D02*
X0097633Y0019467D01*
X0097633Y0018869D02*
X0110387Y0018869D01*
X0109788Y0018270D02*
X0097633Y0018270D01*
X0097633Y0017672D02*
X0109433Y0017672D01*
X0097633Y0021263D02*
X0153465Y0021263D01*
X0152277Y0021861D02*
X0097633Y0021861D01*
X0097633Y0022460D02*
X0151678Y0022460D01*
X0151080Y0023058D02*
X0097633Y0023058D01*
X0097633Y0023657D02*
X0150691Y0023657D01*
X0150444Y0024255D02*
X0097633Y0024255D01*
X0097633Y0024854D02*
X0150196Y0024854D01*
X0150033Y0025452D02*
X0097633Y0025452D01*
X0097633Y0026051D02*
X0150033Y0026051D01*
X0150033Y0026649D02*
X0097633Y0026649D01*
X0097633Y0027248D02*
X0150033Y0027248D01*
X0150237Y0027846D02*
X0097633Y0027846D01*
X0097633Y0028445D02*
X0150485Y0028445D01*
X0150733Y0029043D02*
X0097633Y0029043D01*
X0097633Y0029642D02*
X0151180Y0029642D01*
X0151778Y0030240D02*
X0097633Y0030240D01*
X0097633Y0030839D02*
X0152442Y0030839D01*
X0153223Y0031437D02*
X0145400Y0031437D01*
X0145999Y0032036D02*
X0152102Y0032036D01*
X0151503Y0032634D02*
X0146597Y0032634D01*
X0147196Y0033233D02*
X0150905Y0033233D01*
X0151355Y0039817D02*
X0146746Y0039817D01*
X0146148Y0040415D02*
X0151953Y0040415D01*
X0152864Y0041014D02*
X0145549Y0041014D01*
X0141117Y0041014D02*
X0097633Y0041014D01*
X0097633Y0041612D02*
X0152801Y0041612D01*
X0151927Y0042211D02*
X0097633Y0042211D01*
X0097633Y0042809D02*
X0151329Y0042809D01*
X0150795Y0043408D02*
X0097633Y0043408D01*
X0097633Y0044006D02*
X0150547Y0044006D01*
X0150299Y0044605D02*
X0097633Y0044605D01*
X0097633Y0045203D02*
X0150051Y0045203D01*
X0150033Y0045802D02*
X0097633Y0045802D01*
X0097633Y0046400D02*
X0150033Y0046400D01*
X0150033Y0046999D02*
X0097633Y0046999D01*
X0097633Y0047597D02*
X0150134Y0047597D01*
X0150382Y0048196D02*
X0097633Y0048196D01*
X0097633Y0048794D02*
X0150630Y0048794D01*
X0150931Y0049393D02*
X0097633Y0049393D01*
X0097633Y0049991D02*
X0151529Y0049991D01*
X0152128Y0050590D02*
X0097633Y0050590D01*
X0097633Y0051188D02*
X0153285Y0051188D01*
X0154433Y0051787D02*
X0097633Y0051787D01*
X0097633Y0052385D02*
X0154433Y0052385D01*
X0154433Y0052984D02*
X0097633Y0052984D01*
X0097633Y0053582D02*
X0153950Y0053582D01*
X0153351Y0054181D02*
X0097633Y0054181D01*
X0097633Y0054779D02*
X0152753Y0054779D01*
X0152154Y0055378D02*
X0097633Y0055378D01*
X0097633Y0055976D02*
X0151556Y0055976D01*
X0150957Y0056575D02*
X0097633Y0056575D01*
X0097633Y0057173D02*
X0150359Y0057173D01*
X0149760Y0057772D02*
X0097633Y0057772D01*
X0097633Y0058370D02*
X0149162Y0058370D01*
X0148563Y0058969D02*
X0097633Y0058969D01*
X0097633Y0059568D02*
X0147965Y0059568D01*
X0147366Y0060166D02*
X0097633Y0060166D01*
X0097633Y0060765D02*
X0146768Y0060765D01*
X0146169Y0061363D02*
X0097633Y0061363D01*
X0097633Y0061962D02*
X0145571Y0061962D01*
X0144972Y0062560D02*
X0097633Y0062560D01*
X0097633Y0063159D02*
X0144374Y0063159D01*
X0143775Y0063757D02*
X0097633Y0063757D01*
X0097633Y0064356D02*
X0143177Y0064356D01*
X0142578Y0064954D02*
X0097633Y0064954D01*
X0097633Y0065553D02*
X0141979Y0065553D01*
X0141381Y0066151D02*
X0097633Y0066151D01*
X0097633Y0066750D02*
X0140782Y0066750D01*
X0140184Y0067348D02*
X0097633Y0067348D01*
X0097633Y0067947D02*
X0139585Y0067947D01*
X0138987Y0068545D02*
X0097633Y0068545D01*
X0097633Y0069144D02*
X0138388Y0069144D01*
X0137790Y0069742D02*
X0097633Y0069742D01*
X0097633Y0070341D02*
X0137191Y0070341D01*
X0136593Y0070939D02*
X0097633Y0070939D01*
X0097633Y0071538D02*
X0135994Y0071538D01*
X0135559Y0072136D02*
X0097633Y0072136D01*
X0097633Y0072735D02*
X0111383Y0072735D01*
X0111718Y0072400D02*
X0113033Y0072400D01*
X0113033Y0076000D01*
X0109433Y0076000D01*
X0109433Y0074685D01*
X0111718Y0072400D01*
X0110785Y0073333D02*
X0097633Y0073333D01*
X0097633Y0073932D02*
X0110186Y0073932D01*
X0109588Y0074530D02*
X0097633Y0074530D01*
X0097633Y0075129D02*
X0109433Y0075129D01*
X0109433Y0075727D02*
X0097633Y0075727D01*
X0097633Y0076326D02*
X0113033Y0076326D01*
X0113033Y0076600D02*
X0113033Y0076000D01*
X0113633Y0076000D01*
X0113633Y0072400D01*
X0114949Y0072400D01*
X0117233Y0074685D01*
X0117233Y0076000D01*
X0113633Y0076000D01*
X0113633Y0076600D01*
X0113033Y0076600D01*
X0109433Y0076600D01*
X0109433Y0077915D01*
X0111718Y0080200D01*
X0113033Y0080200D01*
X0113033Y0076600D01*
X0113033Y0076924D02*
X0113633Y0076924D01*
X0113633Y0076600D02*
X0113633Y0080200D01*
X0114949Y0080200D01*
X0117233Y0077915D01*
X0117233Y0076600D01*
X0113633Y0076600D01*
X0113633Y0076326D02*
X0135233Y0076326D01*
X0135233Y0076924D02*
X0117233Y0076924D01*
X0117233Y0077523D02*
X0135233Y0077523D01*
X0135233Y0078121D02*
X0117027Y0078121D01*
X0116429Y0078720D02*
X0135233Y0078720D01*
X0135233Y0079318D02*
X0115830Y0079318D01*
X0115232Y0079917D02*
X0135233Y0079917D01*
X0135233Y0080515D02*
X0097633Y0080515D01*
X0097633Y0079917D02*
X0111435Y0079917D01*
X0110836Y0079318D02*
X0097633Y0079318D01*
X0097633Y0078720D02*
X0110238Y0078720D01*
X0109639Y0078121D02*
X0097633Y0078121D01*
X0097633Y0077523D02*
X0109433Y0077523D01*
X0109433Y0076924D02*
X0097633Y0076924D01*
X0097633Y0081114D02*
X0135233Y0081114D01*
X0135233Y0081712D02*
X0097633Y0081712D01*
X0097633Y0082311D02*
X0135233Y0082311D01*
X0135233Y0082909D02*
X0097633Y0082909D01*
X0097633Y0083508D02*
X0135233Y0083508D01*
X0135233Y0084106D02*
X0097633Y0084106D01*
X0097633Y0084705D02*
X0135233Y0084705D01*
X0135233Y0085303D02*
X0097633Y0085303D01*
X0097633Y0085902D02*
X0135233Y0085902D01*
X0135233Y0086501D02*
X0097633Y0086501D01*
X0097633Y0087099D02*
X0135233Y0087099D01*
X0135233Y0087698D02*
X0097633Y0087698D01*
X0097633Y0088296D02*
X0135233Y0088296D01*
X0135233Y0088895D02*
X0097633Y0088895D01*
X0097633Y0089493D02*
X0135233Y0089493D01*
X0135233Y0090092D02*
X0097633Y0090092D01*
X0097633Y0090690D02*
X0135233Y0090690D01*
X0135233Y0091289D02*
X0097633Y0091289D01*
X0097633Y0091887D02*
X0135233Y0091887D01*
X0135233Y0092486D02*
X0115034Y0092486D01*
X0114949Y0092400D02*
X0117233Y0094685D01*
X0117233Y0096000D01*
X0113633Y0096000D01*
X0113633Y0092400D01*
X0114949Y0092400D01*
X0115633Y0093084D02*
X0135233Y0093084D01*
X0135233Y0093683D02*
X0116231Y0093683D01*
X0116830Y0094281D02*
X0135233Y0094281D01*
X0135233Y0094880D02*
X0117233Y0094880D01*
X0117233Y0095478D02*
X0135233Y0095478D01*
X0135233Y0096077D02*
X0113633Y0096077D01*
X0113633Y0096000D02*
X0113633Y0096600D01*
X0113033Y0096600D01*
X0113033Y0096000D01*
X0109433Y0096000D01*
X0109433Y0094685D01*
X0111718Y0092400D01*
X0113033Y0092400D01*
X0113033Y0096000D01*
X0113633Y0096000D01*
X0113633Y0095478D02*
X0113033Y0095478D01*
X0113033Y0094880D02*
X0113633Y0094880D01*
X0113633Y0094281D02*
X0113033Y0094281D01*
X0113033Y0093683D02*
X0113633Y0093683D01*
X0113633Y0093084D02*
X0113033Y0093084D01*
X0113033Y0092486D02*
X0113633Y0092486D01*
X0111632Y0092486D02*
X0097633Y0092486D01*
X0097633Y0093084D02*
X0111034Y0093084D01*
X0110435Y0093683D02*
X0097633Y0093683D01*
X0097633Y0094281D02*
X0109837Y0094281D01*
X0109433Y0094880D02*
X0097633Y0094880D01*
X0097633Y0095478D02*
X0109433Y0095478D01*
X0109433Y0096600D02*
X0113033Y0096600D01*
X0113033Y0100200D01*
X0111718Y0100200D01*
X0109433Y0097915D01*
X0109433Y0096600D01*
X0109433Y0096675D02*
X0097633Y0096675D01*
X0097633Y0096077D02*
X0113033Y0096077D01*
X0113033Y0096675D02*
X0113633Y0096675D01*
X0113633Y0096600D02*
X0113633Y0100200D01*
X0114949Y0100200D01*
X0117233Y0097915D01*
X0117233Y0096600D01*
X0113633Y0096600D01*
X0113633Y0097274D02*
X0113033Y0097274D01*
X0113033Y0097872D02*
X0113633Y0097872D01*
X0113633Y0098471D02*
X0113033Y0098471D01*
X0113033Y0099069D02*
X0113633Y0099069D01*
X0113633Y0099668D02*
X0113033Y0099668D01*
X0111186Y0099668D02*
X0097633Y0099668D01*
X0097633Y0100266D02*
X0135233Y0100266D01*
X0135233Y0099668D02*
X0115481Y0099668D01*
X0116079Y0099069D02*
X0135233Y0099069D01*
X0135233Y0098471D02*
X0116678Y0098471D01*
X0117233Y0097872D02*
X0135233Y0097872D01*
X0135233Y0097274D02*
X0117233Y0097274D01*
X0117233Y0096675D02*
X0135233Y0096675D01*
X0135233Y0100865D02*
X0097633Y0100865D01*
X0097633Y0101463D02*
X0135233Y0101463D01*
X0135233Y0102062D02*
X0097633Y0102062D01*
X0097633Y0102660D02*
X0135233Y0102660D01*
X0135233Y0103259D02*
X0097633Y0103259D01*
X0097633Y0103857D02*
X0135233Y0103857D01*
X0135233Y0104456D02*
X0097633Y0104456D01*
X0097633Y0105054D02*
X0135233Y0105054D01*
X0135233Y0105653D02*
X0097633Y0105653D01*
X0097633Y0106251D02*
X0135233Y0106251D01*
X0135233Y0106850D02*
X0097633Y0106850D01*
X0097633Y0107448D02*
X0135233Y0107448D01*
X0135233Y0108047D02*
X0097633Y0108047D01*
X0097633Y0108645D02*
X0135233Y0108645D01*
X0135233Y0109244D02*
X0097633Y0109244D01*
X0097633Y0109842D02*
X0135233Y0109842D01*
X0135233Y0110441D02*
X0097633Y0110441D01*
X0097633Y0111039D02*
X0135233Y0111039D01*
X0135233Y0111638D02*
X0097633Y0111638D01*
X0097633Y0112237D02*
X0135233Y0112237D01*
X0135233Y0112835D02*
X0097633Y0112835D01*
X0097633Y0113434D02*
X0135233Y0113434D01*
X0135233Y0114032D02*
X0097633Y0114032D01*
X0097633Y0114631D02*
X0135233Y0114631D01*
X0135233Y0115229D02*
X0097633Y0115229D01*
X0097633Y0115828D02*
X0135233Y0115828D01*
X0135233Y0116426D02*
X0097633Y0116426D01*
X0097633Y0117025D02*
X0104840Y0117025D01*
X0104995Y0117000D02*
X0108033Y0117000D01*
X0108033Y0121000D01*
X0101033Y0121000D01*
X0101033Y0120962D01*
X0101139Y0120293D01*
X0101348Y0119649D01*
X0101656Y0119046D01*
X0102053Y0118499D01*
X0102532Y0118020D01*
X0103080Y0117622D01*
X0103683Y0117315D01*
X0104326Y0117106D01*
X0104995Y0117000D01*
X0103079Y0117623D02*
X0097633Y0117623D01*
X0097633Y0118222D02*
X0102331Y0118222D01*
X0101820Y0118820D02*
X0097633Y0118820D01*
X0097633Y0119419D02*
X0101466Y0119419D01*
X0101229Y0120017D02*
X0097633Y0120017D01*
X0097633Y0120616D02*
X0101088Y0120616D01*
X0101033Y0121600D02*
X0108033Y0121600D01*
X0108033Y0121000D01*
X0108633Y0121000D01*
X0108633Y0117000D01*
X0111672Y0117000D01*
X0112340Y0117106D01*
X0112984Y0117315D01*
X0113587Y0117622D01*
X0114135Y0118020D01*
X0114613Y0118499D01*
X0115011Y0119046D01*
X0115318Y0119649D01*
X0115527Y0120293D01*
X0115633Y0120962D01*
X0115633Y0121000D01*
X0108633Y0121000D01*
X0108633Y0121600D01*
X0108033Y0121600D01*
X0108033Y0125600D01*
X0104995Y0125600D01*
X0104326Y0125494D01*
X0103683Y0125285D01*
X0103080Y0124978D01*
X0102532Y0124580D01*
X0102053Y0124101D01*
X0101656Y0123554D01*
X0101348Y0122951D01*
X0101139Y0122307D01*
X0101033Y0121638D01*
X0101033Y0121600D01*
X0101061Y0121813D02*
X0097633Y0121813D01*
X0097633Y0122411D02*
X0101173Y0122411D01*
X0101378Y0123010D02*
X0097633Y0123010D01*
X0097633Y0123608D02*
X0101695Y0123608D01*
X0102159Y0124207D02*
X0097633Y0124207D01*
X0097633Y0124805D02*
X0102842Y0124805D01*
X0104048Y0125404D02*
X0097633Y0125404D01*
X0097633Y0126002D02*
X0104274Y0126002D01*
X0102829Y0126601D02*
X0097633Y0126601D01*
X0097633Y0127199D02*
X0101939Y0127199D01*
X0101340Y0127798D02*
X0097633Y0127798D01*
X0097633Y0128396D02*
X0100799Y0128396D01*
X0100551Y0128995D02*
X0097633Y0128995D01*
X0097633Y0129593D02*
X0100304Y0129593D01*
X0100056Y0130192D02*
X0097633Y0130192D01*
X0097633Y0130790D02*
X0100033Y0130790D01*
X0100033Y0131389D02*
X0097633Y0131389D01*
X0097633Y0131987D02*
X0100033Y0131987D01*
X0100129Y0132586D02*
X0097633Y0132586D01*
X0097633Y0133184D02*
X0100377Y0133184D01*
X0100625Y0133783D02*
X0097633Y0133783D01*
X0097633Y0134381D02*
X0100919Y0134381D01*
X0101518Y0134980D02*
X0097633Y0134980D01*
X0097633Y0135578D02*
X0102116Y0135578D01*
X0102407Y0136775D02*
X0097633Y0136775D01*
X0097633Y0136177D02*
X0103258Y0136177D01*
X0101764Y0137374D02*
X0097633Y0137374D01*
X0097633Y0137972D02*
X0101166Y0137972D01*
X0100727Y0138571D02*
X0097633Y0138571D01*
X0097633Y0139170D02*
X0100479Y0139170D01*
X0100231Y0139768D02*
X0097633Y0139768D01*
X0097633Y0140367D02*
X0100033Y0140367D01*
X0100033Y0140965D02*
X0097633Y0140965D01*
X0097633Y0141564D02*
X0100033Y0141564D01*
X0100033Y0142162D02*
X0097633Y0142162D01*
X0097633Y0142761D02*
X0100202Y0142761D01*
X0100450Y0143359D02*
X0097633Y0143359D01*
X0097633Y0143958D02*
X0100697Y0143958D01*
X0101094Y0144556D02*
X0097633Y0144556D01*
X0097633Y0145155D02*
X0101693Y0145155D01*
X0102291Y0145753D02*
X0097633Y0145753D01*
X0097633Y0146352D02*
X0103680Y0146352D01*
X0107189Y0149943D02*
X0097633Y0149943D01*
X0097633Y0150541D02*
X0106757Y0150541D01*
X0106509Y0151140D02*
X0097633Y0151140D01*
X0097633Y0151738D02*
X0106433Y0151738D01*
X0106433Y0152337D02*
X0097633Y0152337D01*
X0097633Y0152935D02*
X0106433Y0152935D01*
X0106433Y0153534D02*
X0097633Y0153534D01*
X0097633Y0154132D02*
X0106433Y0154132D01*
X0106433Y0154731D02*
X0097633Y0154731D01*
X0097633Y0155329D02*
X0106433Y0155329D01*
X0106433Y0155928D02*
X0097633Y0155928D01*
X0097633Y0156526D02*
X0106433Y0156526D01*
X0106433Y0157125D02*
X0097633Y0157125D01*
X0097633Y0157723D02*
X0106433Y0157723D01*
X0106433Y0158322D02*
X0097633Y0158322D01*
X0097633Y0158920D02*
X0106433Y0158920D01*
X0106433Y0159519D02*
X0097633Y0159519D01*
X0097633Y0160117D02*
X0106433Y0160117D01*
X0106433Y0160716D02*
X0097633Y0160716D01*
X0097633Y0161314D02*
X0103520Y0161314D01*
X0102225Y0161913D02*
X0097633Y0161913D01*
X0097633Y0162511D02*
X0101627Y0162511D01*
X0101028Y0163110D02*
X0097633Y0163110D01*
X0097633Y0163708D02*
X0100670Y0163708D01*
X0100422Y0164307D02*
X0097633Y0164307D01*
X0097633Y0164905D02*
X0100174Y0164905D01*
X0100033Y0165504D02*
X0097633Y0165504D01*
X0097633Y0166103D02*
X0100033Y0166103D01*
X0100033Y0166701D02*
X0097633Y0166701D01*
X0097633Y0167300D02*
X0100033Y0167300D01*
X0100259Y0167898D02*
X0097633Y0167898D01*
X0097633Y0168497D02*
X0100507Y0168497D01*
X0100754Y0169095D02*
X0097633Y0169095D01*
X0097633Y0169694D02*
X0101232Y0169694D01*
X0101830Y0170292D02*
X0097633Y0170292D01*
X0097633Y0170891D02*
X0102567Y0170891D01*
X0104011Y0171489D02*
X0097633Y0171489D01*
X0097633Y0172088D02*
X0104442Y0172088D01*
X0104326Y0172106D02*
X0104995Y0172000D01*
X0108033Y0172000D01*
X0108033Y0176000D01*
X0101033Y0176000D01*
X0101033Y0175962D01*
X0101139Y0175293D01*
X0101348Y0174649D01*
X0101656Y0174046D01*
X0102053Y0173499D01*
X0102532Y0173020D01*
X0103080Y0172622D01*
X0103683Y0172315D01*
X0104326Y0172106D01*
X0102992Y0172686D02*
X0097633Y0172686D01*
X0097633Y0173285D02*
X0102268Y0173285D01*
X0101774Y0173883D02*
X0097633Y0173883D01*
X0097633Y0174482D02*
X0101434Y0174482D01*
X0101208Y0175080D02*
X0097633Y0175080D01*
X0097633Y0175679D02*
X0101078Y0175679D01*
X0101033Y0176600D02*
X0108033Y0176600D01*
X0108033Y0176000D01*
X0108633Y0176000D01*
X0108633Y0172000D01*
X0111672Y0172000D01*
X0112340Y0172106D01*
X0112984Y0172315D01*
X0113587Y0172622D01*
X0114135Y0173020D01*
X0114613Y0173499D01*
X0115011Y0174046D01*
X0115318Y0174649D01*
X0115527Y0175293D01*
X0115633Y0175962D01*
X0115633Y0176000D01*
X0108633Y0176000D01*
X0108633Y0176600D01*
X0108033Y0176600D01*
X0108033Y0180600D01*
X0104995Y0180600D01*
X0104326Y0180494D01*
X0103683Y0180285D01*
X0103080Y0179978D01*
X0102532Y0179580D01*
X0102053Y0179101D01*
X0101656Y0178554D01*
X0101348Y0177951D01*
X0101139Y0177307D01*
X0101033Y0176638D01*
X0101033Y0176600D01*
X0101071Y0176876D02*
X0097633Y0176876D01*
X0097633Y0177474D02*
X0101194Y0177474D01*
X0101411Y0178073D02*
X0097633Y0178073D01*
X0097633Y0178671D02*
X0101741Y0178671D01*
X0102222Y0179270D02*
X0097633Y0179270D01*
X0097633Y0179868D02*
X0102929Y0179868D01*
X0104242Y0180467D02*
X0097633Y0180467D01*
X0097633Y0181065D02*
X0200033Y0181065D01*
X0200033Y0180467D02*
X0112424Y0180467D01*
X0112340Y0180494D02*
X0111672Y0180600D01*
X0108633Y0180600D01*
X0108633Y0176600D01*
X0115633Y0176600D01*
X0115633Y0176638D01*
X0115527Y0177307D01*
X0115318Y0177951D01*
X0115011Y0178554D01*
X0114613Y0179101D01*
X0114135Y0179580D01*
X0113587Y0179978D01*
X0112984Y0180285D01*
X0112340Y0180494D01*
X0113738Y0179868D02*
X0200190Y0179868D01*
X0200438Y0179270D02*
X0114445Y0179270D01*
X0114926Y0178671D02*
X0127048Y0178671D01*
X0127359Y0178800D02*
X0125558Y0178054D01*
X0124179Y0176676D01*
X0123433Y0174875D01*
X0123433Y0167725D01*
X0124179Y0165924D01*
X0125558Y0164546D01*
X0127359Y0163800D01*
X0129308Y0163800D01*
X0131109Y0164546D01*
X0132487Y0165924D01*
X0133233Y0167725D01*
X0133233Y0174875D01*
X0132487Y0176676D01*
X0131109Y0178054D01*
X0129308Y0178800D01*
X0127359Y0178800D01*
X0125603Y0178073D02*
X0115256Y0178073D01*
X0115473Y0177474D02*
X0124978Y0177474D01*
X0124379Y0176876D02*
X0115596Y0176876D01*
X0115589Y0175679D02*
X0123766Y0175679D01*
X0124014Y0176277D02*
X0108633Y0176277D01*
X0108633Y0175679D02*
X0108033Y0175679D01*
X0108033Y0176277D02*
X0097633Y0176277D01*
X0097633Y0181664D02*
X0200033Y0181664D01*
X0200033Y0182262D02*
X0097633Y0182262D01*
X0097633Y0182861D02*
X0200243Y0182861D01*
X0200491Y0183459D02*
X0097633Y0183459D01*
X0097633Y0184058D02*
X0200739Y0184058D01*
X0201194Y0184656D02*
X0097633Y0184656D01*
X0097633Y0185255D02*
X0106320Y0185255D01*
X0106860Y0185110D02*
X0109806Y0185110D01*
X0112652Y0185873D01*
X0115204Y0187346D01*
X0117287Y0189429D01*
X0118761Y0191981D01*
X0119523Y0194827D01*
X0119523Y0197773D01*
X0118761Y0200619D01*
X0117287Y0203171D01*
X0115204Y0205254D01*
X0112652Y0206727D01*
X0111781Y0206961D01*
X0125894Y0206961D01*
X0125847Y0206929D01*
X0125304Y0206386D01*
X0124877Y0205747D01*
X0124583Y0205038D01*
X0124433Y0204284D01*
X0124433Y0201600D01*
X0128033Y0201600D01*
X0128033Y0201000D01*
X0124433Y0201000D01*
X0124433Y0198316D01*
X0124583Y0197562D01*
X0124877Y0196853D01*
X0125304Y0196214D01*
X0125847Y0195671D01*
X0126486Y0195244D01*
X0127196Y0194950D01*
X0127949Y0194800D01*
X0128033Y0194800D01*
X0128033Y0201000D01*
X0128633Y0201000D01*
X0128633Y0194800D01*
X0128717Y0194800D01*
X0129471Y0194950D01*
X0130181Y0195244D01*
X0130819Y0195671D01*
X0131363Y0196214D01*
X0131789Y0196853D01*
X0132083Y0197562D01*
X0132233Y0198316D01*
X0132233Y0201000D01*
X0128633Y0201000D01*
X0128633Y0201600D01*
X0132233Y0201600D01*
X0132233Y0204284D01*
X0132083Y0205038D01*
X0131789Y0205747D01*
X0131363Y0206386D01*
X0130819Y0206929D01*
X0130773Y0206961D01*
X0134464Y0206961D01*
X0134179Y0206676D01*
X0133433Y0204875D01*
X0133433Y0197725D01*
X0134179Y0195924D01*
X0135558Y0194546D01*
X0137359Y0193800D01*
X0139308Y0193800D01*
X0141109Y0194546D01*
X0142487Y0195924D01*
X0143233Y0197725D01*
X0143233Y0204875D01*
X0142487Y0206676D01*
X0142202Y0206961D01*
X0144464Y0206961D01*
X0144179Y0206676D01*
X0143433Y0204875D01*
X0143433Y0197725D01*
X0144179Y0195924D01*
X0145558Y0194546D01*
X0147359Y0193800D01*
X0149308Y0193800D01*
X0151109Y0194546D01*
X0152487Y0195924D01*
X0153233Y0197725D01*
X0153233Y0204875D01*
X0152487Y0206676D01*
X0152202Y0206961D01*
X0154464Y0206961D01*
X0154179Y0206676D01*
X0153433Y0204875D01*
X0153433Y0197725D01*
X0154179Y0195924D01*
X0155558Y0194546D01*
X0157359Y0193800D01*
X0159308Y0193800D01*
X0161109Y0194546D01*
X0162487Y0195924D01*
X0163233Y0197725D01*
X0163233Y0204875D01*
X0162487Y0206676D01*
X0162202Y0206961D01*
X0164464Y0206961D01*
X0164179Y0206676D01*
X0163433Y0204875D01*
X0163433Y0197725D01*
X0164179Y0195924D01*
X0165558Y0194546D01*
X0167359Y0193800D01*
X0169308Y0193800D01*
X0171109Y0194546D01*
X0172487Y0195924D01*
X0173233Y0197725D01*
X0173233Y0204875D01*
X0172487Y0206676D01*
X0172202Y0206961D01*
X0174464Y0206961D01*
X0174179Y0206676D01*
X0173433Y0204875D01*
X0173433Y0197725D01*
X0174179Y0195924D01*
X0175558Y0194546D01*
X0177359Y0193800D01*
X0179308Y0193800D01*
X0181109Y0194546D01*
X0182487Y0195924D01*
X0183233Y0197725D01*
X0183233Y0204875D01*
X0182487Y0206676D01*
X0182202Y0206961D01*
X0184464Y0206961D01*
X0184179Y0206676D01*
X0183433Y0204875D01*
X0183433Y0197725D01*
X0184179Y0195924D01*
X0185558Y0194546D01*
X0187359Y0193800D01*
X0189308Y0193800D01*
X0191109Y0194546D01*
X0192487Y0195924D01*
X0193233Y0197725D01*
X0193233Y0204875D01*
X0192487Y0206676D01*
X0192202Y0206961D01*
X0312734Y0206961D01*
X0312734Y0027397D01*
X0312287Y0028171D01*
X0310204Y0030254D01*
X0307652Y0031727D01*
X0304806Y0032490D01*
X0301860Y0032490D01*
X0299014Y0031727D01*
X0296463Y0030254D01*
X0294379Y0028171D01*
X0292906Y0025619D01*
X0292144Y0022773D01*
X0292144Y0019827D01*
X0292906Y0016981D01*
X0294379Y0014429D01*
X0296463Y0012346D01*
X0299014Y0010873D01*
X0300032Y0010600D01*
X0097633Y0010600D01*
X0097633Y0192999D01*
X0097906Y0191981D01*
X0099379Y0189429D01*
X0101463Y0187346D01*
X0104014Y0185873D01*
X0106860Y0185110D01*
X0104087Y0185853D02*
X0097633Y0185853D01*
X0097633Y0186452D02*
X0103011Y0186452D01*
X0101975Y0187050D02*
X0097633Y0187050D01*
X0097633Y0187649D02*
X0101160Y0187649D01*
X0100561Y0188247D02*
X0097633Y0188247D01*
X0097633Y0188846D02*
X0099963Y0188846D01*
X0099371Y0189444D02*
X0097633Y0189444D01*
X0097633Y0190043D02*
X0099025Y0190043D01*
X0098679Y0190641D02*
X0097633Y0190641D01*
X0097633Y0191240D02*
X0098334Y0191240D01*
X0097988Y0191839D02*
X0097633Y0191839D01*
X0097633Y0192437D02*
X0097784Y0192437D01*
X0110346Y0185255D02*
X0201793Y0185255D01*
X0202477Y0185853D02*
X0112580Y0185853D01*
X0113655Y0186452D02*
X0203922Y0186452D01*
X0204326Y0187106D02*
X0204995Y0187000D01*
X0208033Y0187000D01*
X0208033Y0191000D01*
X0201033Y0191000D01*
X0201033Y0190962D01*
X0201139Y0190293D01*
X0201348Y0189649D01*
X0201656Y0189046D01*
X0202053Y0188499D01*
X0202532Y0188020D01*
X0203080Y0187622D01*
X0203683Y0187315D01*
X0204326Y0187106D01*
X0204677Y0187050D02*
X0114692Y0187050D01*
X0115507Y0187649D02*
X0203043Y0187649D01*
X0202305Y0188247D02*
X0116105Y0188247D01*
X0116704Y0188846D02*
X0201801Y0188846D01*
X0201453Y0189444D02*
X0117296Y0189444D01*
X0117642Y0190043D02*
X0201220Y0190043D01*
X0201084Y0190641D02*
X0117987Y0190641D01*
X0118333Y0191240D02*
X0208033Y0191240D01*
X0208033Y0191000D02*
X0208033Y0191600D01*
X0201033Y0191600D01*
X0201033Y0191638D01*
X0201139Y0192307D01*
X0201348Y0192951D01*
X0201656Y0193554D01*
X0202053Y0194101D01*
X0202532Y0194580D01*
X0203080Y0194978D01*
X0203683Y0195285D01*
X0204326Y0195494D01*
X0204995Y0195600D01*
X0208033Y0195600D01*
X0208033Y0191600D01*
X0208633Y0191600D01*
X0208633Y0195600D01*
X0211672Y0195600D01*
X0212340Y0195494D01*
X0212984Y0195285D01*
X0213587Y0194978D01*
X0214135Y0194580D01*
X0214613Y0194101D01*
X0215011Y0193554D01*
X0215318Y0192951D01*
X0215527Y0192307D01*
X0215633Y0191638D01*
X0215633Y0191600D01*
X0208633Y0191600D01*
X0208633Y0191000D01*
X0208633Y0187000D01*
X0211672Y0187000D01*
X0212340Y0187106D01*
X0212984Y0187315D01*
X0213587Y0187622D01*
X0214135Y0188020D01*
X0214613Y0188499D01*
X0215011Y0189046D01*
X0215318Y0189649D01*
X0215527Y0190293D01*
X0215633Y0190962D01*
X0215633Y0191000D01*
X0208633Y0191000D01*
X0208033Y0191000D01*
X0208033Y0190641D02*
X0208633Y0190641D01*
X0208633Y0190043D02*
X0208033Y0190043D01*
X0208033Y0189444D02*
X0208633Y0189444D01*
X0208633Y0188846D02*
X0208033Y0188846D01*
X0208033Y0188247D02*
X0208633Y0188247D01*
X0208633Y0187649D02*
X0208033Y0187649D01*
X0208033Y0187050D02*
X0208633Y0187050D01*
X0211990Y0187050D02*
X0292088Y0187050D01*
X0292331Y0186807D02*
X0290840Y0188298D01*
X0290033Y0190246D01*
X0290033Y0192354D01*
X0290840Y0194302D01*
X0292331Y0195793D01*
X0293555Y0196300D01*
X0292331Y0196807D01*
X0290840Y0198298D01*
X0290033Y0200246D01*
X0290033Y0202354D01*
X0290840Y0204302D01*
X0292331Y0205793D01*
X0294279Y0206600D01*
X0302388Y0206600D01*
X0304336Y0205793D01*
X0305826Y0204302D01*
X0306633Y0202354D01*
X0306633Y0200246D01*
X0305826Y0198298D01*
X0304336Y0196807D01*
X0303112Y0196300D01*
X0304336Y0195793D01*
X0305826Y0194302D01*
X0306633Y0192354D01*
X0306633Y0190246D01*
X0305826Y0188298D01*
X0304336Y0186807D01*
X0303112Y0186300D01*
X0304336Y0185793D01*
X0305826Y0184302D01*
X0306633Y0182354D01*
X0306633Y0180246D01*
X0305826Y0178298D01*
X0304336Y0176807D01*
X0303112Y0176300D01*
X0304336Y0175793D01*
X0305826Y0174302D01*
X0306633Y0172354D01*
X0306633Y0170246D01*
X0305826Y0168298D01*
X0304336Y0166807D01*
X0303112Y0166300D01*
X0304336Y0165793D01*
X0305826Y0164302D01*
X0306633Y0162354D01*
X0306633Y0160246D01*
X0305826Y0158298D01*
X0304336Y0156807D01*
X0303112Y0156300D01*
X0304336Y0155793D01*
X0305826Y0154302D01*
X0306633Y0152354D01*
X0306633Y0150246D01*
X0305826Y0148298D01*
X0304336Y0146807D01*
X0303112Y0146300D01*
X0304336Y0145793D01*
X0305826Y0144302D01*
X0306633Y0142354D01*
X0306633Y0140246D01*
X0305826Y0138298D01*
X0304336Y0136807D01*
X0303112Y0136300D01*
X0304336Y0135793D01*
X0305826Y0134302D01*
X0306633Y0132354D01*
X0306633Y0130246D01*
X0305826Y0128298D01*
X0304336Y0126807D01*
X0303112Y0126300D01*
X0304336Y0125793D01*
X0305826Y0124302D01*
X0306633Y0122354D01*
X0306633Y0120246D01*
X0305826Y0118298D01*
X0304336Y0116807D01*
X0303112Y0116300D01*
X0304336Y0115793D01*
X0305826Y0114302D01*
X0306633Y0112354D01*
X0306633Y0110246D01*
X0305826Y0108298D01*
X0304336Y0106807D01*
X0303112Y0106300D01*
X0304336Y0105793D01*
X0305826Y0104302D01*
X0306633Y0102354D01*
X0306633Y0100246D01*
X0305826Y0098298D01*
X0304336Y0096807D01*
X0303112Y0096300D01*
X0304336Y0095793D01*
X0305826Y0094302D01*
X0306633Y0092354D01*
X0306633Y0090246D01*
X0305826Y0088298D01*
X0304336Y0086807D01*
X0303112Y0086300D01*
X0304336Y0085793D01*
X0305826Y0084302D01*
X0306633Y0082354D01*
X0306633Y0080246D01*
X0305826Y0078298D01*
X0304336Y0076807D01*
X0303112Y0076300D01*
X0304336Y0075793D01*
X0305826Y0074302D01*
X0306633Y0072354D01*
X0306633Y0070246D01*
X0305826Y0068298D01*
X0304336Y0066807D01*
X0302388Y0066000D01*
X0294279Y0066000D01*
X0292331Y0066807D01*
X0290840Y0068298D01*
X0290033Y0070246D01*
X0290033Y0072354D01*
X0290840Y0074302D01*
X0292331Y0075793D01*
X0293555Y0076300D01*
X0292331Y0076807D01*
X0290840Y0078298D01*
X0290033Y0080246D01*
X0290033Y0082354D01*
X0290840Y0084302D01*
X0292331Y0085793D01*
X0293555Y0086300D01*
X0292331Y0086807D01*
X0290840Y0088298D01*
X0290033Y0090246D01*
X0290033Y0092354D01*
X0290840Y0094302D01*
X0292331Y0095793D01*
X0293555Y0096300D01*
X0292331Y0096807D01*
X0290840Y0098298D01*
X0290033Y0100246D01*
X0290033Y0102354D01*
X0290840Y0104302D01*
X0292331Y0105793D01*
X0293555Y0106300D01*
X0292331Y0106807D01*
X0290840Y0108298D01*
X0290033Y0110246D01*
X0290033Y0112354D01*
X0290840Y0114302D01*
X0292331Y0115793D01*
X0293555Y0116300D01*
X0292331Y0116807D01*
X0290840Y0118298D01*
X0290033Y0120246D01*
X0290033Y0122354D01*
X0290840Y0124302D01*
X0292331Y0125793D01*
X0293555Y0126300D01*
X0292331Y0126807D01*
X0290840Y0128298D01*
X0290033Y0130246D01*
X0290033Y0132354D01*
X0290840Y0134302D01*
X0292331Y0135793D01*
X0293555Y0136300D01*
X0292331Y0136807D01*
X0290840Y0138298D01*
X0290033Y0140246D01*
X0290033Y0142354D01*
X0290840Y0144302D01*
X0292331Y0145793D01*
X0293555Y0146300D01*
X0292331Y0146807D01*
X0290840Y0148298D01*
X0290033Y0150246D01*
X0290033Y0152354D01*
X0290840Y0154302D01*
X0292331Y0155793D01*
X0293555Y0156300D01*
X0292331Y0156807D01*
X0290840Y0158298D01*
X0290033Y0160246D01*
X0290033Y0162354D01*
X0290840Y0164302D01*
X0292331Y0165793D01*
X0293555Y0166300D01*
X0292331Y0166807D01*
X0290840Y0168298D01*
X0290033Y0170246D01*
X0290033Y0172354D01*
X0290840Y0174302D01*
X0292331Y0175793D01*
X0293555Y0176300D01*
X0292331Y0176807D01*
X0290840Y0178298D01*
X0290033Y0180246D01*
X0290033Y0182354D01*
X0290840Y0184302D01*
X0292331Y0185793D01*
X0293555Y0186300D01*
X0292331Y0186807D01*
X0293188Y0186452D02*
X0212745Y0186452D01*
X0213624Y0187649D02*
X0291489Y0187649D01*
X0290891Y0188247D02*
X0214362Y0188247D01*
X0214865Y0188846D02*
X0290613Y0188846D01*
X0290365Y0189444D02*
X0215214Y0189444D01*
X0215446Y0190043D02*
X0290117Y0190043D01*
X0290033Y0190641D02*
X0215583Y0190641D01*
X0215602Y0191839D02*
X0290033Y0191839D01*
X0290033Y0191240D02*
X0208633Y0191240D01*
X0208633Y0191839D02*
X0208033Y0191839D01*
X0208033Y0192437D02*
X0208633Y0192437D01*
X0208633Y0193036D02*
X0208033Y0193036D01*
X0208033Y0193634D02*
X0208633Y0193634D01*
X0208633Y0194233D02*
X0208033Y0194233D01*
X0208033Y0194831D02*
X0208633Y0194831D01*
X0208633Y0195430D02*
X0208033Y0195430D01*
X0204279Y0196000D02*
X0212388Y0196000D01*
X0214336Y0196807D01*
X0215826Y0198298D01*
X0216633Y0200246D01*
X0216633Y0202354D01*
X0215826Y0204302D01*
X0214336Y0205793D01*
X0212388Y0206600D01*
X0204279Y0206600D01*
X0202331Y0205793D01*
X0200840Y0204302D01*
X0200033Y0202354D01*
X0200033Y0200246D01*
X0200840Y0198298D01*
X0202331Y0196807D01*
X0204279Y0196000D01*
X0204211Y0196028D02*
X0192530Y0196028D01*
X0192778Y0196627D02*
X0202766Y0196627D01*
X0201913Y0197225D02*
X0193026Y0197225D01*
X0193233Y0197824D02*
X0201314Y0197824D01*
X0200789Y0198422D02*
X0193233Y0198422D01*
X0193233Y0199021D02*
X0200541Y0199021D01*
X0200293Y0199619D02*
X0193233Y0199619D01*
X0193233Y0200218D02*
X0200045Y0200218D01*
X0200033Y0200816D02*
X0193233Y0200816D01*
X0193233Y0201415D02*
X0200033Y0201415D01*
X0200033Y0202013D02*
X0193233Y0202013D01*
X0193233Y0202612D02*
X0200140Y0202612D01*
X0200388Y0203210D02*
X0193233Y0203210D01*
X0193233Y0203809D02*
X0200636Y0203809D01*
X0200945Y0204407D02*
X0193233Y0204407D01*
X0193179Y0205006D02*
X0201544Y0205006D01*
X0202142Y0205604D02*
X0192931Y0205604D01*
X0192683Y0206203D02*
X0203320Y0206203D01*
X0213347Y0206203D02*
X0293320Y0206203D01*
X0292142Y0205604D02*
X0214524Y0205604D01*
X0215123Y0205006D02*
X0291544Y0205006D01*
X0290945Y0204407D02*
X0215721Y0204407D01*
X0216031Y0203809D02*
X0290636Y0203809D01*
X0290388Y0203210D02*
X0216279Y0203210D01*
X0216527Y0202612D02*
X0290140Y0202612D01*
X0290033Y0202013D02*
X0216633Y0202013D01*
X0216633Y0201415D02*
X0290033Y0201415D01*
X0290033Y0200816D02*
X0216633Y0200816D01*
X0216622Y0200218D02*
X0290045Y0200218D01*
X0290293Y0199619D02*
X0216374Y0199619D01*
X0216126Y0199021D02*
X0290541Y0199021D01*
X0290789Y0198422D02*
X0215878Y0198422D01*
X0215352Y0197824D02*
X0291314Y0197824D01*
X0291913Y0197225D02*
X0214754Y0197225D01*
X0213900Y0196627D02*
X0292766Y0196627D01*
X0292898Y0196028D02*
X0212455Y0196028D01*
X0212539Y0195430D02*
X0291968Y0195430D01*
X0291369Y0194831D02*
X0213789Y0194831D01*
X0214482Y0194233D02*
X0290811Y0194233D01*
X0290563Y0193634D02*
X0214953Y0193634D01*
X0215275Y0193036D02*
X0290316Y0193036D01*
X0290068Y0192437D02*
X0215485Y0192437D01*
X0214190Y0185853D02*
X0292477Y0185853D01*
X0291793Y0185255D02*
X0214874Y0185255D01*
X0215472Y0184656D02*
X0291194Y0184656D01*
X0290739Y0184058D02*
X0215928Y0184058D01*
X0216176Y0183459D02*
X0290491Y0183459D01*
X0290243Y0182861D02*
X0216423Y0182861D01*
X0216633Y0182262D02*
X0290033Y0182262D01*
X0290033Y0181664D02*
X0216633Y0181664D01*
X0216633Y0181065D02*
X0290033Y0181065D01*
X0290033Y0180467D02*
X0216633Y0180467D01*
X0216477Y0179868D02*
X0290190Y0179868D01*
X0290438Y0179270D02*
X0216229Y0179270D01*
X0215981Y0178671D02*
X0290686Y0178671D01*
X0291065Y0178073D02*
X0215601Y0178073D01*
X0215003Y0177474D02*
X0291664Y0177474D01*
X0292262Y0176876D02*
X0214404Y0176876D01*
X0214450Y0175679D02*
X0292217Y0175679D01*
X0291618Y0175080D02*
X0215048Y0175080D01*
X0215647Y0174482D02*
X0291020Y0174482D01*
X0290667Y0173883D02*
X0216000Y0173883D01*
X0216248Y0173285D02*
X0290419Y0173285D01*
X0290171Y0172686D02*
X0216496Y0172686D01*
X0216633Y0172088D02*
X0290033Y0172088D01*
X0290033Y0171489D02*
X0216633Y0171489D01*
X0216633Y0170891D02*
X0290033Y0170891D01*
X0290033Y0170292D02*
X0216633Y0170292D01*
X0216405Y0169694D02*
X0290262Y0169694D01*
X0290510Y0169095D02*
X0216157Y0169095D01*
X0215909Y0168497D02*
X0290758Y0168497D01*
X0291240Y0167898D02*
X0215427Y0167898D01*
X0214828Y0167300D02*
X0291838Y0167300D01*
X0292587Y0166701D02*
X0214080Y0166701D01*
X0213589Y0166103D02*
X0293078Y0166103D01*
X0292042Y0165504D02*
X0214625Y0165504D01*
X0215223Y0164905D02*
X0291444Y0164905D01*
X0290845Y0164307D02*
X0215822Y0164307D01*
X0216072Y0163708D02*
X0290594Y0163708D01*
X0290346Y0163110D02*
X0216320Y0163110D01*
X0216568Y0162511D02*
X0290098Y0162511D01*
X0290033Y0161913D02*
X0216633Y0161913D01*
X0216633Y0161314D02*
X0290033Y0161314D01*
X0290033Y0160716D02*
X0216633Y0160716D01*
X0216580Y0160117D02*
X0290086Y0160117D01*
X0290334Y0159519D02*
X0216332Y0159519D01*
X0216084Y0158920D02*
X0290582Y0158920D01*
X0290830Y0158322D02*
X0215836Y0158322D01*
X0215252Y0157723D02*
X0291415Y0157723D01*
X0292013Y0157125D02*
X0214654Y0157125D01*
X0213658Y0156526D02*
X0293008Y0156526D01*
X0292656Y0155928D02*
X0214010Y0155928D01*
X0214799Y0155329D02*
X0291867Y0155329D01*
X0291269Y0154731D02*
X0215398Y0154731D01*
X0215897Y0154132D02*
X0290770Y0154132D01*
X0290522Y0153534D02*
X0216145Y0153534D01*
X0216393Y0152935D02*
X0290274Y0152935D01*
X0290033Y0152337D02*
X0216633Y0152337D01*
X0216633Y0151738D02*
X0290033Y0151738D01*
X0290033Y0151140D02*
X0216633Y0151140D01*
X0216633Y0150541D02*
X0290033Y0150541D01*
X0290159Y0149943D02*
X0216508Y0149943D01*
X0216260Y0149344D02*
X0290407Y0149344D01*
X0290655Y0148746D02*
X0216012Y0148746D01*
X0215676Y0148147D02*
X0290991Y0148147D01*
X0291589Y0147549D02*
X0215077Y0147549D01*
X0214479Y0146950D02*
X0292188Y0146950D01*
X0292291Y0145753D02*
X0214376Y0145753D01*
X0214974Y0145155D02*
X0291693Y0145155D01*
X0291094Y0144556D02*
X0215573Y0144556D01*
X0215969Y0143958D02*
X0290697Y0143958D01*
X0290450Y0143359D02*
X0216217Y0143359D01*
X0216465Y0142761D02*
X0290202Y0142761D01*
X0290033Y0142162D02*
X0216633Y0142162D01*
X0216633Y0141564D02*
X0290033Y0141564D01*
X0290033Y0140965D02*
X0216633Y0140965D01*
X0216633Y0140367D02*
X0290033Y0140367D01*
X0290231Y0139768D02*
X0216435Y0139768D01*
X0216188Y0139170D02*
X0290479Y0139170D01*
X0290727Y0138571D02*
X0215940Y0138571D01*
X0215501Y0137972D02*
X0291166Y0137972D01*
X0291764Y0137374D02*
X0214903Y0137374D01*
X0214260Y0136775D02*
X0292407Y0136775D01*
X0293258Y0136177D02*
X0213409Y0136177D01*
X0214550Y0135578D02*
X0292116Y0135578D01*
X0291518Y0134980D02*
X0215149Y0134980D01*
X0215747Y0134381D02*
X0290919Y0134381D01*
X0290625Y0133783D02*
X0216042Y0133783D01*
X0216289Y0133184D02*
X0290377Y0133184D01*
X0290129Y0132586D02*
X0216537Y0132586D01*
X0216633Y0131987D02*
X0290033Y0131987D01*
X0290033Y0131389D02*
X0216633Y0131389D01*
X0216633Y0130790D02*
X0290033Y0130790D01*
X0290056Y0130192D02*
X0216611Y0130192D01*
X0216363Y0129593D02*
X0290304Y0129593D01*
X0290551Y0128995D02*
X0216115Y0128995D01*
X0215867Y0128396D02*
X0290799Y0128396D01*
X0291340Y0127798D02*
X0215326Y0127798D01*
X0214728Y0127199D02*
X0291939Y0127199D01*
X0292829Y0126601D02*
X0213838Y0126601D01*
X0213831Y0126002D02*
X0292836Y0126002D01*
X0291942Y0125404D02*
X0214725Y0125404D01*
X0215323Y0124805D02*
X0291343Y0124805D01*
X0290801Y0124207D02*
X0215866Y0124207D01*
X0216114Y0123608D02*
X0290553Y0123608D01*
X0290305Y0123010D02*
X0216362Y0123010D01*
X0216610Y0122411D02*
X0290057Y0122411D01*
X0290033Y0121813D02*
X0216633Y0121813D01*
X0216633Y0121214D02*
X0290033Y0121214D01*
X0290033Y0120616D02*
X0216633Y0120616D01*
X0216539Y0120017D02*
X0290128Y0120017D01*
X0290376Y0119419D02*
X0216291Y0119419D01*
X0216043Y0118820D02*
X0290624Y0118820D01*
X0290916Y0118222D02*
X0215750Y0118222D01*
X0215152Y0117623D02*
X0291515Y0117623D01*
X0292113Y0117025D02*
X0214553Y0117025D01*
X0214252Y0115828D02*
X0292414Y0115828D01*
X0291767Y0115229D02*
X0214900Y0115229D01*
X0215498Y0114631D02*
X0291169Y0114631D01*
X0290728Y0114032D02*
X0215938Y0114032D01*
X0216186Y0113434D02*
X0290480Y0113434D01*
X0290232Y0112835D02*
X0216434Y0112835D01*
X0216633Y0112237D02*
X0290033Y0112237D01*
X0290033Y0111638D02*
X0216633Y0111638D01*
X0216633Y0111039D02*
X0290033Y0111039D01*
X0290033Y0110441D02*
X0216633Y0110441D01*
X0216466Y0109842D02*
X0290200Y0109842D01*
X0290448Y0109244D02*
X0216218Y0109244D01*
X0215970Y0108645D02*
X0290696Y0108645D01*
X0291091Y0108047D02*
X0215576Y0108047D01*
X0214977Y0107448D02*
X0291690Y0107448D01*
X0292288Y0106850D02*
X0214379Y0106850D01*
X0214476Y0105653D02*
X0292191Y0105653D01*
X0291592Y0105054D02*
X0215074Y0105054D01*
X0215673Y0104456D02*
X0290994Y0104456D01*
X0290656Y0103857D02*
X0216011Y0103857D01*
X0216259Y0103259D02*
X0290408Y0103259D01*
X0290160Y0102660D02*
X0216507Y0102660D01*
X0216633Y0102062D02*
X0290033Y0102062D01*
X0290033Y0101463D02*
X0216633Y0101463D01*
X0216633Y0100865D02*
X0290033Y0100865D01*
X0290033Y0100266D02*
X0216633Y0100266D01*
X0216394Y0099668D02*
X0290273Y0099668D01*
X0290521Y0099069D02*
X0216146Y0099069D01*
X0215898Y0098471D02*
X0290769Y0098471D01*
X0291266Y0097872D02*
X0215401Y0097872D01*
X0214802Y0097274D02*
X0291864Y0097274D01*
X0292649Y0096675D02*
X0214018Y0096675D01*
X0213651Y0096077D02*
X0293016Y0096077D01*
X0292016Y0095478D02*
X0214650Y0095478D01*
X0215249Y0094880D02*
X0291418Y0094880D01*
X0290831Y0094281D02*
X0215835Y0094281D01*
X0216083Y0093683D02*
X0290584Y0093683D01*
X0290336Y0093084D02*
X0216331Y0093084D01*
X0216579Y0092486D02*
X0290088Y0092486D01*
X0290033Y0091887D02*
X0216633Y0091887D01*
X0216633Y0091289D02*
X0290033Y0091289D01*
X0290033Y0090690D02*
X0216633Y0090690D01*
X0216569Y0090092D02*
X0290097Y0090092D01*
X0290345Y0089493D02*
X0216322Y0089493D01*
X0216074Y0088895D02*
X0290593Y0088895D01*
X0290842Y0088296D02*
X0215825Y0088296D01*
X0215226Y0087698D02*
X0291440Y0087698D01*
X0292039Y0087099D02*
X0214628Y0087099D01*
X0213596Y0086501D02*
X0293071Y0086501D01*
X0292594Y0085902D02*
X0214073Y0085902D01*
X0214825Y0085303D02*
X0291841Y0085303D01*
X0291243Y0084705D02*
X0215424Y0084705D01*
X0215908Y0084106D02*
X0290759Y0084106D01*
X0290511Y0083508D02*
X0216155Y0083508D01*
X0216403Y0082909D02*
X0290263Y0082909D01*
X0290033Y0082311D02*
X0216633Y0082311D01*
X0216633Y0081712D02*
X0290033Y0081712D01*
X0290033Y0081114D02*
X0216633Y0081114D01*
X0216633Y0080515D02*
X0290033Y0080515D01*
X0290170Y0079917D02*
X0216497Y0079917D01*
X0216249Y0079318D02*
X0290417Y0079318D01*
X0290665Y0078720D02*
X0216001Y0078720D01*
X0215650Y0078121D02*
X0291017Y0078121D01*
X0291615Y0077523D02*
X0215052Y0077523D01*
X0214453Y0076924D02*
X0292214Y0076924D01*
X0292265Y0075727D02*
X0214401Y0075727D01*
X0215000Y0075129D02*
X0291667Y0075129D01*
X0291068Y0074530D02*
X0215598Y0074530D01*
X0215980Y0073932D02*
X0290687Y0073932D01*
X0290439Y0073333D02*
X0216228Y0073333D01*
X0216476Y0072735D02*
X0290191Y0072735D01*
X0290033Y0072136D02*
X0216633Y0072136D01*
X0216633Y0071538D02*
X0290033Y0071538D01*
X0290033Y0070939D02*
X0216633Y0070939D01*
X0216633Y0070341D02*
X0290033Y0070341D01*
X0290242Y0069742D02*
X0216425Y0069742D01*
X0216177Y0069144D02*
X0290490Y0069144D01*
X0290738Y0068545D02*
X0215929Y0068545D01*
X0215475Y0067947D02*
X0291191Y0067947D01*
X0291790Y0067348D02*
X0214877Y0067348D01*
X0214197Y0066750D02*
X0292469Y0066750D01*
X0293914Y0066151D02*
X0212752Y0066151D01*
X0203914Y0066151D02*
X0173033Y0066151D01*
X0173033Y0065553D02*
X0312734Y0065553D01*
X0312734Y0066151D02*
X0302752Y0066151D01*
X0304197Y0066750D02*
X0312734Y0066750D01*
X0312734Y0067348D02*
X0304877Y0067348D01*
X0305475Y0067947D02*
X0312734Y0067947D01*
X0312734Y0068545D02*
X0305929Y0068545D01*
X0306177Y0069144D02*
X0312734Y0069144D01*
X0312734Y0069742D02*
X0306425Y0069742D01*
X0306633Y0070341D02*
X0312734Y0070341D01*
X0312734Y0070939D02*
X0306633Y0070939D01*
X0306633Y0071538D02*
X0312734Y0071538D01*
X0312734Y0072136D02*
X0306633Y0072136D01*
X0306476Y0072735D02*
X0312734Y0072735D01*
X0312734Y0073333D02*
X0306228Y0073333D01*
X0305980Y0073932D02*
X0312734Y0073932D01*
X0312734Y0074530D02*
X0305598Y0074530D01*
X0305000Y0075129D02*
X0312734Y0075129D01*
X0312734Y0075727D02*
X0304401Y0075727D01*
X0304453Y0076924D02*
X0312734Y0076924D01*
X0312734Y0076326D02*
X0303174Y0076326D01*
X0305052Y0077523D02*
X0312734Y0077523D01*
X0312734Y0078121D02*
X0305650Y0078121D01*
X0306001Y0078720D02*
X0312734Y0078720D01*
X0312734Y0079318D02*
X0306249Y0079318D01*
X0306497Y0079917D02*
X0312734Y0079917D01*
X0312734Y0080515D02*
X0306633Y0080515D01*
X0306633Y0081114D02*
X0312734Y0081114D01*
X0312734Y0081712D02*
X0306633Y0081712D01*
X0306633Y0082311D02*
X0312734Y0082311D01*
X0312734Y0082909D02*
X0306403Y0082909D01*
X0306155Y0083508D02*
X0312734Y0083508D01*
X0312734Y0084106D02*
X0305908Y0084106D01*
X0305424Y0084705D02*
X0312734Y0084705D01*
X0312734Y0085303D02*
X0304825Y0085303D01*
X0304073Y0085902D02*
X0312734Y0085902D01*
X0312734Y0086501D02*
X0303596Y0086501D01*
X0304628Y0087099D02*
X0312734Y0087099D01*
X0312734Y0087698D02*
X0305226Y0087698D01*
X0305825Y0088296D02*
X0312734Y0088296D01*
X0312734Y0088895D02*
X0306074Y0088895D01*
X0306322Y0089493D02*
X0312734Y0089493D01*
X0312734Y0090092D02*
X0306569Y0090092D01*
X0306633Y0090690D02*
X0312734Y0090690D01*
X0312734Y0091289D02*
X0306633Y0091289D01*
X0306633Y0091887D02*
X0312734Y0091887D01*
X0312734Y0092486D02*
X0306579Y0092486D01*
X0306331Y0093084D02*
X0312734Y0093084D01*
X0312734Y0093683D02*
X0306083Y0093683D01*
X0305835Y0094281D02*
X0312734Y0094281D01*
X0312734Y0094880D02*
X0305249Y0094880D01*
X0304650Y0095478D02*
X0312734Y0095478D01*
X0312734Y0096077D02*
X0303651Y0096077D01*
X0304018Y0096675D02*
X0312734Y0096675D01*
X0312734Y0097274D02*
X0304802Y0097274D01*
X0305401Y0097872D02*
X0312734Y0097872D01*
X0312734Y0098471D02*
X0305898Y0098471D01*
X0306146Y0099069D02*
X0312734Y0099069D01*
X0312734Y0099668D02*
X0306394Y0099668D01*
X0306633Y0100266D02*
X0312734Y0100266D01*
X0312734Y0100865D02*
X0306633Y0100865D01*
X0306633Y0101463D02*
X0312734Y0101463D01*
X0312734Y0102062D02*
X0306633Y0102062D01*
X0306507Y0102660D02*
X0312734Y0102660D01*
X0312734Y0103259D02*
X0306259Y0103259D01*
X0306011Y0103857D02*
X0312734Y0103857D01*
X0312734Y0104456D02*
X0305673Y0104456D01*
X0305074Y0105054D02*
X0312734Y0105054D01*
X0312734Y0105653D02*
X0304476Y0105653D01*
X0304379Y0106850D02*
X0312734Y0106850D01*
X0312734Y0107448D02*
X0304977Y0107448D01*
X0305576Y0108047D02*
X0312734Y0108047D01*
X0312734Y0108645D02*
X0305970Y0108645D01*
X0306218Y0109244D02*
X0312734Y0109244D01*
X0312734Y0109842D02*
X0306466Y0109842D01*
X0306633Y0110441D02*
X0312734Y0110441D01*
X0312734Y0111039D02*
X0306633Y0111039D01*
X0306633Y0111638D02*
X0312734Y0111638D01*
X0312734Y0112237D02*
X0306633Y0112237D01*
X0306434Y0112835D02*
X0312734Y0112835D01*
X0312734Y0113434D02*
X0306186Y0113434D01*
X0305938Y0114032D02*
X0312734Y0114032D01*
X0312734Y0114631D02*
X0305498Y0114631D01*
X0304900Y0115229D02*
X0312734Y0115229D01*
X0312734Y0115828D02*
X0304252Y0115828D01*
X0303416Y0116426D02*
X0312734Y0116426D01*
X0312734Y0117025D02*
X0304553Y0117025D01*
X0305152Y0117623D02*
X0312734Y0117623D01*
X0312734Y0118222D02*
X0305750Y0118222D01*
X0306043Y0118820D02*
X0312734Y0118820D01*
X0312734Y0119419D02*
X0306291Y0119419D01*
X0306539Y0120017D02*
X0312734Y0120017D01*
X0312734Y0120616D02*
X0306633Y0120616D01*
X0306633Y0121214D02*
X0312734Y0121214D01*
X0312734Y0121813D02*
X0306633Y0121813D01*
X0306610Y0122411D02*
X0312734Y0122411D01*
X0312734Y0123010D02*
X0306362Y0123010D01*
X0306114Y0123608D02*
X0312734Y0123608D01*
X0312734Y0124207D02*
X0305866Y0124207D01*
X0305323Y0124805D02*
X0312734Y0124805D01*
X0312734Y0125404D02*
X0304725Y0125404D01*
X0303831Y0126002D02*
X0312734Y0126002D01*
X0312734Y0126601D02*
X0303838Y0126601D01*
X0304728Y0127199D02*
X0312734Y0127199D01*
X0312734Y0127798D02*
X0305326Y0127798D01*
X0305867Y0128396D02*
X0312734Y0128396D01*
X0312734Y0128995D02*
X0306115Y0128995D01*
X0306363Y0129593D02*
X0312734Y0129593D01*
X0312734Y0130192D02*
X0306611Y0130192D01*
X0306633Y0130790D02*
X0312734Y0130790D01*
X0312734Y0131389D02*
X0306633Y0131389D01*
X0306633Y0131987D02*
X0312734Y0131987D01*
X0312734Y0132586D02*
X0306537Y0132586D01*
X0306289Y0133184D02*
X0312734Y0133184D01*
X0312734Y0133783D02*
X0306042Y0133783D01*
X0305747Y0134381D02*
X0312734Y0134381D01*
X0312734Y0134980D02*
X0305149Y0134980D01*
X0304550Y0135578D02*
X0312734Y0135578D01*
X0312734Y0136177D02*
X0303409Y0136177D01*
X0304260Y0136775D02*
X0312734Y0136775D01*
X0312734Y0137374D02*
X0304903Y0137374D01*
X0305501Y0137972D02*
X0312734Y0137972D01*
X0312734Y0138571D02*
X0305940Y0138571D01*
X0306188Y0139170D02*
X0312734Y0139170D01*
X0312734Y0139768D02*
X0306435Y0139768D01*
X0306633Y0140367D02*
X0312734Y0140367D01*
X0312734Y0140965D02*
X0306633Y0140965D01*
X0306633Y0141564D02*
X0312734Y0141564D01*
X0312734Y0142162D02*
X0306633Y0142162D01*
X0306465Y0142761D02*
X0312734Y0142761D01*
X0312734Y0143359D02*
X0306217Y0143359D01*
X0305969Y0143958D02*
X0312734Y0143958D01*
X0312734Y0144556D02*
X0305573Y0144556D01*
X0304974Y0145155D02*
X0312734Y0145155D01*
X0312734Y0145753D02*
X0304376Y0145753D01*
X0304479Y0146950D02*
X0312734Y0146950D01*
X0312734Y0146352D02*
X0303236Y0146352D01*
X0305077Y0147549D02*
X0312734Y0147549D01*
X0312734Y0148147D02*
X0305676Y0148147D01*
X0306012Y0148746D02*
X0312734Y0148746D01*
X0312734Y0149344D02*
X0306260Y0149344D01*
X0306508Y0149943D02*
X0312734Y0149943D01*
X0312734Y0150541D02*
X0306633Y0150541D01*
X0306633Y0151140D02*
X0312734Y0151140D01*
X0312734Y0151738D02*
X0306633Y0151738D01*
X0306633Y0152337D02*
X0312734Y0152337D01*
X0312734Y0152935D02*
X0306393Y0152935D01*
X0306145Y0153534D02*
X0312734Y0153534D01*
X0312734Y0154132D02*
X0305897Y0154132D01*
X0305398Y0154731D02*
X0312734Y0154731D01*
X0312734Y0155329D02*
X0304799Y0155329D01*
X0304010Y0155928D02*
X0312734Y0155928D01*
X0312734Y0156526D02*
X0303658Y0156526D01*
X0304654Y0157125D02*
X0312734Y0157125D01*
X0312734Y0157723D02*
X0305252Y0157723D01*
X0305836Y0158322D02*
X0312734Y0158322D01*
X0312734Y0158920D02*
X0306084Y0158920D01*
X0306332Y0159519D02*
X0312734Y0159519D01*
X0312734Y0160117D02*
X0306580Y0160117D01*
X0306633Y0160716D02*
X0312734Y0160716D01*
X0312734Y0161314D02*
X0306633Y0161314D01*
X0306633Y0161913D02*
X0312734Y0161913D01*
X0312734Y0162511D02*
X0306568Y0162511D01*
X0306320Y0163110D02*
X0312734Y0163110D01*
X0312734Y0163708D02*
X0306072Y0163708D01*
X0305822Y0164307D02*
X0312734Y0164307D01*
X0312734Y0164905D02*
X0305223Y0164905D01*
X0304625Y0165504D02*
X0312734Y0165504D01*
X0312734Y0166103D02*
X0303589Y0166103D01*
X0304080Y0166701D02*
X0312734Y0166701D01*
X0312734Y0167300D02*
X0304828Y0167300D01*
X0305427Y0167898D02*
X0312734Y0167898D01*
X0312734Y0168497D02*
X0305909Y0168497D01*
X0306157Y0169095D02*
X0312734Y0169095D01*
X0312734Y0169694D02*
X0306405Y0169694D01*
X0306633Y0170292D02*
X0312734Y0170292D01*
X0312734Y0170891D02*
X0306633Y0170891D01*
X0306633Y0171489D02*
X0312734Y0171489D01*
X0312734Y0172088D02*
X0306633Y0172088D01*
X0306496Y0172686D02*
X0312734Y0172686D01*
X0312734Y0173285D02*
X0306248Y0173285D01*
X0306000Y0173883D02*
X0312734Y0173883D01*
X0312734Y0174482D02*
X0305647Y0174482D01*
X0305048Y0175080D02*
X0312734Y0175080D01*
X0312734Y0175679D02*
X0304450Y0175679D01*
X0304404Y0176876D02*
X0312734Y0176876D01*
X0312734Y0177474D02*
X0305003Y0177474D01*
X0305601Y0178073D02*
X0312734Y0178073D01*
X0312734Y0178671D02*
X0305981Y0178671D01*
X0306229Y0179270D02*
X0312734Y0179270D01*
X0312734Y0179868D02*
X0306477Y0179868D01*
X0306633Y0180467D02*
X0312734Y0180467D01*
X0312734Y0181065D02*
X0306633Y0181065D01*
X0306633Y0181664D02*
X0312734Y0181664D01*
X0312734Y0182262D02*
X0306633Y0182262D01*
X0306423Y0182861D02*
X0312734Y0182861D01*
X0312734Y0183459D02*
X0306176Y0183459D01*
X0305928Y0184058D02*
X0312734Y0184058D01*
X0312734Y0184656D02*
X0305472Y0184656D01*
X0304874Y0185255D02*
X0312734Y0185255D01*
X0312734Y0185853D02*
X0304190Y0185853D01*
X0303479Y0186452D02*
X0312734Y0186452D01*
X0312734Y0187050D02*
X0304579Y0187050D01*
X0305178Y0187649D02*
X0312734Y0187649D01*
X0312734Y0188247D02*
X0305776Y0188247D01*
X0306053Y0188846D02*
X0312734Y0188846D01*
X0312734Y0189444D02*
X0306301Y0189444D01*
X0306549Y0190043D02*
X0312734Y0190043D01*
X0312734Y0190641D02*
X0306633Y0190641D01*
X0306633Y0191240D02*
X0312734Y0191240D01*
X0312734Y0191839D02*
X0306633Y0191839D01*
X0306599Y0192437D02*
X0312734Y0192437D01*
X0312734Y0193036D02*
X0306351Y0193036D01*
X0306103Y0193634D02*
X0312734Y0193634D01*
X0312734Y0194233D02*
X0305855Y0194233D01*
X0305298Y0194831D02*
X0312734Y0194831D01*
X0312734Y0195430D02*
X0304699Y0195430D01*
X0303768Y0196028D02*
X0312734Y0196028D01*
X0312734Y0196627D02*
X0303900Y0196627D01*
X0304754Y0197225D02*
X0312734Y0197225D01*
X0312734Y0197824D02*
X0305352Y0197824D01*
X0305878Y0198422D02*
X0312734Y0198422D01*
X0312734Y0199021D02*
X0306126Y0199021D01*
X0306374Y0199619D02*
X0312734Y0199619D01*
X0312734Y0200218D02*
X0306622Y0200218D01*
X0306633Y0200816D02*
X0312734Y0200816D01*
X0312734Y0201415D02*
X0306633Y0201415D01*
X0306633Y0202013D02*
X0312734Y0202013D01*
X0312734Y0202612D02*
X0306527Y0202612D01*
X0306279Y0203210D02*
X0312734Y0203210D01*
X0312734Y0203809D02*
X0306031Y0203809D01*
X0305721Y0204407D02*
X0312734Y0204407D01*
X0312734Y0205006D02*
X0305123Y0205006D01*
X0304524Y0205604D02*
X0312734Y0205604D01*
X0312734Y0206203D02*
X0303347Y0206203D01*
X0312734Y0206801D02*
X0192362Y0206801D01*
X0184305Y0206801D02*
X0182362Y0206801D01*
X0182683Y0206203D02*
X0183983Y0206203D01*
X0183736Y0205604D02*
X0182931Y0205604D01*
X0183179Y0205006D02*
X0183488Y0205006D01*
X0183433Y0204407D02*
X0183233Y0204407D01*
X0183233Y0203809D02*
X0183433Y0203809D01*
X0183433Y0203210D02*
X0183233Y0203210D01*
X0183233Y0202612D02*
X0183433Y0202612D01*
X0183433Y0202013D02*
X0183233Y0202013D01*
X0183233Y0201415D02*
X0183433Y0201415D01*
X0183433Y0200816D02*
X0183233Y0200816D01*
X0183233Y0200218D02*
X0183433Y0200218D01*
X0183433Y0199619D02*
X0183233Y0199619D01*
X0183233Y0199021D02*
X0183433Y0199021D01*
X0183433Y0198422D02*
X0183233Y0198422D01*
X0183233Y0197824D02*
X0183433Y0197824D01*
X0183641Y0197225D02*
X0183026Y0197225D01*
X0182778Y0196627D02*
X0183888Y0196627D01*
X0184136Y0196028D02*
X0182530Y0196028D01*
X0181993Y0195430D02*
X0184674Y0195430D01*
X0185273Y0194831D02*
X0181394Y0194831D01*
X0180352Y0194233D02*
X0186314Y0194233D01*
X0190352Y0194233D02*
X0202185Y0194233D01*
X0201714Y0193634D02*
X0119203Y0193634D01*
X0119043Y0193036D02*
X0201392Y0193036D01*
X0201181Y0192437D02*
X0118883Y0192437D01*
X0118678Y0191839D02*
X0201065Y0191839D01*
X0202878Y0194831D02*
X0191394Y0194831D01*
X0191993Y0195430D02*
X0204128Y0195430D01*
X0200686Y0178671D02*
X0189619Y0178671D01*
X0189308Y0178800D02*
X0187359Y0178800D01*
X0185558Y0178054D01*
X0184179Y0176676D01*
X0183433Y0174875D01*
X0183433Y0167725D01*
X0184179Y0165924D01*
X0185558Y0164546D01*
X0187359Y0163800D01*
X0189308Y0163800D01*
X0191109Y0164546D01*
X0192487Y0165924D01*
X0193233Y0167725D01*
X0193233Y0174875D01*
X0192487Y0176676D01*
X0191109Y0178054D01*
X0189308Y0178800D01*
X0191064Y0178073D02*
X0201065Y0178073D01*
X0201664Y0177474D02*
X0191689Y0177474D01*
X0192287Y0176876D02*
X0202262Y0176876D01*
X0202217Y0175679D02*
X0192900Y0175679D01*
X0192652Y0176277D02*
X0203500Y0176277D01*
X0201618Y0175080D02*
X0193148Y0175080D01*
X0193233Y0174482D02*
X0201020Y0174482D01*
X0200667Y0173883D02*
X0193233Y0173883D01*
X0193233Y0173285D02*
X0200419Y0173285D01*
X0200171Y0172686D02*
X0193233Y0172686D01*
X0193233Y0172088D02*
X0200033Y0172088D01*
X0200033Y0171489D02*
X0193233Y0171489D01*
X0193233Y0170891D02*
X0200033Y0170891D01*
X0200033Y0170292D02*
X0193233Y0170292D01*
X0193233Y0169694D02*
X0200262Y0169694D01*
X0200510Y0169095D02*
X0193233Y0169095D01*
X0193233Y0168497D02*
X0200758Y0168497D01*
X0201240Y0167898D02*
X0193233Y0167898D01*
X0193057Y0167300D02*
X0201838Y0167300D01*
X0202587Y0166701D02*
X0192809Y0166701D01*
X0192561Y0166103D02*
X0203078Y0166103D01*
X0202042Y0165504D02*
X0192067Y0165504D01*
X0191468Y0164905D02*
X0201444Y0164905D01*
X0200845Y0164307D02*
X0190532Y0164307D01*
X0186135Y0164307D02*
X0179428Y0164307D01*
X0179248Y0164905D02*
X0185198Y0164905D01*
X0184600Y0165504D02*
X0180570Y0165504D01*
X0181251Y0166103D02*
X0184106Y0166103D01*
X0183858Y0166701D02*
X0181688Y0166701D01*
X0181975Y0167300D02*
X0183610Y0167300D01*
X0183433Y0167898D02*
X0182150Y0167898D01*
X0182233Y0168497D02*
X0183433Y0168497D01*
X0183433Y0169095D02*
X0182233Y0169095D01*
X0182233Y0169694D02*
X0183433Y0169694D01*
X0183433Y0170292D02*
X0182233Y0170292D01*
X0182233Y0170891D02*
X0183433Y0170891D01*
X0183433Y0171489D02*
X0178633Y0171489D01*
X0178633Y0171600D02*
X0182233Y0171600D01*
X0182233Y0174284D01*
X0182083Y0175038D01*
X0181789Y0175747D01*
X0181363Y0176386D01*
X0180819Y0176929D01*
X0180181Y0177356D01*
X0179471Y0177650D01*
X0178717Y0177800D01*
X0178633Y0177800D01*
X0178633Y0171600D01*
X0178633Y0172088D02*
X0178033Y0172088D01*
X0178033Y0171600D02*
X0178033Y0177800D01*
X0177949Y0177800D01*
X0177196Y0177650D01*
X0176486Y0177356D01*
X0175847Y0176929D01*
X0175304Y0176386D01*
X0174877Y0175747D01*
X0174583Y0175038D01*
X0174433Y0174284D01*
X0174433Y0171600D01*
X0178033Y0171600D01*
X0178033Y0171489D02*
X0173233Y0171489D01*
X0173233Y0170891D02*
X0174433Y0170891D01*
X0174433Y0170292D02*
X0173442Y0170292D01*
X0174041Y0169694D02*
X0174433Y0169694D01*
X0174433Y0172088D02*
X0173233Y0172088D01*
X0173233Y0172686D02*
X0174433Y0172686D01*
X0174433Y0173285D02*
X0173233Y0173285D01*
X0173233Y0173883D02*
X0174433Y0173883D01*
X0174473Y0174482D02*
X0173233Y0174482D01*
X0173148Y0175080D02*
X0174601Y0175080D01*
X0174849Y0175679D02*
X0172900Y0175679D01*
X0172652Y0176277D02*
X0175231Y0176277D01*
X0175794Y0176876D02*
X0172287Y0176876D01*
X0171689Y0177474D02*
X0176771Y0177474D01*
X0178033Y0177474D02*
X0178633Y0177474D01*
X0178633Y0176876D02*
X0178033Y0176876D01*
X0178033Y0176277D02*
X0178633Y0176277D01*
X0178633Y0175679D02*
X0178033Y0175679D01*
X0178033Y0175080D02*
X0178633Y0175080D01*
X0178633Y0174482D02*
X0178033Y0174482D01*
X0178033Y0173883D02*
X0178633Y0173883D01*
X0178633Y0173285D02*
X0178033Y0173285D01*
X0178033Y0172686D02*
X0178633Y0172686D01*
X0182233Y0172686D02*
X0183433Y0172686D01*
X0183433Y0172088D02*
X0182233Y0172088D01*
X0182233Y0173285D02*
X0183433Y0173285D01*
X0183433Y0173883D02*
X0182233Y0173883D01*
X0182194Y0174482D02*
X0183433Y0174482D01*
X0183518Y0175080D02*
X0182066Y0175080D01*
X0181818Y0175679D02*
X0183766Y0175679D01*
X0184014Y0176277D02*
X0181435Y0176277D01*
X0180873Y0176876D02*
X0184379Y0176876D01*
X0184978Y0177474D02*
X0179896Y0177474D01*
X0185603Y0178073D02*
X0171064Y0178073D01*
X0169619Y0178671D02*
X0187048Y0178671D01*
X0167048Y0178671D02*
X0159619Y0178671D01*
X0159308Y0178800D02*
X0157359Y0178800D01*
X0155558Y0178054D01*
X0154179Y0176676D01*
X0153433Y0174875D01*
X0153433Y0167725D01*
X0154179Y0165924D01*
X0155558Y0164546D01*
X0157359Y0163800D01*
X0159308Y0163800D01*
X0161109Y0164546D01*
X0162487Y0165924D01*
X0163233Y0167725D01*
X0163233Y0174875D01*
X0162487Y0176676D01*
X0161109Y0178054D01*
X0159308Y0178800D01*
X0161064Y0178073D02*
X0165603Y0178073D01*
X0164978Y0177474D02*
X0161689Y0177474D01*
X0162287Y0176876D02*
X0164379Y0176876D01*
X0164014Y0176277D02*
X0162652Y0176277D01*
X0162900Y0175679D02*
X0163766Y0175679D01*
X0163518Y0175080D02*
X0163148Y0175080D01*
X0163233Y0174482D02*
X0163433Y0174482D01*
X0163433Y0173883D02*
X0163233Y0173883D01*
X0163233Y0173285D02*
X0163433Y0173285D01*
X0163433Y0172686D02*
X0163233Y0172686D01*
X0163233Y0172088D02*
X0163433Y0172088D01*
X0163433Y0171489D02*
X0163233Y0171489D01*
X0163233Y0170891D02*
X0163433Y0170891D01*
X0163433Y0170292D02*
X0163233Y0170292D01*
X0163233Y0169694D02*
X0163433Y0169694D01*
X0163433Y0169095D02*
X0163233Y0169095D01*
X0163233Y0168497D02*
X0163433Y0168497D01*
X0163433Y0167898D02*
X0163233Y0167898D01*
X0163057Y0167300D02*
X0163610Y0167300D01*
X0163858Y0166701D02*
X0162809Y0166701D01*
X0162561Y0166103D02*
X0164106Y0166103D01*
X0164600Y0165504D02*
X0162067Y0165504D01*
X0161468Y0164905D02*
X0165198Y0164905D01*
X0166135Y0164307D02*
X0160532Y0164307D01*
X0156135Y0164307D02*
X0150532Y0164307D01*
X0151109Y0164546D02*
X0152487Y0165924D01*
X0153233Y0167725D01*
X0153233Y0174875D01*
X0152487Y0176676D01*
X0151109Y0178054D01*
X0149308Y0178800D01*
X0147359Y0178800D01*
X0145558Y0178054D01*
X0144179Y0176676D01*
X0143433Y0174875D01*
X0143433Y0167725D01*
X0144179Y0165924D01*
X0145558Y0164546D01*
X0147359Y0163800D01*
X0149308Y0163800D01*
X0151109Y0164546D01*
X0151468Y0164905D02*
X0155198Y0164905D01*
X0154600Y0165504D02*
X0152067Y0165504D01*
X0152561Y0166103D02*
X0154106Y0166103D01*
X0153858Y0166701D02*
X0152809Y0166701D01*
X0153057Y0167300D02*
X0153610Y0167300D01*
X0153433Y0167898D02*
X0153233Y0167898D01*
X0153233Y0168497D02*
X0153433Y0168497D01*
X0153433Y0169095D02*
X0153233Y0169095D01*
X0153233Y0169694D02*
X0153433Y0169694D01*
X0153433Y0170292D02*
X0153233Y0170292D01*
X0153233Y0170891D02*
X0153433Y0170891D01*
X0153433Y0171489D02*
X0153233Y0171489D01*
X0153233Y0172088D02*
X0153433Y0172088D01*
X0153433Y0172686D02*
X0153233Y0172686D01*
X0153233Y0173285D02*
X0153433Y0173285D01*
X0153433Y0173883D02*
X0153233Y0173883D01*
X0153233Y0174482D02*
X0153433Y0174482D01*
X0153518Y0175080D02*
X0153148Y0175080D01*
X0152900Y0175679D02*
X0153766Y0175679D01*
X0154014Y0176277D02*
X0152652Y0176277D01*
X0152287Y0176876D02*
X0154379Y0176876D01*
X0154978Y0177474D02*
X0151689Y0177474D01*
X0151064Y0178073D02*
X0155603Y0178073D01*
X0157048Y0178671D02*
X0149619Y0178671D01*
X0147048Y0178671D02*
X0139619Y0178671D01*
X0139308Y0178800D02*
X0141109Y0178054D01*
X0142487Y0176676D01*
X0143233Y0174875D01*
X0143233Y0167725D01*
X0142487Y0165924D01*
X0141109Y0164546D01*
X0139308Y0163800D01*
X0137359Y0163800D01*
X0135558Y0164546D01*
X0134179Y0165924D01*
X0133433Y0167725D01*
X0133433Y0174875D01*
X0134179Y0176676D01*
X0135558Y0178054D01*
X0137359Y0178800D01*
X0139308Y0178800D01*
X0141064Y0178073D02*
X0145603Y0178073D01*
X0144978Y0177474D02*
X0141689Y0177474D01*
X0142287Y0176876D02*
X0144379Y0176876D01*
X0144014Y0176277D02*
X0142652Y0176277D01*
X0142900Y0175679D02*
X0143766Y0175679D01*
X0143518Y0175080D02*
X0143148Y0175080D01*
X0143233Y0174482D02*
X0143433Y0174482D01*
X0143433Y0173883D02*
X0143233Y0173883D01*
X0143233Y0173285D02*
X0143433Y0173285D01*
X0143433Y0172686D02*
X0143233Y0172686D01*
X0143233Y0172088D02*
X0143433Y0172088D01*
X0143433Y0171489D02*
X0143233Y0171489D01*
X0143233Y0170891D02*
X0143433Y0170891D01*
X0143433Y0170292D02*
X0143233Y0170292D01*
X0143233Y0169694D02*
X0143433Y0169694D01*
X0143433Y0169095D02*
X0143233Y0169095D01*
X0143233Y0168497D02*
X0143433Y0168497D01*
X0143433Y0167898D02*
X0143233Y0167898D01*
X0143057Y0167300D02*
X0143610Y0167300D01*
X0143858Y0166701D02*
X0142809Y0166701D01*
X0142561Y0166103D02*
X0144106Y0166103D01*
X0144600Y0165504D02*
X0142067Y0165504D01*
X0141468Y0164905D02*
X0145198Y0164905D01*
X0146135Y0164307D02*
X0140532Y0164307D01*
X0136135Y0164307D02*
X0130532Y0164307D01*
X0131468Y0164905D02*
X0135198Y0164905D01*
X0134600Y0165504D02*
X0132067Y0165504D01*
X0132561Y0166103D02*
X0134106Y0166103D01*
X0133858Y0166701D02*
X0132809Y0166701D01*
X0133057Y0167300D02*
X0133610Y0167300D01*
X0133433Y0167898D02*
X0133233Y0167898D01*
X0133233Y0168497D02*
X0133433Y0168497D01*
X0133433Y0169095D02*
X0133233Y0169095D01*
X0133233Y0169694D02*
X0133433Y0169694D01*
X0133433Y0170292D02*
X0133233Y0170292D01*
X0133233Y0170891D02*
X0133433Y0170891D01*
X0133433Y0171489D02*
X0133233Y0171489D01*
X0133233Y0172088D02*
X0133433Y0172088D01*
X0133433Y0172686D02*
X0133233Y0172686D01*
X0133233Y0173285D02*
X0133433Y0173285D01*
X0133433Y0173883D02*
X0133233Y0173883D01*
X0133233Y0174482D02*
X0133433Y0174482D01*
X0133518Y0175080D02*
X0133148Y0175080D01*
X0132900Y0175679D02*
X0133766Y0175679D01*
X0134014Y0176277D02*
X0132652Y0176277D01*
X0132287Y0176876D02*
X0134379Y0176876D01*
X0134978Y0177474D02*
X0131689Y0177474D01*
X0131064Y0178073D02*
X0135603Y0178073D01*
X0137048Y0178671D02*
X0129619Y0178671D01*
X0123518Y0175080D02*
X0115458Y0175080D01*
X0115233Y0174482D02*
X0123433Y0174482D01*
X0123433Y0173883D02*
X0114892Y0173883D01*
X0114399Y0173285D02*
X0123433Y0173285D01*
X0123433Y0172686D02*
X0113675Y0172686D01*
X0112225Y0172088D02*
X0123433Y0172088D01*
X0123433Y0171489D02*
X0112655Y0171489D01*
X0114100Y0170891D02*
X0123433Y0170891D01*
X0123433Y0170292D02*
X0114837Y0170292D01*
X0115435Y0169694D02*
X0123433Y0169694D01*
X0123433Y0169095D02*
X0115912Y0169095D01*
X0116160Y0168497D02*
X0123433Y0168497D01*
X0123433Y0167898D02*
X0116408Y0167898D01*
X0116633Y0167300D02*
X0123610Y0167300D01*
X0123858Y0166701D02*
X0116633Y0166701D01*
X0116633Y0166103D02*
X0124106Y0166103D01*
X0124600Y0165504D02*
X0116633Y0165504D01*
X0116492Y0164905D02*
X0125198Y0164905D01*
X0126135Y0164307D02*
X0116244Y0164307D01*
X0115997Y0163708D02*
X0171824Y0163708D01*
X0172422Y0163110D02*
X0115639Y0163110D01*
X0115040Y0162511D02*
X0173021Y0162511D01*
X0173619Y0161913D02*
X0114442Y0161913D01*
X0113147Y0161314D02*
X0174218Y0161314D01*
X0174816Y0160716D02*
X0112233Y0160716D01*
X0112233Y0160117D02*
X0175415Y0160117D01*
X0176013Y0159519D02*
X0112233Y0159519D01*
X0112233Y0158920D02*
X0176612Y0158920D01*
X0177210Y0158322D02*
X0112233Y0158322D01*
X0112233Y0157723D02*
X0177809Y0157723D01*
X0178407Y0157125D02*
X0112233Y0157125D01*
X0112233Y0156526D02*
X0179006Y0156526D01*
X0179604Y0155928D02*
X0112233Y0155928D01*
X0112233Y0155329D02*
X0180033Y0155329D01*
X0180033Y0154731D02*
X0112233Y0154731D01*
X0112233Y0154132D02*
X0180033Y0154132D01*
X0180033Y0153534D02*
X0112233Y0153534D01*
X0112399Y0152935D02*
X0180033Y0152935D01*
X0180033Y0152337D02*
X0112998Y0152337D01*
X0113596Y0151738D02*
X0180033Y0151738D01*
X0180033Y0151140D02*
X0114195Y0151140D01*
X0114793Y0150541D02*
X0180033Y0150541D01*
X0180033Y0149943D02*
X0115392Y0149943D01*
X0115990Y0149344D02*
X0179448Y0149344D01*
X0178849Y0148746D02*
X0116589Y0148746D01*
X0117187Y0148147D02*
X0178433Y0148147D01*
X0178433Y0147549D02*
X0117786Y0147549D01*
X0118384Y0146950D02*
X0178433Y0146950D01*
X0178433Y0146352D02*
X0118983Y0146352D01*
X0119581Y0145753D02*
X0140857Y0145753D01*
X0140258Y0145155D02*
X0120180Y0145155D01*
X0120778Y0144556D02*
X0139660Y0144556D01*
X0139061Y0143958D02*
X0121377Y0143958D01*
X0119709Y0137374D02*
X0135233Y0137374D01*
X0135233Y0136775D02*
X0119110Y0136775D01*
X0118511Y0136177D02*
X0135233Y0136177D01*
X0135233Y0135578D02*
X0117913Y0135578D01*
X0117314Y0134980D02*
X0135233Y0134980D01*
X0135233Y0134381D02*
X0116716Y0134381D01*
X0116117Y0133783D02*
X0135233Y0133783D01*
X0135233Y0133184D02*
X0116289Y0133184D01*
X0116537Y0132586D02*
X0135233Y0132586D01*
X0135233Y0131987D02*
X0116633Y0131987D01*
X0116633Y0131389D02*
X0135233Y0131389D01*
X0135233Y0130790D02*
X0116633Y0130790D01*
X0116611Y0130192D02*
X0135233Y0130192D01*
X0135233Y0129593D02*
X0116363Y0129593D01*
X0116115Y0128995D02*
X0135233Y0128995D01*
X0135233Y0128396D02*
X0115867Y0128396D01*
X0115326Y0127798D02*
X0135233Y0127798D01*
X0135233Y0127199D02*
X0114728Y0127199D01*
X0113838Y0126601D02*
X0135233Y0126601D01*
X0135233Y0126002D02*
X0112393Y0126002D01*
X0112340Y0125494D02*
X0111672Y0125600D01*
X0108633Y0125600D01*
X0108633Y0121600D01*
X0115633Y0121600D01*
X0115633Y0121638D01*
X0115527Y0122307D01*
X0115318Y0122951D01*
X0115011Y0123554D01*
X0114613Y0124101D01*
X0114135Y0124580D01*
X0113587Y0124978D01*
X0112984Y0125285D01*
X0112340Y0125494D01*
X0112618Y0125404D02*
X0135233Y0125404D01*
X0135233Y0124805D02*
X0113824Y0124805D01*
X0114508Y0124207D02*
X0135233Y0124207D01*
X0135233Y0123608D02*
X0114971Y0123608D01*
X0115288Y0123010D02*
X0135233Y0123010D01*
X0135233Y0122411D02*
X0115494Y0122411D01*
X0115606Y0121813D02*
X0135233Y0121813D01*
X0135233Y0121214D02*
X0108633Y0121214D01*
X0108633Y0120616D02*
X0108033Y0120616D01*
X0108033Y0121214D02*
X0097633Y0121214D01*
X0108033Y0121813D02*
X0108633Y0121813D01*
X0108633Y0122411D02*
X0108033Y0122411D01*
X0108033Y0123010D02*
X0108633Y0123010D01*
X0108633Y0123608D02*
X0108033Y0123608D01*
X0108033Y0124207D02*
X0108633Y0124207D01*
X0108633Y0124805D02*
X0108033Y0124805D01*
X0108033Y0125404D02*
X0108633Y0125404D01*
X0108633Y0120017D02*
X0108033Y0120017D01*
X0108033Y0119419D02*
X0108633Y0119419D01*
X0108633Y0118820D02*
X0108033Y0118820D01*
X0108033Y0118222D02*
X0108633Y0118222D01*
X0108633Y0117623D02*
X0108033Y0117623D01*
X0108033Y0117025D02*
X0108633Y0117025D01*
X0111827Y0117025D02*
X0135233Y0117025D01*
X0135233Y0117623D02*
X0113588Y0117623D01*
X0114336Y0118222D02*
X0135233Y0118222D01*
X0135233Y0118820D02*
X0114847Y0118820D01*
X0115201Y0119419D02*
X0135233Y0119419D01*
X0135233Y0120017D02*
X0115438Y0120017D01*
X0115579Y0120616D02*
X0135233Y0120616D01*
X0141033Y0117623D02*
X0141495Y0117623D01*
X0141033Y0117025D02*
X0164033Y0117025D01*
X0164033Y0117623D02*
X0145172Y0117623D01*
X0145770Y0118222D02*
X0164033Y0118222D01*
X0164033Y0118820D02*
X0146369Y0118820D01*
X0146967Y0119419D02*
X0164033Y0119419D01*
X0164033Y0120017D02*
X0147233Y0120017D01*
X0147233Y0120616D02*
X0164033Y0120616D01*
X0164033Y0121214D02*
X0143633Y0121214D01*
X0143633Y0121600D02*
X0147233Y0121600D01*
X0147233Y0122915D01*
X0144949Y0125200D01*
X0143633Y0125200D01*
X0143633Y0121600D01*
X0143633Y0121813D02*
X0143033Y0121813D01*
X0143033Y0122411D02*
X0143633Y0122411D01*
X0143633Y0123010D02*
X0143033Y0123010D01*
X0143033Y0123608D02*
X0143633Y0123608D01*
X0143633Y0124207D02*
X0143033Y0124207D01*
X0143033Y0124805D02*
X0143633Y0124805D01*
X0145343Y0124805D02*
X0166137Y0124805D01*
X0165539Y0124207D02*
X0145942Y0124207D01*
X0146541Y0123608D02*
X0164940Y0123608D01*
X0164420Y0123010D02*
X0147139Y0123010D01*
X0147233Y0122411D02*
X0164172Y0122411D01*
X0164033Y0121813D02*
X0147233Y0121813D01*
X0143633Y0120616D02*
X0143033Y0120616D01*
X0143033Y0120017D02*
X0143633Y0120017D01*
X0143633Y0119419D02*
X0143033Y0119419D01*
X0143033Y0118820D02*
X0143633Y0118820D01*
X0143633Y0118222D02*
X0143033Y0118222D01*
X0143033Y0117623D02*
X0143633Y0117623D01*
X0141033Y0116426D02*
X0164033Y0116426D01*
X0164033Y0115828D02*
X0141033Y0115828D01*
X0141033Y0115229D02*
X0164033Y0115229D01*
X0164033Y0114631D02*
X0141033Y0114631D01*
X0141033Y0114032D02*
X0164033Y0114032D01*
X0164033Y0113434D02*
X0141033Y0113434D01*
X0141033Y0112835D02*
X0164033Y0112835D01*
X0164033Y0112237D02*
X0141033Y0112237D01*
X0141033Y0111638D02*
X0164033Y0111638D01*
X0164033Y0111039D02*
X0141033Y0111039D01*
X0141033Y0110441D02*
X0164033Y0110441D01*
X0164033Y0109842D02*
X0141033Y0109842D01*
X0141033Y0109244D02*
X0164033Y0109244D01*
X0164033Y0108645D02*
X0141033Y0108645D01*
X0141033Y0108047D02*
X0164033Y0108047D01*
X0164033Y0107448D02*
X0141033Y0107448D01*
X0141033Y0106850D02*
X0164033Y0106850D01*
X0164033Y0106251D02*
X0141033Y0106251D01*
X0141033Y0105653D02*
X0164033Y0105653D01*
X0164033Y0105054D02*
X0141033Y0105054D01*
X0141033Y0104456D02*
X0164033Y0104456D01*
X0164033Y0103857D02*
X0141033Y0103857D01*
X0141033Y0103259D02*
X0164033Y0103259D01*
X0164033Y0102660D02*
X0141033Y0102660D01*
X0141033Y0102062D02*
X0164033Y0102062D01*
X0164033Y0101463D02*
X0162718Y0101463D01*
X0153949Y0101463D02*
X0141033Y0101463D01*
X0145698Y0100865D02*
X0152504Y0100865D01*
X0173033Y0100865D02*
X0183467Y0100865D01*
X0182869Y0101463D02*
X0173033Y0101463D01*
X0173033Y0102062D02*
X0182270Y0102062D01*
X0181908Y0102660D02*
X0173033Y0102660D01*
X0173033Y0103259D02*
X0181660Y0103259D01*
X0181633Y0103857D02*
X0173033Y0103857D01*
X0173033Y0104456D02*
X0181633Y0104456D01*
X0181633Y0105054D02*
X0173033Y0105054D01*
X0173033Y0105653D02*
X0181633Y0105653D01*
X0181633Y0106251D02*
X0173033Y0106251D01*
X0173033Y0106850D02*
X0181633Y0106850D01*
X0181633Y0107448D02*
X0173033Y0107448D01*
X0173033Y0108047D02*
X0181633Y0108047D01*
X0181633Y0108645D02*
X0173033Y0108645D01*
X0173033Y0109244D02*
X0181633Y0109244D01*
X0181633Y0109842D02*
X0173033Y0109842D01*
X0173033Y0110441D02*
X0181633Y0110441D01*
X0181633Y0111039D02*
X0173374Y0111039D01*
X0173973Y0111638D02*
X0181066Y0111638D01*
X0180467Y0112237D02*
X0174571Y0112237D01*
X0175170Y0112835D02*
X0179869Y0112835D01*
X0179270Y0113434D02*
X0175768Y0113434D01*
X0176367Y0114032D02*
X0178672Y0114032D01*
X0178433Y0114631D02*
X0176965Y0114631D01*
X0177564Y0115229D02*
X0178433Y0115229D01*
X0178433Y0115828D02*
X0178162Y0115828D01*
X0167334Y0126002D02*
X0141033Y0126002D01*
X0141033Y0125404D02*
X0166736Y0125404D01*
X0167933Y0126601D02*
X0141033Y0126601D01*
X0141033Y0127199D02*
X0168531Y0127199D01*
X0169130Y0127798D02*
X0141033Y0127798D01*
X0141033Y0128396D02*
X0169728Y0128396D01*
X0170327Y0128995D02*
X0141033Y0128995D01*
X0141033Y0129593D02*
X0170925Y0129593D01*
X0171524Y0130192D02*
X0141033Y0130192D01*
X0141033Y0130790D02*
X0172122Y0130790D01*
X0172721Y0131389D02*
X0141033Y0131389D01*
X0141033Y0131987D02*
X0173320Y0131987D01*
X0173918Y0132586D02*
X0141033Y0132586D01*
X0141033Y0133184D02*
X0174517Y0133184D01*
X0175115Y0133783D02*
X0141033Y0133783D01*
X0141033Y0134381D02*
X0175714Y0134381D01*
X0176312Y0134980D02*
X0141033Y0134980D01*
X0141033Y0135578D02*
X0176911Y0135578D01*
X0177509Y0136177D02*
X0141033Y0136177D01*
X0145738Y0136775D02*
X0178108Y0136775D01*
X0178706Y0137374D02*
X0146337Y0137374D01*
X0146935Y0137972D02*
X0179305Y0137972D01*
X0179903Y0138571D02*
X0147534Y0138571D01*
X0148132Y0139170D02*
X0180502Y0139170D01*
X0181100Y0139768D02*
X0148233Y0139768D01*
X0148233Y0140367D02*
X0181699Y0140367D01*
X0182297Y0140965D02*
X0148233Y0140965D01*
X0148233Y0141564D02*
X0181140Y0141564D01*
X0180542Y0142162D02*
X0148233Y0142162D01*
X0148233Y0142761D02*
X0179943Y0142761D01*
X0179345Y0143359D02*
X0148204Y0143359D01*
X0147605Y0143958D02*
X0178746Y0143958D01*
X0178433Y0144556D02*
X0147007Y0144556D01*
X0146408Y0145155D02*
X0178433Y0145155D01*
X0178433Y0145753D02*
X0145810Y0145753D01*
X0141323Y0124805D02*
X0141033Y0124805D01*
X0110182Y0146950D02*
X0097633Y0146950D01*
X0097633Y0147549D02*
X0109583Y0147549D01*
X0108985Y0148147D02*
X0097633Y0148147D01*
X0097633Y0148746D02*
X0108386Y0148746D01*
X0107788Y0149344D02*
X0097633Y0149344D01*
X0108033Y0172088D02*
X0108633Y0172088D01*
X0108633Y0172686D02*
X0108033Y0172686D01*
X0108033Y0173285D02*
X0108633Y0173285D01*
X0108633Y0173883D02*
X0108033Y0173883D01*
X0108033Y0174482D02*
X0108633Y0174482D01*
X0108633Y0175080D02*
X0108033Y0175080D01*
X0108033Y0176876D02*
X0108633Y0176876D01*
X0108633Y0177474D02*
X0108033Y0177474D01*
X0108033Y0178073D02*
X0108633Y0178073D01*
X0108633Y0178671D02*
X0108033Y0178671D01*
X0108033Y0179270D02*
X0108633Y0179270D01*
X0108633Y0179868D02*
X0108033Y0179868D01*
X0108033Y0180467D02*
X0108633Y0180467D01*
X0119364Y0194233D02*
X0136314Y0194233D01*
X0135273Y0194831D02*
X0128874Y0194831D01*
X0128633Y0194831D02*
X0128033Y0194831D01*
X0127793Y0194831D02*
X0119523Y0194831D01*
X0119523Y0195430D02*
X0126208Y0195430D01*
X0125490Y0196028D02*
X0119523Y0196028D01*
X0119523Y0196627D02*
X0125028Y0196627D01*
X0124723Y0197225D02*
X0119523Y0197225D01*
X0119510Y0197824D02*
X0124531Y0197824D01*
X0124433Y0198422D02*
X0119349Y0198422D01*
X0119189Y0199021D02*
X0124433Y0199021D01*
X0124433Y0199619D02*
X0119028Y0199619D01*
X0118868Y0200218D02*
X0124433Y0200218D01*
X0124433Y0200816D02*
X0118647Y0200816D01*
X0118301Y0201415D02*
X0128033Y0201415D01*
X0128033Y0200816D02*
X0128633Y0200816D01*
X0128633Y0200218D02*
X0128033Y0200218D01*
X0128033Y0199619D02*
X0128633Y0199619D01*
X0128633Y0199021D02*
X0128033Y0199021D01*
X0128033Y0198422D02*
X0128633Y0198422D01*
X0128633Y0197824D02*
X0128033Y0197824D01*
X0128033Y0197225D02*
X0128633Y0197225D01*
X0128633Y0196627D02*
X0128033Y0196627D01*
X0128033Y0196028D02*
X0128633Y0196028D01*
X0128633Y0195430D02*
X0128033Y0195430D01*
X0130459Y0195430D02*
X0134674Y0195430D01*
X0134136Y0196028D02*
X0131177Y0196028D01*
X0131638Y0196627D02*
X0133888Y0196627D01*
X0133641Y0197225D02*
X0131944Y0197225D01*
X0132135Y0197824D02*
X0133433Y0197824D01*
X0133433Y0198422D02*
X0132233Y0198422D01*
X0132233Y0199021D02*
X0133433Y0199021D01*
X0133433Y0199619D02*
X0132233Y0199619D01*
X0132233Y0200218D02*
X0133433Y0200218D01*
X0133433Y0200816D02*
X0132233Y0200816D01*
X0132233Y0202013D02*
X0133433Y0202013D01*
X0133433Y0201415D02*
X0128633Y0201415D01*
X0132233Y0202612D02*
X0133433Y0202612D01*
X0133433Y0203210D02*
X0132233Y0203210D01*
X0132233Y0203809D02*
X0133433Y0203809D01*
X0133433Y0204407D02*
X0132209Y0204407D01*
X0132090Y0205006D02*
X0133488Y0205006D01*
X0133736Y0205604D02*
X0131849Y0205604D01*
X0131485Y0206203D02*
X0133983Y0206203D01*
X0134305Y0206801D02*
X0130947Y0206801D01*
X0125719Y0206801D02*
X0112376Y0206801D01*
X0113561Y0206203D02*
X0125182Y0206203D01*
X0124818Y0205604D02*
X0114597Y0205604D01*
X0115452Y0205006D02*
X0124577Y0205006D01*
X0124458Y0204407D02*
X0116051Y0204407D01*
X0116649Y0203809D02*
X0124433Y0203809D01*
X0124433Y0203210D02*
X0117248Y0203210D01*
X0117610Y0202612D02*
X0124433Y0202612D01*
X0124433Y0202013D02*
X0117956Y0202013D01*
X0140352Y0194233D02*
X0146314Y0194233D01*
X0145273Y0194831D02*
X0141394Y0194831D01*
X0141993Y0195430D02*
X0144674Y0195430D01*
X0144136Y0196028D02*
X0142530Y0196028D01*
X0142778Y0196627D02*
X0143888Y0196627D01*
X0143641Y0197225D02*
X0143026Y0197225D01*
X0143233Y0197824D02*
X0143433Y0197824D01*
X0143433Y0198422D02*
X0143233Y0198422D01*
X0143233Y0199021D02*
X0143433Y0199021D01*
X0143433Y0199619D02*
X0143233Y0199619D01*
X0143233Y0200218D02*
X0143433Y0200218D01*
X0143433Y0200816D02*
X0143233Y0200816D01*
X0143233Y0201415D02*
X0143433Y0201415D01*
X0143433Y0202013D02*
X0143233Y0202013D01*
X0143233Y0202612D02*
X0143433Y0202612D01*
X0143433Y0203210D02*
X0143233Y0203210D01*
X0143233Y0203809D02*
X0143433Y0203809D01*
X0143433Y0204407D02*
X0143233Y0204407D01*
X0143179Y0205006D02*
X0143488Y0205006D01*
X0143736Y0205604D02*
X0142931Y0205604D01*
X0142683Y0206203D02*
X0143983Y0206203D01*
X0144305Y0206801D02*
X0142362Y0206801D01*
X0152362Y0206801D02*
X0154305Y0206801D01*
X0153983Y0206203D02*
X0152683Y0206203D01*
X0152931Y0205604D02*
X0153736Y0205604D01*
X0153488Y0205006D02*
X0153179Y0205006D01*
X0153233Y0204407D02*
X0153433Y0204407D01*
X0153433Y0203809D02*
X0153233Y0203809D01*
X0153233Y0203210D02*
X0153433Y0203210D01*
X0153433Y0202612D02*
X0153233Y0202612D01*
X0153233Y0202013D02*
X0153433Y0202013D01*
X0153433Y0201415D02*
X0153233Y0201415D01*
X0153233Y0200816D02*
X0153433Y0200816D01*
X0153433Y0200218D02*
X0153233Y0200218D01*
X0153233Y0199619D02*
X0153433Y0199619D01*
X0153433Y0199021D02*
X0153233Y0199021D01*
X0153233Y0198422D02*
X0153433Y0198422D01*
X0153433Y0197824D02*
X0153233Y0197824D01*
X0153026Y0197225D02*
X0153641Y0197225D01*
X0153888Y0196627D02*
X0152778Y0196627D01*
X0152530Y0196028D02*
X0154136Y0196028D01*
X0154674Y0195430D02*
X0151993Y0195430D01*
X0151394Y0194831D02*
X0155273Y0194831D01*
X0156314Y0194233D02*
X0150352Y0194233D01*
X0160352Y0194233D02*
X0166314Y0194233D01*
X0165273Y0194831D02*
X0161394Y0194831D01*
X0161993Y0195430D02*
X0164674Y0195430D01*
X0164136Y0196028D02*
X0162530Y0196028D01*
X0162778Y0196627D02*
X0163888Y0196627D01*
X0163641Y0197225D02*
X0163026Y0197225D01*
X0163233Y0197824D02*
X0163433Y0197824D01*
X0163433Y0198422D02*
X0163233Y0198422D01*
X0163233Y0199021D02*
X0163433Y0199021D01*
X0163433Y0199619D02*
X0163233Y0199619D01*
X0163233Y0200218D02*
X0163433Y0200218D01*
X0163433Y0200816D02*
X0163233Y0200816D01*
X0163233Y0201415D02*
X0163433Y0201415D01*
X0163433Y0202013D02*
X0163233Y0202013D01*
X0163233Y0202612D02*
X0163433Y0202612D01*
X0163433Y0203210D02*
X0163233Y0203210D01*
X0163233Y0203809D02*
X0163433Y0203809D01*
X0163433Y0204407D02*
X0163233Y0204407D01*
X0163179Y0205006D02*
X0163488Y0205006D01*
X0163736Y0205604D02*
X0162931Y0205604D01*
X0162683Y0206203D02*
X0163983Y0206203D01*
X0164305Y0206801D02*
X0162362Y0206801D01*
X0172362Y0206801D02*
X0174305Y0206801D01*
X0173983Y0206203D02*
X0172683Y0206203D01*
X0172931Y0205604D02*
X0173736Y0205604D01*
X0173488Y0205006D02*
X0173179Y0205006D01*
X0173233Y0204407D02*
X0173433Y0204407D01*
X0173433Y0203809D02*
X0173233Y0203809D01*
X0173233Y0203210D02*
X0173433Y0203210D01*
X0173433Y0202612D02*
X0173233Y0202612D01*
X0173233Y0202013D02*
X0173433Y0202013D01*
X0173433Y0201415D02*
X0173233Y0201415D01*
X0173233Y0200816D02*
X0173433Y0200816D01*
X0173433Y0200218D02*
X0173233Y0200218D01*
X0173233Y0199619D02*
X0173433Y0199619D01*
X0173433Y0199021D02*
X0173233Y0199021D01*
X0173233Y0198422D02*
X0173433Y0198422D01*
X0173433Y0197824D02*
X0173233Y0197824D01*
X0173026Y0197225D02*
X0173641Y0197225D01*
X0173888Y0196627D02*
X0172778Y0196627D01*
X0172530Y0196028D02*
X0174136Y0196028D01*
X0174674Y0195430D02*
X0171993Y0195430D01*
X0171394Y0194831D02*
X0175273Y0194831D01*
X0176314Y0194233D02*
X0170352Y0194233D01*
X0213167Y0176277D02*
X0293500Y0176277D01*
X0303167Y0176277D02*
X0312734Y0176277D01*
X0293430Y0146352D02*
X0213236Y0146352D01*
X0199654Y0158322D02*
X0185400Y0158322D01*
X0185648Y0157723D02*
X0199055Y0157723D01*
X0198457Y0157125D02*
X0185833Y0157125D01*
X0185833Y0156526D02*
X0197858Y0156526D01*
X0197260Y0155928D02*
X0185833Y0155928D01*
X0185833Y0155329D02*
X0196661Y0155329D01*
X0196063Y0154731D02*
X0185833Y0154731D01*
X0185833Y0154132D02*
X0195464Y0154132D01*
X0194866Y0153534D02*
X0185833Y0153534D01*
X0185833Y0152935D02*
X0194267Y0152935D01*
X0193669Y0152337D02*
X0185833Y0152337D01*
X0185833Y0151738D02*
X0193070Y0151738D01*
X0192472Y0151140D02*
X0185833Y0151140D01*
X0186022Y0150541D02*
X0191873Y0150541D01*
X0191275Y0149943D02*
X0186620Y0149943D01*
X0187219Y0149344D02*
X0190676Y0149344D01*
X0190078Y0148746D02*
X0187817Y0148746D01*
X0188233Y0148147D02*
X0189479Y0148147D01*
X0188881Y0147549D02*
X0188233Y0147549D01*
X0188233Y0146950D02*
X0188282Y0146950D01*
X0184814Y0158920D02*
X0200253Y0158920D01*
X0200334Y0159519D02*
X0184216Y0159519D01*
X0183617Y0160117D02*
X0200086Y0160117D01*
X0200033Y0160716D02*
X0183019Y0160716D01*
X0182420Y0161314D02*
X0200033Y0161314D01*
X0200033Y0161913D02*
X0181822Y0161913D01*
X0181223Y0162511D02*
X0200098Y0162511D01*
X0200346Y0163110D02*
X0180625Y0163110D01*
X0180026Y0163708D02*
X0200594Y0163708D01*
X0171225Y0164307D02*
X0170532Y0164307D01*
X0213416Y0116426D02*
X0293250Y0116426D01*
X0293438Y0106251D02*
X0213229Y0106251D01*
X0192445Y0091887D02*
X0173033Y0091887D01*
X0173033Y0091289D02*
X0193043Y0091289D01*
X0193642Y0090690D02*
X0173033Y0090690D01*
X0173033Y0090092D02*
X0194241Y0090092D01*
X0194839Y0089493D02*
X0173033Y0089493D01*
X0173033Y0088895D02*
X0195438Y0088895D01*
X0196036Y0088296D02*
X0173033Y0088296D01*
X0173033Y0087698D02*
X0196635Y0087698D01*
X0197233Y0087099D02*
X0173033Y0087099D01*
X0173033Y0086501D02*
X0197832Y0086501D01*
X0198430Y0085902D02*
X0173033Y0085902D01*
X0173033Y0085303D02*
X0199029Y0085303D01*
X0199627Y0084705D02*
X0173033Y0084705D01*
X0173033Y0084106D02*
X0200226Y0084106D01*
X0200511Y0083508D02*
X0173033Y0083508D01*
X0173033Y0082909D02*
X0200263Y0082909D01*
X0200033Y0082311D02*
X0173033Y0082311D01*
X0173033Y0081712D02*
X0200033Y0081712D01*
X0200033Y0081114D02*
X0185449Y0081114D01*
X0185363Y0081200D02*
X0181304Y0081200D01*
X0178433Y0078330D01*
X0178433Y0074270D01*
X0181304Y0071400D01*
X0185363Y0071400D01*
X0188233Y0074270D01*
X0188233Y0078330D01*
X0185363Y0081200D01*
X0186048Y0080515D02*
X0200033Y0080515D01*
X0200170Y0079917D02*
X0186646Y0079917D01*
X0187245Y0079318D02*
X0200417Y0079318D01*
X0200665Y0078720D02*
X0187843Y0078720D01*
X0188233Y0078121D02*
X0201017Y0078121D01*
X0201615Y0077523D02*
X0188233Y0077523D01*
X0188233Y0076924D02*
X0202214Y0076924D01*
X0202265Y0075727D02*
X0188233Y0075727D01*
X0188233Y0075129D02*
X0201667Y0075129D01*
X0201068Y0074530D02*
X0188233Y0074530D01*
X0187895Y0073932D02*
X0200687Y0073932D01*
X0200439Y0073333D02*
X0187296Y0073333D01*
X0186698Y0072735D02*
X0200191Y0072735D01*
X0200033Y0072136D02*
X0186099Y0072136D01*
X0185501Y0071538D02*
X0200033Y0071538D01*
X0200033Y0070939D02*
X0173033Y0070939D01*
X0173033Y0070341D02*
X0200033Y0070341D01*
X0200242Y0069742D02*
X0173033Y0069742D01*
X0173033Y0069144D02*
X0200490Y0069144D01*
X0200738Y0068545D02*
X0173033Y0068545D01*
X0173033Y0067947D02*
X0201191Y0067947D01*
X0201790Y0067348D02*
X0173033Y0067348D01*
X0173033Y0066750D02*
X0202469Y0066750D01*
X0203492Y0076326D02*
X0188233Y0076326D01*
X0181218Y0081114D02*
X0173033Y0081114D01*
X0173033Y0080515D02*
X0180619Y0080515D01*
X0180021Y0079917D02*
X0173033Y0079917D01*
X0173033Y0079318D02*
X0179422Y0079318D01*
X0178824Y0078720D02*
X0173033Y0078720D01*
X0173033Y0078121D02*
X0178433Y0078121D01*
X0178433Y0077523D02*
X0173033Y0077523D01*
X0173033Y0076924D02*
X0178433Y0076924D01*
X0178433Y0076326D02*
X0173033Y0076326D01*
X0173033Y0075727D02*
X0178433Y0075727D01*
X0178433Y0075129D02*
X0173033Y0075129D01*
X0173033Y0074530D02*
X0178433Y0074530D01*
X0178772Y0073932D02*
X0173033Y0073932D01*
X0173033Y0073333D02*
X0179370Y0073333D01*
X0179969Y0072735D02*
X0173033Y0072735D01*
X0173033Y0072136D02*
X0180567Y0072136D01*
X0181166Y0071538D02*
X0173033Y0071538D01*
X0173033Y0064954D02*
X0312734Y0064954D01*
X0312734Y0064356D02*
X0173033Y0064356D01*
X0173033Y0063757D02*
X0312734Y0063757D01*
X0312734Y0063159D02*
X0173033Y0063159D01*
X0173033Y0062560D02*
X0312734Y0062560D01*
X0312734Y0061962D02*
X0173033Y0061962D01*
X0173033Y0061363D02*
X0312734Y0061363D01*
X0312734Y0060765D02*
X0173033Y0060765D01*
X0173033Y0060166D02*
X0312734Y0060166D01*
X0312734Y0059568D02*
X0173033Y0059568D01*
X0173033Y0058969D02*
X0312734Y0058969D01*
X0312734Y0058370D02*
X0173033Y0058370D01*
X0173033Y0057772D02*
X0312734Y0057772D01*
X0312734Y0057173D02*
X0173033Y0057173D01*
X0173033Y0056575D02*
X0312734Y0056575D01*
X0312734Y0055976D02*
X0173033Y0055976D01*
X0173033Y0055378D02*
X0312734Y0055378D01*
X0312734Y0054779D02*
X0173033Y0054779D01*
X0173033Y0054181D02*
X0312734Y0054181D01*
X0312734Y0053582D02*
X0173033Y0053582D01*
X0173033Y0052984D02*
X0312734Y0052984D01*
X0312734Y0052385D02*
X0173033Y0052385D01*
X0173033Y0051787D02*
X0312734Y0051787D01*
X0312734Y0051188D02*
X0208381Y0051188D01*
X0209336Y0050793D02*
X0207388Y0051600D01*
X0199279Y0051600D01*
X0197331Y0050793D01*
X0195840Y0049302D01*
X0195798Y0049200D01*
X0187363Y0049200D01*
X0185363Y0051200D01*
X0181304Y0051200D01*
X0178433Y0048330D01*
X0178433Y0044270D01*
X0181304Y0041400D01*
X0185363Y0041400D01*
X0187363Y0043400D01*
X0195798Y0043400D01*
X0195840Y0043298D01*
X0197331Y0041807D01*
X0198555Y0041300D01*
X0197331Y0040793D01*
X0195840Y0039302D01*
X0195033Y0037354D01*
X0195033Y0035246D01*
X0195840Y0033298D01*
X0197331Y0031807D01*
X0198555Y0031300D01*
X0197331Y0030793D01*
X0195840Y0029302D01*
X0195033Y0027354D01*
X0195033Y0025246D01*
X0195840Y0023298D01*
X0197331Y0021807D01*
X0199279Y0021000D01*
X0207388Y0021000D01*
X0209336Y0021807D01*
X0210826Y0023298D01*
X0211633Y0025246D01*
X0211633Y0027354D01*
X0210826Y0029302D01*
X0209336Y0030793D01*
X0208112Y0031300D01*
X0209336Y0031807D01*
X0210826Y0033298D01*
X0211633Y0035246D01*
X0211633Y0037354D01*
X0210826Y0039302D01*
X0209336Y0040793D01*
X0208112Y0041300D01*
X0209336Y0041807D01*
X0210826Y0043298D01*
X0211633Y0045246D01*
X0211633Y0047354D01*
X0210826Y0049302D01*
X0209336Y0050793D01*
X0209539Y0050590D02*
X0312734Y0050590D01*
X0312734Y0049991D02*
X0210137Y0049991D01*
X0210736Y0049393D02*
X0312734Y0049393D01*
X0312734Y0048794D02*
X0211037Y0048794D01*
X0211285Y0048196D02*
X0312734Y0048196D01*
X0312734Y0047597D02*
X0211533Y0047597D01*
X0211633Y0046999D02*
X0312734Y0046999D01*
X0312734Y0046400D02*
X0211633Y0046400D01*
X0211633Y0045802D02*
X0312734Y0045802D01*
X0312734Y0045203D02*
X0211616Y0045203D01*
X0211368Y0044605D02*
X0312734Y0044605D01*
X0312734Y0044006D02*
X0211120Y0044006D01*
X0210872Y0043408D02*
X0312734Y0043408D01*
X0312734Y0042809D02*
X0210338Y0042809D01*
X0209739Y0042211D02*
X0312734Y0042211D01*
X0312734Y0041612D02*
X0208865Y0041612D01*
X0208803Y0041014D02*
X0312734Y0041014D01*
X0312734Y0040415D02*
X0209713Y0040415D01*
X0210312Y0039817D02*
X0312734Y0039817D01*
X0312734Y0039218D02*
X0210861Y0039218D01*
X0211109Y0038620D02*
X0312734Y0038620D01*
X0312734Y0038021D02*
X0211357Y0038021D01*
X0211605Y0037423D02*
X0312734Y0037423D01*
X0312734Y0036824D02*
X0211633Y0036824D01*
X0211633Y0036226D02*
X0312734Y0036226D01*
X0312734Y0035627D02*
X0211633Y0035627D01*
X0211543Y0035029D02*
X0312734Y0035029D01*
X0312734Y0034430D02*
X0211295Y0034430D01*
X0211048Y0033832D02*
X0312734Y0033832D01*
X0312734Y0033233D02*
X0210762Y0033233D01*
X0210163Y0032634D02*
X0312734Y0032634D01*
X0312734Y0032036D02*
X0306500Y0032036D01*
X0308154Y0031437D02*
X0312734Y0031437D01*
X0312734Y0030839D02*
X0309191Y0030839D01*
X0310218Y0030240D02*
X0312734Y0030240D01*
X0312734Y0029642D02*
X0310816Y0029642D01*
X0311415Y0029043D02*
X0312734Y0029043D01*
X0312734Y0028445D02*
X0312013Y0028445D01*
X0312475Y0027846D02*
X0312734Y0027846D01*
X0300167Y0032036D02*
X0209565Y0032036D01*
X0209225Y0030839D02*
X0297476Y0030839D01*
X0296449Y0030240D02*
X0209888Y0030240D01*
X0210487Y0029642D02*
X0295851Y0029642D01*
X0295252Y0029043D02*
X0210934Y0029043D01*
X0211182Y0028445D02*
X0294654Y0028445D01*
X0294192Y0027846D02*
X0211429Y0027846D01*
X0211633Y0027248D02*
X0293847Y0027248D01*
X0293501Y0026649D02*
X0211633Y0026649D01*
X0211633Y0026051D02*
X0293155Y0026051D01*
X0292861Y0025452D02*
X0211633Y0025452D01*
X0211471Y0024854D02*
X0292701Y0024854D01*
X0292541Y0024255D02*
X0211223Y0024255D01*
X0210975Y0023657D02*
X0292380Y0023657D01*
X0292220Y0023058D02*
X0210587Y0023058D01*
X0209988Y0022460D02*
X0292144Y0022460D01*
X0292144Y0021861D02*
X0209390Y0021861D01*
X0208022Y0021263D02*
X0292144Y0021263D01*
X0292144Y0020664D02*
X0167799Y0020664D01*
X0167200Y0020066D02*
X0198253Y0020066D01*
X0198080Y0019978D02*
X0197532Y0019580D01*
X0197053Y0019101D01*
X0196656Y0018554D01*
X0196348Y0017951D01*
X0196139Y0017307D01*
X0196033Y0016638D01*
X0196033Y0016600D01*
X0203033Y0016600D01*
X0203033Y0016000D01*
X0196033Y0016000D01*
X0196033Y0015962D01*
X0196139Y0015293D01*
X0196348Y0014649D01*
X0196656Y0014046D01*
X0197053Y0013499D01*
X0197532Y0013020D01*
X0198080Y0012622D01*
X0198683Y0012315D01*
X0199326Y0012106D01*
X0199995Y0012000D01*
X0203033Y0012000D01*
X0203033Y0016000D01*
X0203633Y0016000D01*
X0203633Y0012000D01*
X0206672Y0012000D01*
X0207340Y0012106D01*
X0207984Y0012315D01*
X0208587Y0012622D01*
X0209135Y0013020D01*
X0209613Y0013499D01*
X0210011Y0014046D01*
X0210318Y0014649D01*
X0210527Y0015293D01*
X0210633Y0015962D01*
X0210633Y0016000D01*
X0203633Y0016000D01*
X0203633Y0016600D01*
X0203033Y0016600D01*
X0203033Y0020600D01*
X0199995Y0020600D01*
X0199326Y0020494D01*
X0198683Y0020285D01*
X0198080Y0019978D01*
X0197419Y0019467D02*
X0166602Y0019467D01*
X0166006Y0018869D02*
X0196885Y0018869D01*
X0196511Y0018270D02*
X0166254Y0018270D01*
X0166502Y0017672D02*
X0196258Y0017672D01*
X0196102Y0017073D02*
X0166633Y0017073D01*
X0166633Y0016475D02*
X0203033Y0016475D01*
X0203033Y0017073D02*
X0203633Y0017073D01*
X0203633Y0016600D02*
X0203633Y0020600D01*
X0206672Y0020600D01*
X0207340Y0020494D01*
X0207984Y0020285D01*
X0208587Y0019978D01*
X0209135Y0019580D01*
X0209613Y0019101D01*
X0210011Y0018554D01*
X0210318Y0017951D01*
X0210527Y0017307D01*
X0210633Y0016638D01*
X0210633Y0016600D01*
X0203633Y0016600D01*
X0203633Y0016475D02*
X0293198Y0016475D01*
X0292881Y0017073D02*
X0210564Y0017073D01*
X0210409Y0017672D02*
X0292721Y0017672D01*
X0292561Y0018270D02*
X0210155Y0018270D01*
X0209782Y0018869D02*
X0292400Y0018869D01*
X0292240Y0019467D02*
X0209247Y0019467D01*
X0208414Y0020066D02*
X0292144Y0020066D01*
X0293544Y0015876D02*
X0210620Y0015876D01*
X0210522Y0015278D02*
X0293889Y0015278D01*
X0294235Y0014679D02*
X0210328Y0014679D01*
X0210029Y0014081D02*
X0294728Y0014081D01*
X0295326Y0013482D02*
X0209597Y0013482D01*
X0208947Y0012884D02*
X0295925Y0012884D01*
X0296568Y0012285D02*
X0207892Y0012285D01*
X0203633Y0012285D02*
X0203033Y0012285D01*
X0203033Y0012884D02*
X0203633Y0012884D01*
X0203633Y0013482D02*
X0203033Y0013482D01*
X0203033Y0014081D02*
X0203633Y0014081D01*
X0203633Y0014679D02*
X0203033Y0014679D01*
X0203033Y0015278D02*
X0203633Y0015278D01*
X0203633Y0015876D02*
X0203033Y0015876D01*
X0203033Y0017672D02*
X0203633Y0017672D01*
X0203633Y0018270D02*
X0203033Y0018270D01*
X0203033Y0018869D02*
X0203633Y0018869D01*
X0203633Y0019467D02*
X0203033Y0019467D01*
X0203033Y0020066D02*
X0203633Y0020066D01*
X0198645Y0021263D02*
X0168397Y0021263D01*
X0168996Y0021861D02*
X0197277Y0021861D01*
X0196678Y0022460D02*
X0169594Y0022460D01*
X0170193Y0023058D02*
X0196080Y0023058D01*
X0195691Y0023657D02*
X0170791Y0023657D01*
X0171390Y0024255D02*
X0195444Y0024255D01*
X0195196Y0024854D02*
X0171988Y0024854D01*
X0172587Y0025452D02*
X0195033Y0025452D01*
X0195033Y0026051D02*
X0172838Y0026051D01*
X0173033Y0026649D02*
X0195033Y0026649D01*
X0195033Y0027248D02*
X0173033Y0027248D01*
X0173033Y0027846D02*
X0195237Y0027846D01*
X0195485Y0028445D02*
X0173033Y0028445D01*
X0173033Y0029043D02*
X0195733Y0029043D01*
X0196180Y0029642D02*
X0173033Y0029642D01*
X0173033Y0030240D02*
X0196778Y0030240D01*
X0197442Y0030839D02*
X0173033Y0030839D01*
X0173033Y0031437D02*
X0198223Y0031437D01*
X0197102Y0032036D02*
X0173033Y0032036D01*
X0173033Y0032634D02*
X0196503Y0032634D01*
X0195905Y0033233D02*
X0173033Y0033233D01*
X0173033Y0033832D02*
X0195619Y0033832D01*
X0195371Y0034430D02*
X0173033Y0034430D01*
X0173033Y0035029D02*
X0195123Y0035029D01*
X0195033Y0035627D02*
X0173033Y0035627D01*
X0173033Y0036226D02*
X0195033Y0036226D01*
X0195033Y0036824D02*
X0173033Y0036824D01*
X0173033Y0037423D02*
X0195062Y0037423D01*
X0195310Y0038021D02*
X0173033Y0038021D01*
X0173033Y0038620D02*
X0195557Y0038620D01*
X0195805Y0039218D02*
X0173033Y0039218D01*
X0173033Y0039817D02*
X0196355Y0039817D01*
X0196953Y0040415D02*
X0173033Y0040415D01*
X0173033Y0041014D02*
X0197864Y0041014D01*
X0197801Y0041612D02*
X0185575Y0041612D01*
X0186174Y0042211D02*
X0196927Y0042211D01*
X0196329Y0042809D02*
X0186772Y0042809D01*
X0181092Y0041612D02*
X0173033Y0041612D01*
X0173033Y0042211D02*
X0180493Y0042211D01*
X0179894Y0042809D02*
X0173033Y0042809D01*
X0173033Y0043408D02*
X0179296Y0043408D01*
X0178697Y0044006D02*
X0173033Y0044006D01*
X0173033Y0044605D02*
X0178433Y0044605D01*
X0178433Y0045203D02*
X0173033Y0045203D01*
X0173033Y0045802D02*
X0178433Y0045802D01*
X0178433Y0046400D02*
X0173033Y0046400D01*
X0173033Y0046999D02*
X0178433Y0046999D01*
X0178433Y0047597D02*
X0173033Y0047597D01*
X0173033Y0048196D02*
X0178433Y0048196D01*
X0178898Y0048794D02*
X0173033Y0048794D01*
X0173033Y0049393D02*
X0179497Y0049393D01*
X0180095Y0049991D02*
X0173033Y0049991D01*
X0173033Y0050590D02*
X0180694Y0050590D01*
X0181292Y0051188D02*
X0173033Y0051188D01*
X0185375Y0051188D02*
X0198285Y0051188D01*
X0197128Y0050590D02*
X0185973Y0050590D01*
X0186572Y0049991D02*
X0196529Y0049991D01*
X0195931Y0049393D02*
X0187170Y0049393D01*
X0208444Y0031437D02*
X0298512Y0031437D01*
X0297605Y0011687D02*
X0164045Y0011687D01*
X0164814Y0012285D02*
X0198775Y0012285D01*
X0197720Y0012884D02*
X0165412Y0012884D01*
X0165903Y0013482D02*
X0197070Y0013482D01*
X0196638Y0014081D02*
X0166151Y0014081D01*
X0166399Y0014679D02*
X0196339Y0014679D01*
X0196144Y0015278D02*
X0166633Y0015278D01*
X0166633Y0015876D02*
X0196047Y0015876D01*
X0162600Y0011088D02*
X0298641Y0011088D01*
X0293492Y0076326D02*
X0213174Y0076326D01*
X0191846Y0092486D02*
X0173033Y0092486D01*
X0173033Y0093084D02*
X0191248Y0093084D01*
X0190649Y0093683D02*
X0173033Y0093683D01*
X0173033Y0094281D02*
X0190051Y0094281D01*
X0189452Y0094880D02*
X0173033Y0094880D01*
X0173033Y0095478D02*
X0188854Y0095478D01*
X0188255Y0096077D02*
X0173033Y0096077D01*
X0173033Y0096675D02*
X0187657Y0096675D01*
X0187058Y0097274D02*
X0173033Y0097274D01*
X0173033Y0097872D02*
X0186460Y0097872D01*
X0185861Y0098471D02*
X0173033Y0098471D01*
X0173033Y0099069D02*
X0185263Y0099069D01*
X0184664Y0099668D02*
X0173033Y0099668D01*
X0173033Y0100266D02*
X0184066Y0100266D01*
X0135233Y0075727D02*
X0117233Y0075727D01*
X0117233Y0075129D02*
X0135233Y0075129D01*
X0135233Y0074530D02*
X0117079Y0074530D01*
X0116481Y0073932D02*
X0135233Y0073932D01*
X0135233Y0073333D02*
X0115882Y0073333D01*
X0115284Y0072735D02*
X0135311Y0072735D01*
X0113633Y0072735D02*
X0113033Y0072735D01*
X0113033Y0073333D02*
X0113633Y0073333D01*
X0113633Y0073932D02*
X0113033Y0073932D01*
X0113033Y0074530D02*
X0113633Y0074530D01*
X0113633Y0075129D02*
X0113033Y0075129D01*
X0113033Y0075727D02*
X0113633Y0075727D01*
X0113633Y0077523D02*
X0113033Y0077523D01*
X0113033Y0078121D02*
X0113633Y0078121D01*
X0113633Y0078720D02*
X0113033Y0078720D01*
X0113033Y0079318D02*
X0113633Y0079318D01*
X0113633Y0079917D02*
X0113033Y0079917D01*
X0109433Y0097274D02*
X0097633Y0097274D01*
X0097633Y0097872D02*
X0109433Y0097872D01*
X0109989Y0098471D02*
X0097633Y0098471D01*
X0097633Y0099069D02*
X0110587Y0099069D01*
X0111718Y0040200D02*
X0109433Y0037915D01*
X0109433Y0036600D01*
X0113033Y0036600D01*
X0113033Y0036000D01*
X0109433Y0036000D01*
X0109433Y0034685D01*
X0111718Y0032400D01*
X0113033Y0032400D01*
X0113033Y0036000D01*
X0113633Y0036000D01*
X0113633Y0032400D01*
X0114949Y0032400D01*
X0117233Y0034685D01*
X0117233Y0036000D01*
X0113633Y0036000D01*
X0113633Y0036600D01*
X0113033Y0036600D01*
X0113033Y0040200D01*
X0111718Y0040200D01*
X0111335Y0039817D02*
X0097633Y0039817D01*
X0097633Y0040415D02*
X0140519Y0040415D01*
X0139920Y0039817D02*
X0115332Y0039817D01*
X0114949Y0040200D02*
X0113633Y0040200D01*
X0113633Y0036600D01*
X0117233Y0036600D01*
X0117233Y0037915D01*
X0114949Y0040200D01*
X0113633Y0039817D02*
X0113033Y0039817D01*
X0113033Y0039218D02*
X0113633Y0039218D01*
X0113633Y0038620D02*
X0113033Y0038620D01*
X0113033Y0038021D02*
X0113633Y0038021D01*
X0113633Y0037423D02*
X0113033Y0037423D01*
X0113033Y0036824D02*
X0113633Y0036824D01*
X0113633Y0036226D02*
X0138433Y0036226D01*
X0138433Y0036824D02*
X0117233Y0036824D01*
X0117233Y0037423D02*
X0138433Y0037423D01*
X0138433Y0038021D02*
X0117128Y0038021D01*
X0116529Y0038620D02*
X0138723Y0038620D01*
X0139322Y0039218D02*
X0115931Y0039218D01*
X0110736Y0039218D02*
X0097633Y0039218D01*
X0097633Y0038620D02*
X0110138Y0038620D01*
X0109539Y0038021D02*
X0097633Y0038021D01*
X0097633Y0037423D02*
X0109433Y0037423D01*
X0109433Y0036824D02*
X0097633Y0036824D01*
X0097633Y0036226D02*
X0113033Y0036226D01*
X0113033Y0035627D02*
X0113633Y0035627D01*
X0113633Y0035029D02*
X0113033Y0035029D01*
X0113033Y0034430D02*
X0113633Y0034430D01*
X0113633Y0033832D02*
X0113033Y0033832D01*
X0113033Y0033233D02*
X0113633Y0033233D01*
X0113633Y0032634D02*
X0113033Y0032634D01*
X0111483Y0032634D02*
X0097633Y0032634D01*
X0097633Y0032036D02*
X0140668Y0032036D01*
X0141266Y0031437D02*
X0097633Y0031437D01*
X0097633Y0033233D02*
X0110885Y0033233D01*
X0110286Y0033832D02*
X0097633Y0033832D01*
X0097633Y0034430D02*
X0109688Y0034430D01*
X0109433Y0035029D02*
X0097633Y0035029D01*
X0097633Y0035627D02*
X0109433Y0035627D01*
X0115183Y0032634D02*
X0140069Y0032634D01*
X0139471Y0033233D02*
X0115782Y0033233D01*
X0116380Y0033832D02*
X0138872Y0033832D01*
X0138433Y0034430D02*
X0116979Y0034430D01*
X0117233Y0035029D02*
X0138433Y0035029D01*
X0138433Y0035627D02*
X0117233Y0035627D01*
X0145899Y0020664D02*
X0152202Y0020664D01*
X0150516Y0014081D02*
X0148044Y0014081D01*
X0147445Y0013482D02*
X0150764Y0013482D01*
X0151254Y0012884D02*
X0146847Y0012884D01*
X0146248Y0012285D02*
X0151853Y0012285D01*
X0152621Y0011687D02*
X0145650Y0011687D01*
X0141017Y0011687D02*
X0097633Y0011687D01*
X0097633Y0012285D02*
X0140419Y0012285D01*
X0154066Y0011088D02*
X0097633Y0011088D01*
X0303229Y0106251D02*
X0312734Y0106251D01*
M02*
