G75*
%MOIN*%
%OFA0B0*%
%FSLAX25Y25*%
%IPPOS*%
%LPD*%
%AMOC8*
5,1,8,0,0,1.08239X$1,22.5*
%
%ADD10C,0.00000*%
%ADD11C,0.01200*%
%ADD12C,0.00600*%
%ADD13C,0.00500*%
%ADD14R,0.02000X0.01500*%
%ADD15C,0.00400*%
%ADD16R,0.01500X0.02000*%
D10*
X0093333Y0006300D02*
X0093333Y0211261D01*
X0317034Y0211261D01*
X0317034Y0006300D01*
X0093333Y0006300D01*
X0296443Y0021300D02*
X0296445Y0021469D01*
X0296451Y0021638D01*
X0296462Y0021807D01*
X0296476Y0021975D01*
X0296495Y0022143D01*
X0296518Y0022311D01*
X0296544Y0022478D01*
X0296575Y0022644D01*
X0296610Y0022810D01*
X0296649Y0022974D01*
X0296693Y0023138D01*
X0296740Y0023300D01*
X0296791Y0023461D01*
X0296846Y0023621D01*
X0296905Y0023780D01*
X0296967Y0023937D01*
X0297034Y0024092D01*
X0297105Y0024246D01*
X0297179Y0024398D01*
X0297257Y0024548D01*
X0297338Y0024696D01*
X0297423Y0024842D01*
X0297512Y0024986D01*
X0297604Y0025128D01*
X0297700Y0025267D01*
X0297799Y0025404D01*
X0297901Y0025539D01*
X0298007Y0025671D01*
X0298116Y0025800D01*
X0298228Y0025927D01*
X0298343Y0026051D01*
X0298461Y0026172D01*
X0298582Y0026290D01*
X0298706Y0026405D01*
X0298833Y0026517D01*
X0298962Y0026626D01*
X0299094Y0026732D01*
X0299229Y0026834D01*
X0299366Y0026933D01*
X0299505Y0027029D01*
X0299647Y0027121D01*
X0299791Y0027210D01*
X0299937Y0027295D01*
X0300085Y0027376D01*
X0300235Y0027454D01*
X0300387Y0027528D01*
X0300541Y0027599D01*
X0300696Y0027666D01*
X0300853Y0027728D01*
X0301012Y0027787D01*
X0301172Y0027842D01*
X0301333Y0027893D01*
X0301495Y0027940D01*
X0301659Y0027984D01*
X0301823Y0028023D01*
X0301989Y0028058D01*
X0302155Y0028089D01*
X0302322Y0028115D01*
X0302490Y0028138D01*
X0302658Y0028157D01*
X0302826Y0028171D01*
X0302995Y0028182D01*
X0303164Y0028188D01*
X0303333Y0028190D01*
X0303502Y0028188D01*
X0303671Y0028182D01*
X0303840Y0028171D01*
X0304008Y0028157D01*
X0304176Y0028138D01*
X0304344Y0028115D01*
X0304511Y0028089D01*
X0304677Y0028058D01*
X0304843Y0028023D01*
X0305007Y0027984D01*
X0305171Y0027940D01*
X0305333Y0027893D01*
X0305494Y0027842D01*
X0305654Y0027787D01*
X0305813Y0027728D01*
X0305970Y0027666D01*
X0306125Y0027599D01*
X0306279Y0027528D01*
X0306431Y0027454D01*
X0306581Y0027376D01*
X0306729Y0027295D01*
X0306875Y0027210D01*
X0307019Y0027121D01*
X0307161Y0027029D01*
X0307300Y0026933D01*
X0307437Y0026834D01*
X0307572Y0026732D01*
X0307704Y0026626D01*
X0307833Y0026517D01*
X0307960Y0026405D01*
X0308084Y0026290D01*
X0308205Y0026172D01*
X0308323Y0026051D01*
X0308438Y0025927D01*
X0308550Y0025800D01*
X0308659Y0025671D01*
X0308765Y0025539D01*
X0308867Y0025404D01*
X0308966Y0025267D01*
X0309062Y0025128D01*
X0309154Y0024986D01*
X0309243Y0024842D01*
X0309328Y0024696D01*
X0309409Y0024548D01*
X0309487Y0024398D01*
X0309561Y0024246D01*
X0309632Y0024092D01*
X0309699Y0023937D01*
X0309761Y0023780D01*
X0309820Y0023621D01*
X0309875Y0023461D01*
X0309926Y0023300D01*
X0309973Y0023138D01*
X0310017Y0022974D01*
X0310056Y0022810D01*
X0310091Y0022644D01*
X0310122Y0022478D01*
X0310148Y0022311D01*
X0310171Y0022143D01*
X0310190Y0021975D01*
X0310204Y0021807D01*
X0310215Y0021638D01*
X0310221Y0021469D01*
X0310223Y0021300D01*
X0310221Y0021131D01*
X0310215Y0020962D01*
X0310204Y0020793D01*
X0310190Y0020625D01*
X0310171Y0020457D01*
X0310148Y0020289D01*
X0310122Y0020122D01*
X0310091Y0019956D01*
X0310056Y0019790D01*
X0310017Y0019626D01*
X0309973Y0019462D01*
X0309926Y0019300D01*
X0309875Y0019139D01*
X0309820Y0018979D01*
X0309761Y0018820D01*
X0309699Y0018663D01*
X0309632Y0018508D01*
X0309561Y0018354D01*
X0309487Y0018202D01*
X0309409Y0018052D01*
X0309328Y0017904D01*
X0309243Y0017758D01*
X0309154Y0017614D01*
X0309062Y0017472D01*
X0308966Y0017333D01*
X0308867Y0017196D01*
X0308765Y0017061D01*
X0308659Y0016929D01*
X0308550Y0016800D01*
X0308438Y0016673D01*
X0308323Y0016549D01*
X0308205Y0016428D01*
X0308084Y0016310D01*
X0307960Y0016195D01*
X0307833Y0016083D01*
X0307704Y0015974D01*
X0307572Y0015868D01*
X0307437Y0015766D01*
X0307300Y0015667D01*
X0307161Y0015571D01*
X0307019Y0015479D01*
X0306875Y0015390D01*
X0306729Y0015305D01*
X0306581Y0015224D01*
X0306431Y0015146D01*
X0306279Y0015072D01*
X0306125Y0015001D01*
X0305970Y0014934D01*
X0305813Y0014872D01*
X0305654Y0014813D01*
X0305494Y0014758D01*
X0305333Y0014707D01*
X0305171Y0014660D01*
X0305007Y0014616D01*
X0304843Y0014577D01*
X0304677Y0014542D01*
X0304511Y0014511D01*
X0304344Y0014485D01*
X0304176Y0014462D01*
X0304008Y0014443D01*
X0303840Y0014429D01*
X0303671Y0014418D01*
X0303502Y0014412D01*
X0303333Y0014410D01*
X0303164Y0014412D01*
X0302995Y0014418D01*
X0302826Y0014429D01*
X0302658Y0014443D01*
X0302490Y0014462D01*
X0302322Y0014485D01*
X0302155Y0014511D01*
X0301989Y0014542D01*
X0301823Y0014577D01*
X0301659Y0014616D01*
X0301495Y0014660D01*
X0301333Y0014707D01*
X0301172Y0014758D01*
X0301012Y0014813D01*
X0300853Y0014872D01*
X0300696Y0014934D01*
X0300541Y0015001D01*
X0300387Y0015072D01*
X0300235Y0015146D01*
X0300085Y0015224D01*
X0299937Y0015305D01*
X0299791Y0015390D01*
X0299647Y0015479D01*
X0299505Y0015571D01*
X0299366Y0015667D01*
X0299229Y0015766D01*
X0299094Y0015868D01*
X0298962Y0015974D01*
X0298833Y0016083D01*
X0298706Y0016195D01*
X0298582Y0016310D01*
X0298461Y0016428D01*
X0298343Y0016549D01*
X0298228Y0016673D01*
X0298116Y0016800D01*
X0298007Y0016929D01*
X0297901Y0017061D01*
X0297799Y0017196D01*
X0297700Y0017333D01*
X0297604Y0017472D01*
X0297512Y0017614D01*
X0297423Y0017758D01*
X0297338Y0017904D01*
X0297257Y0018052D01*
X0297179Y0018202D01*
X0297105Y0018354D01*
X0297034Y0018508D01*
X0296967Y0018663D01*
X0296905Y0018820D01*
X0296846Y0018979D01*
X0296791Y0019139D01*
X0296740Y0019300D01*
X0296693Y0019462D01*
X0296649Y0019626D01*
X0296610Y0019790D01*
X0296575Y0019956D01*
X0296544Y0020122D01*
X0296518Y0020289D01*
X0296495Y0020457D01*
X0296476Y0020625D01*
X0296462Y0020793D01*
X0296451Y0020962D01*
X0296445Y0021131D01*
X0296443Y0021300D01*
X0101443Y0196300D02*
X0101445Y0196469D01*
X0101451Y0196638D01*
X0101462Y0196807D01*
X0101476Y0196975D01*
X0101495Y0197143D01*
X0101518Y0197311D01*
X0101544Y0197478D01*
X0101575Y0197644D01*
X0101610Y0197810D01*
X0101649Y0197974D01*
X0101693Y0198138D01*
X0101740Y0198300D01*
X0101791Y0198461D01*
X0101846Y0198621D01*
X0101905Y0198780D01*
X0101967Y0198937D01*
X0102034Y0199092D01*
X0102105Y0199246D01*
X0102179Y0199398D01*
X0102257Y0199548D01*
X0102338Y0199696D01*
X0102423Y0199842D01*
X0102512Y0199986D01*
X0102604Y0200128D01*
X0102700Y0200267D01*
X0102799Y0200404D01*
X0102901Y0200539D01*
X0103007Y0200671D01*
X0103116Y0200800D01*
X0103228Y0200927D01*
X0103343Y0201051D01*
X0103461Y0201172D01*
X0103582Y0201290D01*
X0103706Y0201405D01*
X0103833Y0201517D01*
X0103962Y0201626D01*
X0104094Y0201732D01*
X0104229Y0201834D01*
X0104366Y0201933D01*
X0104505Y0202029D01*
X0104647Y0202121D01*
X0104791Y0202210D01*
X0104937Y0202295D01*
X0105085Y0202376D01*
X0105235Y0202454D01*
X0105387Y0202528D01*
X0105541Y0202599D01*
X0105696Y0202666D01*
X0105853Y0202728D01*
X0106012Y0202787D01*
X0106172Y0202842D01*
X0106333Y0202893D01*
X0106495Y0202940D01*
X0106659Y0202984D01*
X0106823Y0203023D01*
X0106989Y0203058D01*
X0107155Y0203089D01*
X0107322Y0203115D01*
X0107490Y0203138D01*
X0107658Y0203157D01*
X0107826Y0203171D01*
X0107995Y0203182D01*
X0108164Y0203188D01*
X0108333Y0203190D01*
X0108502Y0203188D01*
X0108671Y0203182D01*
X0108840Y0203171D01*
X0109008Y0203157D01*
X0109176Y0203138D01*
X0109344Y0203115D01*
X0109511Y0203089D01*
X0109677Y0203058D01*
X0109843Y0203023D01*
X0110007Y0202984D01*
X0110171Y0202940D01*
X0110333Y0202893D01*
X0110494Y0202842D01*
X0110654Y0202787D01*
X0110813Y0202728D01*
X0110970Y0202666D01*
X0111125Y0202599D01*
X0111279Y0202528D01*
X0111431Y0202454D01*
X0111581Y0202376D01*
X0111729Y0202295D01*
X0111875Y0202210D01*
X0112019Y0202121D01*
X0112161Y0202029D01*
X0112300Y0201933D01*
X0112437Y0201834D01*
X0112572Y0201732D01*
X0112704Y0201626D01*
X0112833Y0201517D01*
X0112960Y0201405D01*
X0113084Y0201290D01*
X0113205Y0201172D01*
X0113323Y0201051D01*
X0113438Y0200927D01*
X0113550Y0200800D01*
X0113659Y0200671D01*
X0113765Y0200539D01*
X0113867Y0200404D01*
X0113966Y0200267D01*
X0114062Y0200128D01*
X0114154Y0199986D01*
X0114243Y0199842D01*
X0114328Y0199696D01*
X0114409Y0199548D01*
X0114487Y0199398D01*
X0114561Y0199246D01*
X0114632Y0199092D01*
X0114699Y0198937D01*
X0114761Y0198780D01*
X0114820Y0198621D01*
X0114875Y0198461D01*
X0114926Y0198300D01*
X0114973Y0198138D01*
X0115017Y0197974D01*
X0115056Y0197810D01*
X0115091Y0197644D01*
X0115122Y0197478D01*
X0115148Y0197311D01*
X0115171Y0197143D01*
X0115190Y0196975D01*
X0115204Y0196807D01*
X0115215Y0196638D01*
X0115221Y0196469D01*
X0115223Y0196300D01*
X0115221Y0196131D01*
X0115215Y0195962D01*
X0115204Y0195793D01*
X0115190Y0195625D01*
X0115171Y0195457D01*
X0115148Y0195289D01*
X0115122Y0195122D01*
X0115091Y0194956D01*
X0115056Y0194790D01*
X0115017Y0194626D01*
X0114973Y0194462D01*
X0114926Y0194300D01*
X0114875Y0194139D01*
X0114820Y0193979D01*
X0114761Y0193820D01*
X0114699Y0193663D01*
X0114632Y0193508D01*
X0114561Y0193354D01*
X0114487Y0193202D01*
X0114409Y0193052D01*
X0114328Y0192904D01*
X0114243Y0192758D01*
X0114154Y0192614D01*
X0114062Y0192472D01*
X0113966Y0192333D01*
X0113867Y0192196D01*
X0113765Y0192061D01*
X0113659Y0191929D01*
X0113550Y0191800D01*
X0113438Y0191673D01*
X0113323Y0191549D01*
X0113205Y0191428D01*
X0113084Y0191310D01*
X0112960Y0191195D01*
X0112833Y0191083D01*
X0112704Y0190974D01*
X0112572Y0190868D01*
X0112437Y0190766D01*
X0112300Y0190667D01*
X0112161Y0190571D01*
X0112019Y0190479D01*
X0111875Y0190390D01*
X0111729Y0190305D01*
X0111581Y0190224D01*
X0111431Y0190146D01*
X0111279Y0190072D01*
X0111125Y0190001D01*
X0110970Y0189934D01*
X0110813Y0189872D01*
X0110654Y0189813D01*
X0110494Y0189758D01*
X0110333Y0189707D01*
X0110171Y0189660D01*
X0110007Y0189616D01*
X0109843Y0189577D01*
X0109677Y0189542D01*
X0109511Y0189511D01*
X0109344Y0189485D01*
X0109176Y0189462D01*
X0109008Y0189443D01*
X0108840Y0189429D01*
X0108671Y0189418D01*
X0108502Y0189412D01*
X0108333Y0189410D01*
X0108164Y0189412D01*
X0107995Y0189418D01*
X0107826Y0189429D01*
X0107658Y0189443D01*
X0107490Y0189462D01*
X0107322Y0189485D01*
X0107155Y0189511D01*
X0106989Y0189542D01*
X0106823Y0189577D01*
X0106659Y0189616D01*
X0106495Y0189660D01*
X0106333Y0189707D01*
X0106172Y0189758D01*
X0106012Y0189813D01*
X0105853Y0189872D01*
X0105696Y0189934D01*
X0105541Y0190001D01*
X0105387Y0190072D01*
X0105235Y0190146D01*
X0105085Y0190224D01*
X0104937Y0190305D01*
X0104791Y0190390D01*
X0104647Y0190479D01*
X0104505Y0190571D01*
X0104366Y0190667D01*
X0104229Y0190766D01*
X0104094Y0190868D01*
X0103962Y0190974D01*
X0103833Y0191083D01*
X0103706Y0191195D01*
X0103582Y0191310D01*
X0103461Y0191428D01*
X0103343Y0191549D01*
X0103228Y0191673D01*
X0103116Y0191800D01*
X0103007Y0191929D01*
X0102901Y0192061D01*
X0102799Y0192196D01*
X0102700Y0192333D01*
X0102604Y0192472D01*
X0102512Y0192614D01*
X0102423Y0192758D01*
X0102338Y0192904D01*
X0102257Y0193052D01*
X0102179Y0193202D01*
X0102105Y0193354D01*
X0102034Y0193508D01*
X0101967Y0193663D01*
X0101905Y0193820D01*
X0101846Y0193979D01*
X0101791Y0194139D01*
X0101740Y0194300D01*
X0101693Y0194462D01*
X0101649Y0194626D01*
X0101610Y0194790D01*
X0101575Y0194956D01*
X0101544Y0195122D01*
X0101518Y0195289D01*
X0101495Y0195457D01*
X0101476Y0195625D01*
X0101462Y0195793D01*
X0101451Y0195962D01*
X0101445Y0196131D01*
X0101443Y0196300D01*
D11*
X0140833Y0132600D02*
X0143333Y0132600D01*
X0145833Y0132600D01*
X0145833Y0130100D02*
X0143333Y0130100D01*
X0140833Y0130100D01*
D12*
X0143333Y0130100D02*
X0143333Y0125300D01*
X0143333Y0132600D02*
X0143333Y0137300D01*
X0135333Y0145800D02*
X0135273Y0145798D01*
X0135212Y0145793D01*
X0135153Y0145784D01*
X0135094Y0145771D01*
X0135035Y0145755D01*
X0134978Y0145735D01*
X0134923Y0145712D01*
X0134868Y0145685D01*
X0134816Y0145656D01*
X0134765Y0145623D01*
X0134716Y0145587D01*
X0134670Y0145549D01*
X0134626Y0145507D01*
X0134584Y0145463D01*
X0134546Y0145417D01*
X0134510Y0145368D01*
X0134477Y0145317D01*
X0134448Y0145265D01*
X0134421Y0145210D01*
X0134398Y0145155D01*
X0134378Y0145098D01*
X0134362Y0145039D01*
X0134349Y0144980D01*
X0134340Y0144921D01*
X0134335Y0144860D01*
X0134333Y0144800D01*
X0134333Y0117800D01*
X0134335Y0117740D01*
X0134340Y0117679D01*
X0134349Y0117620D01*
X0134362Y0117561D01*
X0134378Y0117502D01*
X0134398Y0117445D01*
X0134421Y0117390D01*
X0134448Y0117335D01*
X0134477Y0117283D01*
X0134510Y0117232D01*
X0134546Y0117183D01*
X0134584Y0117137D01*
X0134626Y0117093D01*
X0134670Y0117051D01*
X0134716Y0117013D01*
X0134765Y0116977D01*
X0134816Y0116944D01*
X0134868Y0116915D01*
X0134923Y0116888D01*
X0134978Y0116865D01*
X0135035Y0116845D01*
X0135094Y0116829D01*
X0135153Y0116816D01*
X0135212Y0116807D01*
X0135273Y0116802D01*
X0135333Y0116800D01*
X0151333Y0116800D01*
X0151393Y0116802D01*
X0151454Y0116807D01*
X0151513Y0116816D01*
X0151572Y0116829D01*
X0151631Y0116845D01*
X0151688Y0116865D01*
X0151743Y0116888D01*
X0151798Y0116915D01*
X0151850Y0116944D01*
X0151901Y0116977D01*
X0151950Y0117013D01*
X0151996Y0117051D01*
X0152040Y0117093D01*
X0152082Y0117137D01*
X0152120Y0117183D01*
X0152156Y0117232D01*
X0152189Y0117283D01*
X0152218Y0117335D01*
X0152245Y0117390D01*
X0152268Y0117445D01*
X0152288Y0117502D01*
X0152304Y0117561D01*
X0152317Y0117620D01*
X0152326Y0117679D01*
X0152331Y0117740D01*
X0152333Y0117800D01*
X0152333Y0144800D01*
X0152331Y0144860D01*
X0152326Y0144921D01*
X0152317Y0144980D01*
X0152304Y0145039D01*
X0152288Y0145098D01*
X0152268Y0145155D01*
X0152245Y0145210D01*
X0152218Y0145265D01*
X0152189Y0145317D01*
X0152156Y0145368D01*
X0152120Y0145417D01*
X0152082Y0145463D01*
X0152040Y0145507D01*
X0151996Y0145549D01*
X0151950Y0145587D01*
X0151901Y0145623D01*
X0151850Y0145656D01*
X0151798Y0145685D01*
X0151743Y0145712D01*
X0151688Y0145735D01*
X0151631Y0145755D01*
X0151572Y0145771D01*
X0151513Y0145784D01*
X0151454Y0145793D01*
X0151393Y0145798D01*
X0151333Y0145800D01*
X0135333Y0145800D01*
X0113333Y0143800D02*
X0113333Y0138800D01*
X0110833Y0136300D01*
X0113333Y0133800D01*
X0113333Y0128800D01*
X0110833Y0126300D01*
X0113333Y0123800D01*
X0113333Y0118800D01*
X0110833Y0116300D01*
X0105833Y0116300D01*
X0103333Y0118800D01*
X0103333Y0123800D01*
X0105833Y0126300D01*
X0103333Y0128800D01*
X0103333Y0133800D01*
X0105833Y0136300D01*
X0103333Y0138800D01*
X0103333Y0143800D01*
X0105833Y0146300D01*
X0110833Y0146300D01*
X0113333Y0143800D01*
X0110833Y0136300D02*
X0105833Y0136300D01*
X0105833Y0126300D02*
X0110833Y0126300D01*
X0119333Y0100300D02*
X0120833Y0100300D01*
X0121333Y0099800D01*
X0135333Y0099800D01*
X0135833Y0100300D01*
X0137333Y0100300D01*
X0137393Y0100298D01*
X0137454Y0100293D01*
X0137513Y0100284D01*
X0137572Y0100271D01*
X0137631Y0100255D01*
X0137688Y0100235D01*
X0137743Y0100212D01*
X0137798Y0100185D01*
X0137850Y0100156D01*
X0137901Y0100123D01*
X0137950Y0100087D01*
X0137996Y0100049D01*
X0138040Y0100007D01*
X0138082Y0099963D01*
X0138120Y0099917D01*
X0138156Y0099868D01*
X0138189Y0099817D01*
X0138218Y0099765D01*
X0138245Y0099710D01*
X0138268Y0099655D01*
X0138288Y0099598D01*
X0138304Y0099539D01*
X0138317Y0099480D01*
X0138326Y0099421D01*
X0138331Y0099360D01*
X0138333Y0099300D01*
X0138333Y0093300D01*
X0138331Y0093240D01*
X0138326Y0093179D01*
X0138317Y0093120D01*
X0138304Y0093061D01*
X0138288Y0093002D01*
X0138268Y0092945D01*
X0138245Y0092890D01*
X0138218Y0092835D01*
X0138189Y0092783D01*
X0138156Y0092732D01*
X0138120Y0092683D01*
X0138082Y0092637D01*
X0138040Y0092593D01*
X0137996Y0092551D01*
X0137950Y0092513D01*
X0137901Y0092477D01*
X0137850Y0092444D01*
X0137798Y0092415D01*
X0137743Y0092388D01*
X0137688Y0092365D01*
X0137631Y0092345D01*
X0137572Y0092329D01*
X0137513Y0092316D01*
X0137454Y0092307D01*
X0137393Y0092302D01*
X0137333Y0092300D01*
X0135833Y0092300D01*
X0135333Y0092800D01*
X0121333Y0092800D01*
X0120833Y0092300D01*
X0119333Y0092300D01*
X0119273Y0092302D01*
X0119212Y0092307D01*
X0119153Y0092316D01*
X0119094Y0092329D01*
X0119035Y0092345D01*
X0118978Y0092365D01*
X0118923Y0092388D01*
X0118868Y0092415D01*
X0118816Y0092444D01*
X0118765Y0092477D01*
X0118716Y0092513D01*
X0118670Y0092551D01*
X0118626Y0092593D01*
X0118584Y0092637D01*
X0118546Y0092683D01*
X0118510Y0092732D01*
X0118477Y0092783D01*
X0118448Y0092835D01*
X0118421Y0092890D01*
X0118398Y0092945D01*
X0118378Y0093002D01*
X0118362Y0093061D01*
X0118349Y0093120D01*
X0118340Y0093179D01*
X0118335Y0093240D01*
X0118333Y0093300D01*
X0118333Y0099300D01*
X0118335Y0099360D01*
X0118340Y0099421D01*
X0118349Y0099480D01*
X0118362Y0099539D01*
X0118378Y0099598D01*
X0118398Y0099655D01*
X0118421Y0099710D01*
X0118448Y0099765D01*
X0118477Y0099817D01*
X0118510Y0099868D01*
X0118546Y0099917D01*
X0118584Y0099963D01*
X0118626Y0100007D01*
X0118670Y0100049D01*
X0118716Y0100087D01*
X0118765Y0100123D01*
X0118816Y0100156D01*
X0118868Y0100185D01*
X0118923Y0100212D01*
X0118978Y0100235D01*
X0119035Y0100255D01*
X0119094Y0100271D01*
X0119153Y0100284D01*
X0119212Y0100293D01*
X0119273Y0100298D01*
X0119333Y0100300D01*
X0119333Y0080300D02*
X0120833Y0080300D01*
X0121333Y0079800D01*
X0135333Y0079800D01*
X0135833Y0080300D01*
X0137333Y0080300D01*
X0137393Y0080298D01*
X0137454Y0080293D01*
X0137513Y0080284D01*
X0137572Y0080271D01*
X0137631Y0080255D01*
X0137688Y0080235D01*
X0137743Y0080212D01*
X0137798Y0080185D01*
X0137850Y0080156D01*
X0137901Y0080123D01*
X0137950Y0080087D01*
X0137996Y0080049D01*
X0138040Y0080007D01*
X0138082Y0079963D01*
X0138120Y0079917D01*
X0138156Y0079868D01*
X0138189Y0079817D01*
X0138218Y0079765D01*
X0138245Y0079710D01*
X0138268Y0079655D01*
X0138288Y0079598D01*
X0138304Y0079539D01*
X0138317Y0079480D01*
X0138326Y0079421D01*
X0138331Y0079360D01*
X0138333Y0079300D01*
X0138333Y0073300D01*
X0138331Y0073240D01*
X0138326Y0073179D01*
X0138317Y0073120D01*
X0138304Y0073061D01*
X0138288Y0073002D01*
X0138268Y0072945D01*
X0138245Y0072890D01*
X0138218Y0072835D01*
X0138189Y0072783D01*
X0138156Y0072732D01*
X0138120Y0072683D01*
X0138082Y0072637D01*
X0138040Y0072593D01*
X0137996Y0072551D01*
X0137950Y0072513D01*
X0137901Y0072477D01*
X0137850Y0072444D01*
X0137798Y0072415D01*
X0137743Y0072388D01*
X0137688Y0072365D01*
X0137631Y0072345D01*
X0137572Y0072329D01*
X0137513Y0072316D01*
X0137454Y0072307D01*
X0137393Y0072302D01*
X0137333Y0072300D01*
X0135833Y0072300D01*
X0135333Y0072800D01*
X0121333Y0072800D01*
X0120833Y0072300D01*
X0119333Y0072300D01*
X0119273Y0072302D01*
X0119212Y0072307D01*
X0119153Y0072316D01*
X0119094Y0072329D01*
X0119035Y0072345D01*
X0118978Y0072365D01*
X0118923Y0072388D01*
X0118868Y0072415D01*
X0118816Y0072444D01*
X0118765Y0072477D01*
X0118716Y0072513D01*
X0118670Y0072551D01*
X0118626Y0072593D01*
X0118584Y0072637D01*
X0118546Y0072683D01*
X0118510Y0072732D01*
X0118477Y0072783D01*
X0118448Y0072835D01*
X0118421Y0072890D01*
X0118398Y0072945D01*
X0118378Y0073002D01*
X0118362Y0073061D01*
X0118349Y0073120D01*
X0118340Y0073179D01*
X0118335Y0073240D01*
X0118333Y0073300D01*
X0118333Y0079300D01*
X0118335Y0079360D01*
X0118340Y0079421D01*
X0118349Y0079480D01*
X0118362Y0079539D01*
X0118378Y0079598D01*
X0118398Y0079655D01*
X0118421Y0079710D01*
X0118448Y0079765D01*
X0118477Y0079817D01*
X0118510Y0079868D01*
X0118546Y0079917D01*
X0118584Y0079963D01*
X0118626Y0080007D01*
X0118670Y0080049D01*
X0118716Y0080087D01*
X0118765Y0080123D01*
X0118816Y0080156D01*
X0118868Y0080185D01*
X0118923Y0080212D01*
X0118978Y0080235D01*
X0119035Y0080255D01*
X0119094Y0080271D01*
X0119153Y0080284D01*
X0119212Y0080293D01*
X0119273Y0080298D01*
X0119333Y0080300D01*
X0153333Y0078800D02*
X0153333Y0073800D01*
X0155833Y0071300D01*
X0160833Y0071300D01*
X0163333Y0073800D01*
X0163333Y0078800D01*
X0160833Y0081300D01*
X0155833Y0081300D01*
X0153333Y0078800D01*
X0155833Y0081300D02*
X0153333Y0083800D01*
X0153333Y0088800D01*
X0155833Y0091300D01*
X0153333Y0093800D01*
X0153333Y0098800D01*
X0155833Y0101300D01*
X0160833Y0101300D01*
X0163333Y0098800D01*
X0163333Y0093800D01*
X0160833Y0091300D01*
X0163333Y0088800D01*
X0163333Y0083800D01*
X0160833Y0081300D01*
X0160833Y0091300D02*
X0155833Y0091300D01*
X0155833Y0071300D02*
X0153333Y0068800D01*
X0153333Y0063800D01*
X0155833Y0061300D01*
X0160833Y0061300D01*
X0163333Y0063800D01*
X0163333Y0068800D01*
X0160833Y0071300D01*
X0179333Y0070300D02*
X0179333Y0068800D01*
X0179833Y0068300D01*
X0179833Y0054300D01*
X0179333Y0053800D01*
X0179333Y0052300D01*
X0179335Y0052240D01*
X0179340Y0052179D01*
X0179349Y0052120D01*
X0179362Y0052061D01*
X0179378Y0052002D01*
X0179398Y0051945D01*
X0179421Y0051890D01*
X0179448Y0051835D01*
X0179477Y0051783D01*
X0179510Y0051732D01*
X0179546Y0051683D01*
X0179584Y0051637D01*
X0179626Y0051593D01*
X0179670Y0051551D01*
X0179716Y0051513D01*
X0179765Y0051477D01*
X0179816Y0051444D01*
X0179868Y0051415D01*
X0179923Y0051388D01*
X0179978Y0051365D01*
X0180035Y0051345D01*
X0180094Y0051329D01*
X0180153Y0051316D01*
X0180212Y0051307D01*
X0180273Y0051302D01*
X0180333Y0051300D01*
X0186333Y0051300D01*
X0186393Y0051302D01*
X0186454Y0051307D01*
X0186513Y0051316D01*
X0186572Y0051329D01*
X0186631Y0051345D01*
X0186688Y0051365D01*
X0186743Y0051388D01*
X0186798Y0051415D01*
X0186850Y0051444D01*
X0186901Y0051477D01*
X0186950Y0051513D01*
X0186996Y0051551D01*
X0187040Y0051593D01*
X0187082Y0051637D01*
X0187120Y0051683D01*
X0187156Y0051732D01*
X0187189Y0051783D01*
X0187218Y0051835D01*
X0187245Y0051890D01*
X0187268Y0051945D01*
X0187288Y0052002D01*
X0187304Y0052061D01*
X0187317Y0052120D01*
X0187326Y0052179D01*
X0187331Y0052240D01*
X0187333Y0052300D01*
X0187333Y0053800D01*
X0186833Y0054300D01*
X0186833Y0068300D01*
X0187333Y0068800D01*
X0187333Y0070300D01*
X0187331Y0070360D01*
X0187326Y0070421D01*
X0187317Y0070480D01*
X0187304Y0070539D01*
X0187288Y0070598D01*
X0187268Y0070655D01*
X0187245Y0070710D01*
X0187218Y0070765D01*
X0187189Y0070817D01*
X0187156Y0070868D01*
X0187120Y0070917D01*
X0187082Y0070963D01*
X0187040Y0071007D01*
X0186996Y0071049D01*
X0186950Y0071087D01*
X0186901Y0071123D01*
X0186850Y0071156D01*
X0186798Y0071185D01*
X0186743Y0071212D01*
X0186688Y0071235D01*
X0186631Y0071255D01*
X0186572Y0071271D01*
X0186513Y0071284D01*
X0186454Y0071293D01*
X0186393Y0071298D01*
X0186333Y0071300D01*
X0180333Y0071300D01*
X0180273Y0071298D01*
X0180212Y0071293D01*
X0180153Y0071284D01*
X0180094Y0071271D01*
X0180035Y0071255D01*
X0179978Y0071235D01*
X0179923Y0071212D01*
X0179868Y0071185D01*
X0179816Y0071156D01*
X0179765Y0071123D01*
X0179716Y0071087D01*
X0179670Y0071049D01*
X0179626Y0071007D01*
X0179584Y0070963D01*
X0179546Y0070917D01*
X0179510Y0070868D01*
X0179477Y0070817D01*
X0179448Y0070765D01*
X0179421Y0070710D01*
X0179398Y0070655D01*
X0179378Y0070598D01*
X0179362Y0070539D01*
X0179349Y0070480D01*
X0179340Y0070421D01*
X0179335Y0070360D01*
X0179333Y0070300D01*
X0203333Y0068800D02*
X0203333Y0073800D01*
X0205833Y0076300D01*
X0203333Y0078800D01*
X0203333Y0083800D01*
X0205833Y0086300D01*
X0203333Y0088800D01*
X0203333Y0093800D01*
X0205833Y0096300D01*
X0203333Y0098800D01*
X0203333Y0103800D01*
X0205833Y0106300D01*
X0203333Y0108800D01*
X0203333Y0113800D01*
X0205833Y0116300D01*
X0203333Y0118800D01*
X0203333Y0123800D01*
X0205833Y0126300D01*
X0203333Y0128800D01*
X0203333Y0133800D01*
X0205833Y0136300D01*
X0203333Y0138800D01*
X0203333Y0143800D01*
X0205833Y0146300D01*
X0203333Y0148800D01*
X0203333Y0153800D01*
X0205833Y0156300D01*
X0203333Y0158800D01*
X0203333Y0163800D01*
X0205833Y0166300D01*
X0203333Y0168800D01*
X0203333Y0173800D01*
X0205833Y0176300D01*
X0203333Y0178800D01*
X0203333Y0183800D01*
X0205833Y0186300D01*
X0203333Y0188800D01*
X0203333Y0193800D01*
X0205833Y0196300D01*
X0203333Y0198800D01*
X0203333Y0203800D01*
X0205833Y0206300D01*
X0210833Y0206300D01*
X0213333Y0203800D01*
X0213333Y0198800D01*
X0210833Y0196300D01*
X0213333Y0193800D01*
X0213333Y0188800D01*
X0210833Y0186300D01*
X0205833Y0186300D01*
X0210833Y0186300D02*
X0213333Y0183800D01*
X0213333Y0178800D01*
X0210833Y0176300D01*
X0213333Y0173800D01*
X0213333Y0168800D01*
X0210833Y0166300D01*
X0213333Y0163800D01*
X0213333Y0158800D01*
X0210833Y0156300D01*
X0205833Y0156300D01*
X0210833Y0156300D02*
X0213333Y0153800D01*
X0213333Y0148800D01*
X0210833Y0146300D01*
X0213333Y0143800D01*
X0213333Y0138800D01*
X0210833Y0136300D01*
X0213333Y0133800D01*
X0213333Y0128800D01*
X0210833Y0126300D01*
X0205833Y0126300D01*
X0210833Y0126300D02*
X0213333Y0123800D01*
X0213333Y0118800D01*
X0210833Y0116300D01*
X0213333Y0113800D01*
X0213333Y0108800D01*
X0210833Y0106300D01*
X0213333Y0103800D01*
X0213333Y0098800D01*
X0210833Y0096300D01*
X0205833Y0096300D01*
X0210833Y0096300D02*
X0213333Y0093800D01*
X0213333Y0088800D01*
X0210833Y0086300D01*
X0213333Y0083800D01*
X0213333Y0078800D01*
X0210833Y0076300D01*
X0213333Y0073800D01*
X0213333Y0068800D01*
X0210833Y0066300D01*
X0205833Y0066300D01*
X0203333Y0068800D01*
X0205833Y0076300D02*
X0210833Y0076300D01*
X0210833Y0086300D02*
X0205833Y0086300D01*
X0205833Y0106300D02*
X0210833Y0106300D01*
X0210833Y0116300D02*
X0205833Y0116300D01*
X0187333Y0122300D02*
X0187333Y0123800D01*
X0186833Y0124300D01*
X0186833Y0138300D01*
X0187333Y0138800D01*
X0187333Y0140300D01*
X0187331Y0140360D01*
X0187326Y0140421D01*
X0187317Y0140480D01*
X0187304Y0140539D01*
X0187288Y0140598D01*
X0187268Y0140655D01*
X0187245Y0140710D01*
X0187218Y0140765D01*
X0187189Y0140817D01*
X0187156Y0140868D01*
X0187120Y0140917D01*
X0187082Y0140963D01*
X0187040Y0141007D01*
X0186996Y0141049D01*
X0186950Y0141087D01*
X0186901Y0141123D01*
X0186850Y0141156D01*
X0186798Y0141185D01*
X0186743Y0141212D01*
X0186688Y0141235D01*
X0186631Y0141255D01*
X0186572Y0141271D01*
X0186513Y0141284D01*
X0186454Y0141293D01*
X0186393Y0141298D01*
X0186333Y0141300D01*
X0180333Y0141300D01*
X0180273Y0141298D01*
X0180212Y0141293D01*
X0180153Y0141284D01*
X0180094Y0141271D01*
X0180035Y0141255D01*
X0179978Y0141235D01*
X0179923Y0141212D01*
X0179868Y0141185D01*
X0179816Y0141156D01*
X0179765Y0141123D01*
X0179716Y0141087D01*
X0179670Y0141049D01*
X0179626Y0141007D01*
X0179584Y0140963D01*
X0179546Y0140917D01*
X0179510Y0140868D01*
X0179477Y0140817D01*
X0179448Y0140765D01*
X0179421Y0140710D01*
X0179398Y0140655D01*
X0179378Y0140598D01*
X0179362Y0140539D01*
X0179349Y0140480D01*
X0179340Y0140421D01*
X0179335Y0140360D01*
X0179333Y0140300D01*
X0179333Y0138800D01*
X0179833Y0138300D01*
X0179833Y0124300D01*
X0179333Y0123800D01*
X0179333Y0122300D01*
X0179335Y0122240D01*
X0179340Y0122179D01*
X0179349Y0122120D01*
X0179362Y0122061D01*
X0179378Y0122002D01*
X0179398Y0121945D01*
X0179421Y0121890D01*
X0179448Y0121835D01*
X0179477Y0121783D01*
X0179510Y0121732D01*
X0179546Y0121683D01*
X0179584Y0121637D01*
X0179626Y0121593D01*
X0179670Y0121551D01*
X0179716Y0121513D01*
X0179765Y0121477D01*
X0179816Y0121444D01*
X0179868Y0121415D01*
X0179923Y0121388D01*
X0179978Y0121365D01*
X0180035Y0121345D01*
X0180094Y0121329D01*
X0180153Y0121316D01*
X0180212Y0121307D01*
X0180273Y0121302D01*
X0180333Y0121300D01*
X0186333Y0121300D01*
X0186393Y0121302D01*
X0186454Y0121307D01*
X0186513Y0121316D01*
X0186572Y0121329D01*
X0186631Y0121345D01*
X0186688Y0121365D01*
X0186743Y0121388D01*
X0186798Y0121415D01*
X0186850Y0121444D01*
X0186901Y0121477D01*
X0186950Y0121513D01*
X0186996Y0121551D01*
X0187040Y0121593D01*
X0187082Y0121637D01*
X0187120Y0121683D01*
X0187156Y0121732D01*
X0187189Y0121783D01*
X0187218Y0121835D01*
X0187245Y0121890D01*
X0187268Y0121945D01*
X0187288Y0122002D01*
X0187304Y0122061D01*
X0187317Y0122120D01*
X0187326Y0122179D01*
X0187331Y0122240D01*
X0187333Y0122300D01*
X0205833Y0136300D02*
X0210833Y0136300D01*
X0210833Y0146300D02*
X0205833Y0146300D01*
X0205833Y0166300D02*
X0210833Y0166300D01*
X0210833Y0176300D02*
X0205833Y0176300D01*
X0193333Y0174800D02*
X0193333Y0182300D01*
X0193207Y0182302D01*
X0193082Y0182308D01*
X0192957Y0182318D01*
X0192832Y0182332D01*
X0192707Y0182349D01*
X0192583Y0182371D01*
X0192460Y0182396D01*
X0192338Y0182426D01*
X0192217Y0182459D01*
X0192097Y0182496D01*
X0191978Y0182536D01*
X0191861Y0182581D01*
X0191744Y0182629D01*
X0191630Y0182681D01*
X0191517Y0182736D01*
X0191406Y0182795D01*
X0191297Y0182857D01*
X0191190Y0182923D01*
X0191085Y0182992D01*
X0190982Y0183064D01*
X0190881Y0183139D01*
X0190783Y0183218D01*
X0190688Y0183300D01*
X0190595Y0183384D01*
X0190505Y0183472D01*
X0190417Y0183562D01*
X0190333Y0183655D01*
X0190251Y0183750D01*
X0190172Y0183848D01*
X0190097Y0183949D01*
X0190025Y0184052D01*
X0189956Y0184157D01*
X0189890Y0184264D01*
X0189828Y0184373D01*
X0189769Y0184484D01*
X0189714Y0184597D01*
X0189662Y0184711D01*
X0189614Y0184828D01*
X0189569Y0184945D01*
X0189529Y0185064D01*
X0189492Y0185184D01*
X0189459Y0185305D01*
X0189429Y0185427D01*
X0189404Y0185550D01*
X0189382Y0185674D01*
X0189365Y0185799D01*
X0189351Y0185924D01*
X0189341Y0186049D01*
X0189335Y0186174D01*
X0189333Y0186300D01*
X0189335Y0186426D01*
X0189341Y0186551D01*
X0189351Y0186676D01*
X0189365Y0186801D01*
X0189382Y0186926D01*
X0189404Y0187050D01*
X0189429Y0187173D01*
X0189459Y0187295D01*
X0189492Y0187416D01*
X0189529Y0187536D01*
X0189569Y0187655D01*
X0189614Y0187772D01*
X0189662Y0187889D01*
X0189714Y0188003D01*
X0189769Y0188116D01*
X0189828Y0188227D01*
X0189890Y0188336D01*
X0189956Y0188443D01*
X0190025Y0188548D01*
X0190097Y0188651D01*
X0190172Y0188752D01*
X0190251Y0188850D01*
X0190333Y0188945D01*
X0190417Y0189038D01*
X0190505Y0189128D01*
X0190595Y0189216D01*
X0190688Y0189300D01*
X0190783Y0189382D01*
X0190881Y0189461D01*
X0190982Y0189536D01*
X0191085Y0189608D01*
X0191190Y0189677D01*
X0191297Y0189743D01*
X0191406Y0189805D01*
X0191517Y0189864D01*
X0191630Y0189919D01*
X0191744Y0189971D01*
X0191861Y0190019D01*
X0191978Y0190064D01*
X0192097Y0190104D01*
X0192217Y0190141D01*
X0192338Y0190174D01*
X0192460Y0190204D01*
X0192583Y0190229D01*
X0192707Y0190251D01*
X0192832Y0190268D01*
X0192957Y0190282D01*
X0193082Y0190292D01*
X0193207Y0190298D01*
X0193333Y0190300D01*
X0193333Y0197800D01*
X0123333Y0197800D01*
X0123333Y0174800D01*
X0193333Y0174800D01*
X0205833Y0196300D02*
X0210833Y0196300D01*
X0293333Y0193800D02*
X0293333Y0188800D01*
X0295833Y0186300D01*
X0300833Y0186300D01*
X0303333Y0188800D01*
X0303333Y0193800D01*
X0300833Y0196300D01*
X0295833Y0196300D01*
X0293333Y0193800D01*
X0295833Y0196300D02*
X0293333Y0198800D01*
X0293333Y0203800D01*
X0295833Y0206300D01*
X0300833Y0206300D01*
X0303333Y0203800D01*
X0303333Y0198800D01*
X0300833Y0196300D01*
X0300833Y0186300D02*
X0303333Y0183800D01*
X0303333Y0178800D01*
X0300833Y0176300D01*
X0303333Y0173800D01*
X0303333Y0168800D01*
X0300833Y0166300D01*
X0303333Y0163800D01*
X0303333Y0158800D01*
X0300833Y0156300D01*
X0295833Y0156300D01*
X0293333Y0158800D01*
X0293333Y0163800D01*
X0295833Y0166300D01*
X0293333Y0168800D01*
X0293333Y0173800D01*
X0295833Y0176300D01*
X0293333Y0178800D01*
X0293333Y0183800D01*
X0295833Y0186300D01*
X0295833Y0176300D02*
X0300833Y0176300D01*
X0300833Y0166300D02*
X0295833Y0166300D01*
X0295833Y0156300D02*
X0293333Y0153800D01*
X0293333Y0148800D01*
X0295833Y0146300D01*
X0293333Y0143800D01*
X0293333Y0138800D01*
X0295833Y0136300D01*
X0293333Y0133800D01*
X0293333Y0128800D01*
X0295833Y0126300D01*
X0300833Y0126300D01*
X0303333Y0128800D01*
X0303333Y0133800D01*
X0300833Y0136300D01*
X0295833Y0136300D01*
X0300833Y0136300D02*
X0303333Y0138800D01*
X0303333Y0143800D01*
X0300833Y0146300D01*
X0295833Y0146300D01*
X0300833Y0146300D02*
X0303333Y0148800D01*
X0303333Y0153800D01*
X0300833Y0156300D01*
X0300833Y0126300D02*
X0303333Y0123800D01*
X0303333Y0118800D01*
X0300833Y0116300D01*
X0303333Y0113800D01*
X0303333Y0108800D01*
X0300833Y0106300D01*
X0303333Y0103800D01*
X0303333Y0098800D01*
X0300833Y0096300D01*
X0295833Y0096300D01*
X0293333Y0098800D01*
X0293333Y0103800D01*
X0295833Y0106300D01*
X0293333Y0108800D01*
X0293333Y0113800D01*
X0295833Y0116300D01*
X0293333Y0118800D01*
X0293333Y0123800D01*
X0295833Y0126300D01*
X0295833Y0116300D02*
X0300833Y0116300D01*
X0300833Y0106300D02*
X0295833Y0106300D01*
X0295833Y0096300D02*
X0293333Y0093800D01*
X0293333Y0088800D01*
X0295833Y0086300D01*
X0293333Y0083800D01*
X0293333Y0078800D01*
X0295833Y0076300D01*
X0293333Y0073800D01*
X0293333Y0068800D01*
X0295833Y0066300D01*
X0300833Y0066300D01*
X0303333Y0068800D01*
X0303333Y0073800D01*
X0300833Y0076300D01*
X0295833Y0076300D01*
X0300833Y0076300D02*
X0303333Y0078800D01*
X0303333Y0083800D01*
X0300833Y0086300D01*
X0295833Y0086300D01*
X0300833Y0086300D02*
X0303333Y0088800D01*
X0303333Y0093800D01*
X0300833Y0096300D01*
X0208333Y0048800D02*
X0208333Y0043800D01*
X0205833Y0041300D01*
X0208333Y0038800D01*
X0208333Y0033800D01*
X0205833Y0031300D01*
X0200833Y0031300D01*
X0198333Y0033800D01*
X0198333Y0038800D01*
X0200833Y0041300D01*
X0198333Y0043800D01*
X0198333Y0048800D01*
X0200833Y0051300D01*
X0205833Y0051300D01*
X0208333Y0048800D01*
X0205833Y0041300D02*
X0200833Y0041300D01*
X0200833Y0031300D02*
X0198333Y0028800D01*
X0198333Y0023800D01*
X0200833Y0021300D01*
X0198333Y0018800D01*
X0198333Y0013800D01*
X0200833Y0011300D01*
X0205833Y0011300D01*
X0208333Y0013800D01*
X0208333Y0018800D01*
X0205833Y0021300D01*
X0200833Y0021300D01*
X0205833Y0021300D02*
X0208333Y0023800D01*
X0208333Y0028800D01*
X0205833Y0031300D01*
X0163333Y0028800D02*
X0163333Y0023800D01*
X0160833Y0021300D01*
X0163333Y0018800D01*
X0163333Y0013800D01*
X0160833Y0011300D01*
X0155833Y0011300D01*
X0153333Y0013800D01*
X0153333Y0018800D01*
X0155833Y0021300D01*
X0153333Y0023800D01*
X0153333Y0028800D01*
X0155833Y0031300D01*
X0160833Y0031300D01*
X0163333Y0028800D01*
X0160833Y0031300D02*
X0163333Y0033800D01*
X0163333Y0038800D01*
X0160833Y0041300D01*
X0163333Y0043800D01*
X0163333Y0048800D01*
X0160833Y0051300D01*
X0155833Y0051300D01*
X0153333Y0048800D01*
X0153333Y0043800D01*
X0155833Y0041300D01*
X0160833Y0041300D01*
X0155833Y0041300D02*
X0153333Y0038800D01*
X0153333Y0033800D01*
X0155833Y0031300D01*
X0155833Y0021300D02*
X0160833Y0021300D01*
X0138333Y0019300D02*
X0138333Y0013300D01*
X0138331Y0013240D01*
X0138326Y0013179D01*
X0138317Y0013120D01*
X0138304Y0013061D01*
X0138288Y0013002D01*
X0138268Y0012945D01*
X0138245Y0012890D01*
X0138218Y0012835D01*
X0138189Y0012783D01*
X0138156Y0012732D01*
X0138120Y0012683D01*
X0138082Y0012637D01*
X0138040Y0012593D01*
X0137996Y0012551D01*
X0137950Y0012513D01*
X0137901Y0012477D01*
X0137850Y0012444D01*
X0137798Y0012415D01*
X0137743Y0012388D01*
X0137688Y0012365D01*
X0137631Y0012345D01*
X0137572Y0012329D01*
X0137513Y0012316D01*
X0137454Y0012307D01*
X0137393Y0012302D01*
X0137333Y0012300D01*
X0135833Y0012300D01*
X0135333Y0012800D01*
X0121333Y0012800D01*
X0120833Y0012300D01*
X0119333Y0012300D01*
X0119273Y0012302D01*
X0119212Y0012307D01*
X0119153Y0012316D01*
X0119094Y0012329D01*
X0119035Y0012345D01*
X0118978Y0012365D01*
X0118923Y0012388D01*
X0118868Y0012415D01*
X0118816Y0012444D01*
X0118765Y0012477D01*
X0118716Y0012513D01*
X0118670Y0012551D01*
X0118626Y0012593D01*
X0118584Y0012637D01*
X0118546Y0012683D01*
X0118510Y0012732D01*
X0118477Y0012783D01*
X0118448Y0012835D01*
X0118421Y0012890D01*
X0118398Y0012945D01*
X0118378Y0013002D01*
X0118362Y0013061D01*
X0118349Y0013120D01*
X0118340Y0013179D01*
X0118335Y0013240D01*
X0118333Y0013300D01*
X0118333Y0019300D01*
X0118335Y0019360D01*
X0118340Y0019421D01*
X0118349Y0019480D01*
X0118362Y0019539D01*
X0118378Y0019598D01*
X0118398Y0019655D01*
X0118421Y0019710D01*
X0118448Y0019765D01*
X0118477Y0019817D01*
X0118510Y0019868D01*
X0118546Y0019917D01*
X0118584Y0019963D01*
X0118626Y0020007D01*
X0118670Y0020049D01*
X0118716Y0020087D01*
X0118765Y0020123D01*
X0118816Y0020156D01*
X0118868Y0020185D01*
X0118923Y0020212D01*
X0118978Y0020235D01*
X0119035Y0020255D01*
X0119094Y0020271D01*
X0119153Y0020284D01*
X0119212Y0020293D01*
X0119273Y0020298D01*
X0119333Y0020300D01*
X0120833Y0020300D01*
X0121333Y0019800D01*
X0135333Y0019800D01*
X0135833Y0020300D01*
X0137333Y0020300D01*
X0137393Y0020298D01*
X0137454Y0020293D01*
X0137513Y0020284D01*
X0137572Y0020271D01*
X0137631Y0020255D01*
X0137688Y0020235D01*
X0137743Y0020212D01*
X0137798Y0020185D01*
X0137850Y0020156D01*
X0137901Y0020123D01*
X0137950Y0020087D01*
X0137996Y0020049D01*
X0138040Y0020007D01*
X0138082Y0019963D01*
X0138120Y0019917D01*
X0138156Y0019868D01*
X0138189Y0019817D01*
X0138218Y0019765D01*
X0138245Y0019710D01*
X0138268Y0019655D01*
X0138288Y0019598D01*
X0138304Y0019539D01*
X0138317Y0019480D01*
X0138326Y0019421D01*
X0138331Y0019360D01*
X0138333Y0019300D01*
X0137333Y0032300D02*
X0135833Y0032300D01*
X0135333Y0032800D01*
X0121333Y0032800D01*
X0120833Y0032300D01*
X0119333Y0032300D01*
X0119273Y0032302D01*
X0119212Y0032307D01*
X0119153Y0032316D01*
X0119094Y0032329D01*
X0119035Y0032345D01*
X0118978Y0032365D01*
X0118923Y0032388D01*
X0118868Y0032415D01*
X0118816Y0032444D01*
X0118765Y0032477D01*
X0118716Y0032513D01*
X0118670Y0032551D01*
X0118626Y0032593D01*
X0118584Y0032637D01*
X0118546Y0032683D01*
X0118510Y0032732D01*
X0118477Y0032783D01*
X0118448Y0032835D01*
X0118421Y0032890D01*
X0118398Y0032945D01*
X0118378Y0033002D01*
X0118362Y0033061D01*
X0118349Y0033120D01*
X0118340Y0033179D01*
X0118335Y0033240D01*
X0118333Y0033300D01*
X0118333Y0039300D01*
X0118335Y0039360D01*
X0118340Y0039421D01*
X0118349Y0039480D01*
X0118362Y0039539D01*
X0118378Y0039598D01*
X0118398Y0039655D01*
X0118421Y0039710D01*
X0118448Y0039765D01*
X0118477Y0039817D01*
X0118510Y0039868D01*
X0118546Y0039917D01*
X0118584Y0039963D01*
X0118626Y0040007D01*
X0118670Y0040049D01*
X0118716Y0040087D01*
X0118765Y0040123D01*
X0118816Y0040156D01*
X0118868Y0040185D01*
X0118923Y0040212D01*
X0118978Y0040235D01*
X0119035Y0040255D01*
X0119094Y0040271D01*
X0119153Y0040284D01*
X0119212Y0040293D01*
X0119273Y0040298D01*
X0119333Y0040300D01*
X0120833Y0040300D01*
X0121333Y0039800D01*
X0135333Y0039800D01*
X0135833Y0040300D01*
X0137333Y0040300D01*
X0137393Y0040298D01*
X0137454Y0040293D01*
X0137513Y0040284D01*
X0137572Y0040271D01*
X0137631Y0040255D01*
X0137688Y0040235D01*
X0137743Y0040212D01*
X0137798Y0040185D01*
X0137850Y0040156D01*
X0137901Y0040123D01*
X0137950Y0040087D01*
X0137996Y0040049D01*
X0138040Y0040007D01*
X0138082Y0039963D01*
X0138120Y0039917D01*
X0138156Y0039868D01*
X0138189Y0039817D01*
X0138218Y0039765D01*
X0138245Y0039710D01*
X0138268Y0039655D01*
X0138288Y0039598D01*
X0138304Y0039539D01*
X0138317Y0039480D01*
X0138326Y0039421D01*
X0138331Y0039360D01*
X0138333Y0039300D01*
X0138333Y0033300D01*
X0138331Y0033240D01*
X0138326Y0033179D01*
X0138317Y0033120D01*
X0138304Y0033061D01*
X0138288Y0033002D01*
X0138268Y0032945D01*
X0138245Y0032890D01*
X0138218Y0032835D01*
X0138189Y0032783D01*
X0138156Y0032732D01*
X0138120Y0032683D01*
X0138082Y0032637D01*
X0138040Y0032593D01*
X0137996Y0032551D01*
X0137950Y0032513D01*
X0137901Y0032477D01*
X0137850Y0032444D01*
X0137798Y0032415D01*
X0137743Y0032388D01*
X0137688Y0032365D01*
X0137631Y0032345D01*
X0137572Y0032329D01*
X0137513Y0032316D01*
X0137454Y0032307D01*
X0137393Y0032302D01*
X0137333Y0032300D01*
X0110833Y0161300D02*
X0105833Y0161300D01*
X0103333Y0163800D01*
X0103333Y0168800D01*
X0105833Y0171300D01*
X0103333Y0173800D01*
X0103333Y0178800D01*
X0105833Y0181300D01*
X0110833Y0181300D01*
X0113333Y0178800D01*
X0113333Y0173800D01*
X0110833Y0171300D01*
X0113333Y0168800D01*
X0113333Y0163800D01*
X0110833Y0161300D01*
X0110833Y0171300D02*
X0105833Y0171300D01*
D13*
X0099633Y0171879D02*
X0099383Y0171879D01*
X0099323Y0171877D01*
X0099262Y0171872D01*
X0099203Y0171863D01*
X0099144Y0171850D01*
X0099085Y0171834D01*
X0099028Y0171814D01*
X0098973Y0171791D01*
X0098918Y0171764D01*
X0098866Y0171735D01*
X0098815Y0171702D01*
X0098766Y0171666D01*
X0098720Y0171628D01*
X0098676Y0171586D01*
X0098634Y0171542D01*
X0098596Y0171496D01*
X0098560Y0171447D01*
X0098527Y0171396D01*
X0098498Y0171344D01*
X0098471Y0171289D01*
X0098448Y0171234D01*
X0098428Y0171177D01*
X0098412Y0171118D01*
X0098399Y0171059D01*
X0098390Y0171000D01*
X0098385Y0170939D01*
X0098383Y0170879D01*
X0098383Y0169379D01*
X0099633Y0169379D01*
X0099702Y0169381D01*
X0099771Y0169387D01*
X0099839Y0169396D01*
X0099906Y0169409D01*
X0099973Y0169426D01*
X0100039Y0169447D01*
X0100103Y0169471D01*
X0100166Y0169499D01*
X0100228Y0169530D01*
X0100288Y0169564D01*
X0100345Y0169602D01*
X0100401Y0169643D01*
X0100454Y0169686D01*
X0100505Y0169733D01*
X0100553Y0169782D01*
X0100598Y0169834D01*
X0100640Y0169889D01*
X0100679Y0169945D01*
X0100716Y0170004D01*
X0100748Y0170065D01*
X0100778Y0170127D01*
X0100804Y0170191D01*
X0100826Y0170256D01*
X0100845Y0170322D01*
X0100860Y0170389D01*
X0100871Y0170457D01*
X0100879Y0170526D01*
X0100883Y0170595D01*
X0100883Y0170663D01*
X0100879Y0170732D01*
X0100871Y0170801D01*
X0100860Y0170869D01*
X0100845Y0170936D01*
X0100826Y0171002D01*
X0100804Y0171067D01*
X0100778Y0171131D01*
X0100748Y0171193D01*
X0100716Y0171254D01*
X0100679Y0171313D01*
X0100640Y0171369D01*
X0100598Y0171424D01*
X0100553Y0171476D01*
X0100505Y0171525D01*
X0100454Y0171572D01*
X0100401Y0171615D01*
X0100345Y0171656D01*
X0100288Y0171694D01*
X0100228Y0171728D01*
X0100166Y0171759D01*
X0100103Y0171787D01*
X0100039Y0171811D01*
X0099973Y0171832D01*
X0099906Y0171849D01*
X0099839Y0171862D01*
X0099771Y0171871D01*
X0099702Y0171877D01*
X0099633Y0171879D01*
X0098383Y0169379D02*
X0098296Y0169381D01*
X0098209Y0169387D01*
X0098122Y0169396D01*
X0098036Y0169409D01*
X0097950Y0169426D01*
X0097865Y0169447D01*
X0097782Y0169472D01*
X0097699Y0169500D01*
X0097618Y0169531D01*
X0097538Y0169566D01*
X0097460Y0169605D01*
X0097383Y0169647D01*
X0097308Y0169692D01*
X0097236Y0169741D01*
X0097165Y0169792D01*
X0097097Y0169847D01*
X0097032Y0169904D01*
X0096969Y0169965D01*
X0096908Y0170028D01*
X0096851Y0170093D01*
X0096796Y0170161D01*
X0096745Y0170232D01*
X0096696Y0170304D01*
X0096651Y0170379D01*
X0096609Y0170456D01*
X0096570Y0170534D01*
X0096535Y0170614D01*
X0096504Y0170695D01*
X0096476Y0170778D01*
X0096451Y0170861D01*
X0096430Y0170946D01*
X0096413Y0171032D01*
X0096400Y0171118D01*
X0096391Y0171205D01*
X0096385Y0171292D01*
X0096383Y0171379D01*
X0096383Y0166354D02*
X0096383Y0165104D01*
X0100883Y0165104D01*
X0098883Y0165104D02*
X0098883Y0166354D01*
X0098881Y0166423D01*
X0098875Y0166492D01*
X0098866Y0166560D01*
X0098853Y0166627D01*
X0098836Y0166694D01*
X0098815Y0166760D01*
X0098791Y0166824D01*
X0098763Y0166887D01*
X0098732Y0166949D01*
X0098698Y0167009D01*
X0098660Y0167066D01*
X0098619Y0167122D01*
X0098576Y0167175D01*
X0098529Y0167226D01*
X0098480Y0167274D01*
X0098428Y0167319D01*
X0098373Y0167361D01*
X0098317Y0167400D01*
X0098258Y0167437D01*
X0098197Y0167469D01*
X0098135Y0167499D01*
X0098071Y0167525D01*
X0098006Y0167547D01*
X0097940Y0167566D01*
X0097873Y0167581D01*
X0097805Y0167592D01*
X0097736Y0167600D01*
X0097667Y0167604D01*
X0097599Y0167604D01*
X0097530Y0167600D01*
X0097461Y0167592D01*
X0097393Y0167581D01*
X0097326Y0167566D01*
X0097260Y0167547D01*
X0097195Y0167525D01*
X0097131Y0167499D01*
X0097069Y0167469D01*
X0097008Y0167437D01*
X0096949Y0167400D01*
X0096893Y0167361D01*
X0096838Y0167319D01*
X0096786Y0167274D01*
X0096737Y0167226D01*
X0096690Y0167175D01*
X0096647Y0167122D01*
X0096606Y0167066D01*
X0096568Y0167009D01*
X0096534Y0166949D01*
X0096503Y0166887D01*
X0096475Y0166824D01*
X0096451Y0166760D01*
X0096430Y0166694D01*
X0096413Y0166627D01*
X0096400Y0166560D01*
X0096391Y0166492D01*
X0096385Y0166423D01*
X0096383Y0166354D01*
X0096383Y0162750D02*
X0099883Y0162750D01*
X0099943Y0162748D01*
X0100004Y0162743D01*
X0100063Y0162734D01*
X0100122Y0162721D01*
X0100181Y0162705D01*
X0100238Y0162685D01*
X0100293Y0162662D01*
X0100348Y0162635D01*
X0100400Y0162606D01*
X0100451Y0162573D01*
X0100500Y0162537D01*
X0100546Y0162499D01*
X0100590Y0162457D01*
X0100632Y0162413D01*
X0100670Y0162367D01*
X0100706Y0162318D01*
X0100739Y0162267D01*
X0100768Y0162215D01*
X0100795Y0162160D01*
X0100818Y0162105D01*
X0100838Y0162048D01*
X0100854Y0161989D01*
X0100867Y0161930D01*
X0100876Y0161871D01*
X0100881Y0161810D01*
X0100883Y0161750D01*
X0100883Y0161250D01*
X0099633Y0126879D02*
X0099702Y0126877D01*
X0099771Y0126871D01*
X0099839Y0126862D01*
X0099906Y0126849D01*
X0099973Y0126832D01*
X0100039Y0126811D01*
X0100103Y0126787D01*
X0100166Y0126759D01*
X0100228Y0126728D01*
X0100288Y0126694D01*
X0100345Y0126656D01*
X0100401Y0126615D01*
X0100454Y0126572D01*
X0100505Y0126525D01*
X0100553Y0126476D01*
X0100598Y0126424D01*
X0100640Y0126369D01*
X0100679Y0126313D01*
X0100716Y0126254D01*
X0100748Y0126193D01*
X0100778Y0126131D01*
X0100804Y0126067D01*
X0100826Y0126002D01*
X0100845Y0125936D01*
X0100860Y0125869D01*
X0100871Y0125801D01*
X0100879Y0125732D01*
X0100883Y0125663D01*
X0100883Y0125595D01*
X0100879Y0125526D01*
X0100871Y0125457D01*
X0100860Y0125389D01*
X0100845Y0125322D01*
X0100826Y0125256D01*
X0100804Y0125191D01*
X0100778Y0125127D01*
X0100748Y0125065D01*
X0100716Y0125004D01*
X0100679Y0124945D01*
X0100640Y0124889D01*
X0100598Y0124834D01*
X0100553Y0124782D01*
X0100505Y0124733D01*
X0100454Y0124686D01*
X0100401Y0124643D01*
X0100345Y0124602D01*
X0100288Y0124564D01*
X0100228Y0124530D01*
X0100166Y0124499D01*
X0100103Y0124471D01*
X0100039Y0124447D01*
X0099973Y0124426D01*
X0099906Y0124409D01*
X0099839Y0124396D01*
X0099771Y0124387D01*
X0099702Y0124381D01*
X0099633Y0124379D01*
X0099564Y0124381D01*
X0099495Y0124387D01*
X0099427Y0124396D01*
X0099360Y0124409D01*
X0099293Y0124426D01*
X0099227Y0124447D01*
X0099163Y0124471D01*
X0099100Y0124499D01*
X0099038Y0124530D01*
X0098978Y0124564D01*
X0098921Y0124602D01*
X0098865Y0124643D01*
X0098812Y0124686D01*
X0098761Y0124733D01*
X0098713Y0124782D01*
X0098668Y0124834D01*
X0098626Y0124889D01*
X0098587Y0124945D01*
X0098550Y0125004D01*
X0098518Y0125065D01*
X0098488Y0125127D01*
X0098462Y0125191D01*
X0098440Y0125256D01*
X0098421Y0125322D01*
X0098406Y0125389D01*
X0098395Y0125457D01*
X0098387Y0125526D01*
X0098383Y0125595D01*
X0098383Y0125663D01*
X0098387Y0125732D01*
X0098395Y0125801D01*
X0098406Y0125869D01*
X0098421Y0125936D01*
X0098440Y0126002D01*
X0098462Y0126067D01*
X0098488Y0126131D01*
X0098518Y0126193D01*
X0098550Y0126254D01*
X0098587Y0126313D01*
X0098626Y0126369D01*
X0098668Y0126424D01*
X0098713Y0126476D01*
X0098761Y0126525D01*
X0098812Y0126572D01*
X0098865Y0126615D01*
X0098921Y0126656D01*
X0098978Y0126694D01*
X0099038Y0126728D01*
X0099100Y0126759D01*
X0099163Y0126787D01*
X0099227Y0126811D01*
X0099293Y0126832D01*
X0099360Y0126849D01*
X0099427Y0126862D01*
X0099495Y0126871D01*
X0099564Y0126877D01*
X0099633Y0126879D01*
X0097383Y0126629D02*
X0097445Y0126627D01*
X0097506Y0126621D01*
X0097567Y0126612D01*
X0097627Y0126599D01*
X0097686Y0126582D01*
X0097744Y0126561D01*
X0097801Y0126537D01*
X0097856Y0126510D01*
X0097909Y0126479D01*
X0097961Y0126445D01*
X0098010Y0126408D01*
X0098057Y0126368D01*
X0098101Y0126325D01*
X0098142Y0126280D01*
X0098181Y0126232D01*
X0098217Y0126181D01*
X0098249Y0126129D01*
X0098278Y0126075D01*
X0098304Y0126019D01*
X0098326Y0125961D01*
X0098345Y0125903D01*
X0098360Y0125843D01*
X0098371Y0125782D01*
X0098379Y0125721D01*
X0098383Y0125660D01*
X0098383Y0125598D01*
X0098379Y0125537D01*
X0098371Y0125476D01*
X0098360Y0125415D01*
X0098345Y0125355D01*
X0098326Y0125297D01*
X0098304Y0125239D01*
X0098278Y0125183D01*
X0098249Y0125129D01*
X0098217Y0125077D01*
X0098181Y0125026D01*
X0098142Y0124978D01*
X0098101Y0124933D01*
X0098057Y0124890D01*
X0098010Y0124850D01*
X0097961Y0124813D01*
X0097909Y0124779D01*
X0097856Y0124748D01*
X0097801Y0124721D01*
X0097744Y0124697D01*
X0097686Y0124676D01*
X0097627Y0124659D01*
X0097567Y0124646D01*
X0097506Y0124637D01*
X0097445Y0124631D01*
X0097383Y0124629D01*
X0097321Y0124631D01*
X0097260Y0124637D01*
X0097199Y0124646D01*
X0097139Y0124659D01*
X0097080Y0124676D01*
X0097022Y0124697D01*
X0096965Y0124721D01*
X0096910Y0124748D01*
X0096857Y0124779D01*
X0096805Y0124813D01*
X0096756Y0124850D01*
X0096709Y0124890D01*
X0096665Y0124933D01*
X0096624Y0124978D01*
X0096585Y0125026D01*
X0096549Y0125077D01*
X0096517Y0125129D01*
X0096488Y0125183D01*
X0096462Y0125239D01*
X0096440Y0125297D01*
X0096421Y0125355D01*
X0096406Y0125415D01*
X0096395Y0125476D01*
X0096387Y0125537D01*
X0096383Y0125598D01*
X0096383Y0125660D01*
X0096387Y0125721D01*
X0096395Y0125782D01*
X0096406Y0125843D01*
X0096421Y0125903D01*
X0096440Y0125961D01*
X0096462Y0126019D01*
X0096488Y0126075D01*
X0096517Y0126129D01*
X0096549Y0126181D01*
X0096585Y0126232D01*
X0096624Y0126280D01*
X0096665Y0126325D01*
X0096709Y0126368D01*
X0096756Y0126408D01*
X0096805Y0126445D01*
X0096857Y0126479D01*
X0096910Y0126510D01*
X0096965Y0126537D01*
X0097022Y0126561D01*
X0097080Y0126582D01*
X0097139Y0126599D01*
X0097199Y0126612D01*
X0097260Y0126621D01*
X0097321Y0126627D01*
X0097383Y0126629D01*
X0096383Y0121354D02*
X0096385Y0121423D01*
X0096391Y0121492D01*
X0096400Y0121560D01*
X0096413Y0121627D01*
X0096430Y0121694D01*
X0096451Y0121760D01*
X0096475Y0121824D01*
X0096503Y0121887D01*
X0096534Y0121949D01*
X0096568Y0122009D01*
X0096606Y0122066D01*
X0096647Y0122122D01*
X0096690Y0122175D01*
X0096737Y0122226D01*
X0096786Y0122274D01*
X0096838Y0122319D01*
X0096893Y0122361D01*
X0096949Y0122400D01*
X0097008Y0122437D01*
X0097069Y0122469D01*
X0097131Y0122499D01*
X0097195Y0122525D01*
X0097260Y0122547D01*
X0097326Y0122566D01*
X0097393Y0122581D01*
X0097461Y0122592D01*
X0097530Y0122600D01*
X0097599Y0122604D01*
X0097667Y0122604D01*
X0097736Y0122600D01*
X0097805Y0122592D01*
X0097873Y0122581D01*
X0097940Y0122566D01*
X0098006Y0122547D01*
X0098071Y0122525D01*
X0098135Y0122499D01*
X0098197Y0122469D01*
X0098258Y0122437D01*
X0098317Y0122400D01*
X0098373Y0122361D01*
X0098428Y0122319D01*
X0098480Y0122274D01*
X0098529Y0122226D01*
X0098576Y0122175D01*
X0098619Y0122122D01*
X0098660Y0122066D01*
X0098698Y0122009D01*
X0098732Y0121949D01*
X0098763Y0121887D01*
X0098791Y0121824D01*
X0098815Y0121760D01*
X0098836Y0121694D01*
X0098853Y0121627D01*
X0098866Y0121560D01*
X0098875Y0121492D01*
X0098881Y0121423D01*
X0098883Y0121354D01*
X0098883Y0120104D01*
X0100883Y0120104D02*
X0096383Y0120104D01*
X0096383Y0121354D01*
X0096383Y0117750D02*
X0099883Y0117750D01*
X0099943Y0117748D01*
X0100004Y0117743D01*
X0100063Y0117734D01*
X0100122Y0117721D01*
X0100181Y0117705D01*
X0100238Y0117685D01*
X0100293Y0117662D01*
X0100348Y0117635D01*
X0100400Y0117606D01*
X0100451Y0117573D01*
X0100500Y0117537D01*
X0100546Y0117499D01*
X0100590Y0117457D01*
X0100632Y0117413D01*
X0100670Y0117367D01*
X0100706Y0117318D01*
X0100739Y0117267D01*
X0100768Y0117215D01*
X0100795Y0117160D01*
X0100818Y0117105D01*
X0100838Y0117048D01*
X0100854Y0116989D01*
X0100867Y0116930D01*
X0100876Y0116871D01*
X0100881Y0116810D01*
X0100883Y0116750D01*
X0100883Y0116250D01*
X0128083Y0118550D02*
X0128083Y0119550D01*
X0128083Y0118550D02*
X0128085Y0118490D01*
X0128090Y0118429D01*
X0128099Y0118370D01*
X0128112Y0118311D01*
X0128128Y0118252D01*
X0128148Y0118195D01*
X0128171Y0118140D01*
X0128198Y0118085D01*
X0128227Y0118033D01*
X0128260Y0117982D01*
X0128296Y0117933D01*
X0128334Y0117887D01*
X0128376Y0117843D01*
X0128420Y0117801D01*
X0128466Y0117763D01*
X0128515Y0117727D01*
X0128566Y0117694D01*
X0128618Y0117665D01*
X0128673Y0117638D01*
X0128728Y0117615D01*
X0128785Y0117595D01*
X0128844Y0117579D01*
X0128903Y0117566D01*
X0128962Y0117557D01*
X0129023Y0117552D01*
X0129083Y0117550D01*
X0131583Y0117550D01*
X0131643Y0117552D01*
X0131704Y0117557D01*
X0131763Y0117566D01*
X0131822Y0117579D01*
X0131881Y0117595D01*
X0131938Y0117615D01*
X0131993Y0117638D01*
X0132048Y0117665D01*
X0132100Y0117694D01*
X0132151Y0117727D01*
X0132200Y0117763D01*
X0132246Y0117801D01*
X0132290Y0117843D01*
X0132332Y0117887D01*
X0132370Y0117933D01*
X0132406Y0117982D01*
X0132439Y0118033D01*
X0132468Y0118085D01*
X0132495Y0118140D01*
X0132518Y0118195D01*
X0132538Y0118252D01*
X0132554Y0118311D01*
X0132567Y0118370D01*
X0132576Y0118429D01*
X0132581Y0118490D01*
X0132583Y0118550D01*
X0132583Y0119550D01*
X0132583Y0121315D02*
X0132583Y0123815D01*
X0132583Y0121315D02*
X0130083Y0123440D01*
X0128084Y0122690D02*
X0128086Y0122617D01*
X0128091Y0122545D01*
X0128100Y0122473D01*
X0128113Y0122401D01*
X0128129Y0122330D01*
X0128149Y0122260D01*
X0128173Y0122192D01*
X0128199Y0122124D01*
X0128230Y0122058D01*
X0128263Y0121993D01*
X0128300Y0121931D01*
X0128339Y0121870D01*
X0128382Y0121811D01*
X0128428Y0121754D01*
X0128476Y0121700D01*
X0128527Y0121649D01*
X0128581Y0121599D01*
X0128637Y0121553D01*
X0128695Y0121510D01*
X0128756Y0121469D01*
X0128818Y0121432D01*
X0128882Y0121398D01*
X0128948Y0121367D01*
X0129015Y0121339D01*
X0129084Y0121315D01*
X0130083Y0123439D02*
X0130037Y0123485D01*
X0129988Y0123529D01*
X0129937Y0123569D01*
X0129884Y0123607D01*
X0129829Y0123642D01*
X0129772Y0123674D01*
X0129714Y0123703D01*
X0129654Y0123729D01*
X0129592Y0123751D01*
X0129530Y0123770D01*
X0129467Y0123786D01*
X0129403Y0123798D01*
X0129338Y0123807D01*
X0129273Y0123812D01*
X0129208Y0123814D01*
X0129208Y0123815D02*
X0129143Y0123813D01*
X0129077Y0123807D01*
X0129013Y0123798D01*
X0128949Y0123785D01*
X0128885Y0123768D01*
X0128823Y0123747D01*
X0128762Y0123723D01*
X0128703Y0123695D01*
X0128646Y0123664D01*
X0128590Y0123630D01*
X0128536Y0123592D01*
X0128485Y0123552D01*
X0128436Y0123508D01*
X0128390Y0123462D01*
X0128346Y0123413D01*
X0128306Y0123362D01*
X0128268Y0123308D01*
X0128234Y0123253D01*
X0128203Y0123195D01*
X0128175Y0123136D01*
X0128151Y0123075D01*
X0128130Y0123013D01*
X0128113Y0122949D01*
X0128100Y0122885D01*
X0128091Y0122821D01*
X0128085Y0122755D01*
X0128083Y0122690D01*
X0146383Y0070879D02*
X0146383Y0069379D01*
X0146383Y0070879D02*
X0146385Y0070941D01*
X0146391Y0071002D01*
X0146400Y0071063D01*
X0146413Y0071123D01*
X0146430Y0071182D01*
X0146451Y0071240D01*
X0146475Y0071297D01*
X0146502Y0071352D01*
X0146533Y0071405D01*
X0146567Y0071457D01*
X0146604Y0071506D01*
X0146644Y0071553D01*
X0146687Y0071597D01*
X0146732Y0071638D01*
X0146780Y0071677D01*
X0146831Y0071713D01*
X0146883Y0071745D01*
X0146937Y0071774D01*
X0146993Y0071800D01*
X0147051Y0071822D01*
X0147109Y0071841D01*
X0147169Y0071856D01*
X0147230Y0071867D01*
X0147291Y0071875D01*
X0147352Y0071879D01*
X0147414Y0071879D01*
X0147475Y0071875D01*
X0147536Y0071867D01*
X0147597Y0071856D01*
X0147657Y0071841D01*
X0147715Y0071822D01*
X0147773Y0071800D01*
X0147829Y0071774D01*
X0147883Y0071745D01*
X0147935Y0071713D01*
X0147986Y0071677D01*
X0148034Y0071638D01*
X0148079Y0071597D01*
X0148122Y0071553D01*
X0148162Y0071506D01*
X0148199Y0071457D01*
X0148233Y0071405D01*
X0148264Y0071352D01*
X0148291Y0071297D01*
X0148315Y0071240D01*
X0148336Y0071182D01*
X0148353Y0071123D01*
X0148366Y0071063D01*
X0148375Y0071002D01*
X0148381Y0070941D01*
X0148383Y0070879D01*
X0148383Y0069879D01*
X0148383Y0070629D02*
X0148385Y0070698D01*
X0148391Y0070767D01*
X0148400Y0070835D01*
X0148413Y0070902D01*
X0148430Y0070969D01*
X0148451Y0071035D01*
X0148475Y0071099D01*
X0148503Y0071162D01*
X0148534Y0071224D01*
X0148568Y0071284D01*
X0148606Y0071341D01*
X0148647Y0071397D01*
X0148690Y0071450D01*
X0148737Y0071501D01*
X0148786Y0071549D01*
X0148838Y0071594D01*
X0148893Y0071636D01*
X0148949Y0071675D01*
X0149008Y0071712D01*
X0149069Y0071744D01*
X0149131Y0071774D01*
X0149195Y0071800D01*
X0149260Y0071822D01*
X0149326Y0071841D01*
X0149393Y0071856D01*
X0149461Y0071867D01*
X0149530Y0071875D01*
X0149599Y0071879D01*
X0149667Y0071879D01*
X0149736Y0071875D01*
X0149805Y0071867D01*
X0149873Y0071856D01*
X0149940Y0071841D01*
X0150006Y0071822D01*
X0150071Y0071800D01*
X0150135Y0071774D01*
X0150197Y0071744D01*
X0150258Y0071712D01*
X0150317Y0071675D01*
X0150373Y0071636D01*
X0150428Y0071594D01*
X0150480Y0071549D01*
X0150529Y0071501D01*
X0150576Y0071450D01*
X0150619Y0071397D01*
X0150660Y0071341D01*
X0150698Y0071284D01*
X0150732Y0071224D01*
X0150763Y0071162D01*
X0150791Y0071099D01*
X0150815Y0071035D01*
X0150836Y0070969D01*
X0150853Y0070902D01*
X0150866Y0070835D01*
X0150875Y0070767D01*
X0150881Y0070698D01*
X0150883Y0070629D01*
X0150883Y0069379D01*
X0148883Y0066354D02*
X0148883Y0065104D01*
X0148883Y0066354D02*
X0148881Y0066423D01*
X0148875Y0066492D01*
X0148866Y0066560D01*
X0148853Y0066627D01*
X0148836Y0066694D01*
X0148815Y0066760D01*
X0148791Y0066824D01*
X0148763Y0066887D01*
X0148732Y0066949D01*
X0148698Y0067009D01*
X0148660Y0067066D01*
X0148619Y0067122D01*
X0148576Y0067175D01*
X0148529Y0067226D01*
X0148480Y0067274D01*
X0148428Y0067319D01*
X0148373Y0067361D01*
X0148317Y0067400D01*
X0148258Y0067437D01*
X0148197Y0067469D01*
X0148135Y0067499D01*
X0148071Y0067525D01*
X0148006Y0067547D01*
X0147940Y0067566D01*
X0147873Y0067581D01*
X0147805Y0067592D01*
X0147736Y0067600D01*
X0147667Y0067604D01*
X0147599Y0067604D01*
X0147530Y0067600D01*
X0147461Y0067592D01*
X0147393Y0067581D01*
X0147326Y0067566D01*
X0147260Y0067547D01*
X0147195Y0067525D01*
X0147131Y0067499D01*
X0147069Y0067469D01*
X0147008Y0067437D01*
X0146949Y0067400D01*
X0146893Y0067361D01*
X0146838Y0067319D01*
X0146786Y0067274D01*
X0146737Y0067226D01*
X0146690Y0067175D01*
X0146647Y0067122D01*
X0146606Y0067066D01*
X0146568Y0067009D01*
X0146534Y0066949D01*
X0146503Y0066887D01*
X0146475Y0066824D01*
X0146451Y0066760D01*
X0146430Y0066694D01*
X0146413Y0066627D01*
X0146400Y0066560D01*
X0146391Y0066492D01*
X0146385Y0066423D01*
X0146383Y0066354D01*
X0146383Y0065104D01*
X0150883Y0065104D01*
X0149883Y0062750D02*
X0146383Y0062750D01*
X0149883Y0062750D02*
X0149943Y0062748D01*
X0150004Y0062743D01*
X0150063Y0062734D01*
X0150122Y0062721D01*
X0150181Y0062705D01*
X0150238Y0062685D01*
X0150293Y0062662D01*
X0150348Y0062635D01*
X0150400Y0062606D01*
X0150451Y0062573D01*
X0150500Y0062537D01*
X0150546Y0062499D01*
X0150590Y0062457D01*
X0150632Y0062413D01*
X0150670Y0062367D01*
X0150706Y0062318D01*
X0150739Y0062267D01*
X0150768Y0062215D01*
X0150795Y0062160D01*
X0150818Y0062105D01*
X0150838Y0062048D01*
X0150854Y0061989D01*
X0150867Y0061930D01*
X0150876Y0061871D01*
X0150881Y0061810D01*
X0150883Y0061750D01*
X0150883Y0061250D01*
X0149883Y0021879D02*
X0149883Y0019379D01*
X0146383Y0020379D01*
X0148883Y0021129D02*
X0150883Y0021129D01*
X0148883Y0016354D02*
X0148883Y0015104D01*
X0148883Y0016354D02*
X0148881Y0016423D01*
X0148875Y0016492D01*
X0148866Y0016560D01*
X0148853Y0016627D01*
X0148836Y0016694D01*
X0148815Y0016760D01*
X0148791Y0016824D01*
X0148763Y0016887D01*
X0148732Y0016949D01*
X0148698Y0017009D01*
X0148660Y0017066D01*
X0148619Y0017122D01*
X0148576Y0017175D01*
X0148529Y0017226D01*
X0148480Y0017274D01*
X0148428Y0017319D01*
X0148373Y0017361D01*
X0148317Y0017400D01*
X0148258Y0017437D01*
X0148197Y0017469D01*
X0148135Y0017499D01*
X0148071Y0017525D01*
X0148006Y0017547D01*
X0147940Y0017566D01*
X0147873Y0017581D01*
X0147805Y0017592D01*
X0147736Y0017600D01*
X0147667Y0017604D01*
X0147599Y0017604D01*
X0147530Y0017600D01*
X0147461Y0017592D01*
X0147393Y0017581D01*
X0147326Y0017566D01*
X0147260Y0017547D01*
X0147195Y0017525D01*
X0147131Y0017499D01*
X0147069Y0017469D01*
X0147008Y0017437D01*
X0146949Y0017400D01*
X0146893Y0017361D01*
X0146838Y0017319D01*
X0146786Y0017274D01*
X0146737Y0017226D01*
X0146690Y0017175D01*
X0146647Y0017122D01*
X0146606Y0017066D01*
X0146568Y0017009D01*
X0146534Y0016949D01*
X0146503Y0016887D01*
X0146475Y0016824D01*
X0146451Y0016760D01*
X0146430Y0016694D01*
X0146413Y0016627D01*
X0146400Y0016560D01*
X0146391Y0016492D01*
X0146385Y0016423D01*
X0146383Y0016354D01*
X0146383Y0015104D01*
X0150883Y0015104D01*
X0149883Y0012750D02*
X0146383Y0012750D01*
X0149883Y0012750D02*
X0149943Y0012748D01*
X0150004Y0012743D01*
X0150063Y0012734D01*
X0150122Y0012721D01*
X0150181Y0012705D01*
X0150238Y0012685D01*
X0150293Y0012662D01*
X0150348Y0012635D01*
X0150400Y0012606D01*
X0150451Y0012573D01*
X0150500Y0012537D01*
X0150546Y0012499D01*
X0150590Y0012457D01*
X0150632Y0012413D01*
X0150670Y0012367D01*
X0150706Y0012318D01*
X0150739Y0012267D01*
X0150768Y0012215D01*
X0150795Y0012160D01*
X0150818Y0012105D01*
X0150838Y0012048D01*
X0150854Y0011989D01*
X0150867Y0011930D01*
X0150876Y0011871D01*
X0150881Y0011810D01*
X0150883Y0011750D01*
X0150883Y0011250D01*
X0210783Y0042221D02*
X0214283Y0042221D01*
X0214343Y0042219D01*
X0214404Y0042214D01*
X0214463Y0042205D01*
X0214522Y0042192D01*
X0214581Y0042176D01*
X0214638Y0042156D01*
X0214693Y0042133D01*
X0214748Y0042106D01*
X0214800Y0042077D01*
X0214851Y0042044D01*
X0214900Y0042008D01*
X0214946Y0041970D01*
X0214990Y0041928D01*
X0215032Y0041884D01*
X0215070Y0041838D01*
X0215106Y0041789D01*
X0215139Y0041738D01*
X0215168Y0041686D01*
X0215195Y0041631D01*
X0215218Y0041576D01*
X0215238Y0041519D01*
X0215254Y0041460D01*
X0215267Y0041401D01*
X0215276Y0041342D01*
X0215281Y0041281D01*
X0215283Y0041221D01*
X0215283Y0040721D01*
X0215283Y0044575D02*
X0210783Y0044575D01*
X0210783Y0045825D01*
X0210785Y0045894D01*
X0210791Y0045963D01*
X0210800Y0046031D01*
X0210813Y0046098D01*
X0210830Y0046165D01*
X0210851Y0046231D01*
X0210875Y0046295D01*
X0210903Y0046358D01*
X0210934Y0046420D01*
X0210968Y0046480D01*
X0211006Y0046537D01*
X0211047Y0046593D01*
X0211090Y0046646D01*
X0211137Y0046697D01*
X0211186Y0046745D01*
X0211238Y0046790D01*
X0211293Y0046832D01*
X0211349Y0046871D01*
X0211408Y0046908D01*
X0211469Y0046940D01*
X0211531Y0046970D01*
X0211595Y0046996D01*
X0211660Y0047018D01*
X0211726Y0047037D01*
X0211793Y0047052D01*
X0211861Y0047063D01*
X0211930Y0047071D01*
X0211999Y0047075D01*
X0212067Y0047075D01*
X0212136Y0047071D01*
X0212205Y0047063D01*
X0212273Y0047052D01*
X0212340Y0047037D01*
X0212406Y0047018D01*
X0212471Y0046996D01*
X0212535Y0046970D01*
X0212597Y0046940D01*
X0212658Y0046908D01*
X0212717Y0046871D01*
X0212773Y0046832D01*
X0212828Y0046790D01*
X0212880Y0046745D01*
X0212929Y0046697D01*
X0212976Y0046646D01*
X0213019Y0046593D01*
X0213060Y0046537D01*
X0213098Y0046480D01*
X0213132Y0046420D01*
X0213163Y0046358D01*
X0213191Y0046295D01*
X0213215Y0046231D01*
X0213236Y0046165D01*
X0213253Y0046098D01*
X0213266Y0046031D01*
X0213275Y0045963D01*
X0213281Y0045894D01*
X0213283Y0045825D01*
X0213283Y0044575D01*
X0212783Y0048850D02*
X0210783Y0048850D01*
X0210783Y0051350D01*
X0212783Y0050350D02*
X0212783Y0048850D01*
X0212783Y0050350D02*
X0212785Y0050410D01*
X0212790Y0050471D01*
X0212799Y0050530D01*
X0212812Y0050589D01*
X0212828Y0050648D01*
X0212848Y0050705D01*
X0212871Y0050760D01*
X0212898Y0050815D01*
X0212927Y0050867D01*
X0212960Y0050918D01*
X0212996Y0050967D01*
X0213034Y0051013D01*
X0213076Y0051057D01*
X0213120Y0051099D01*
X0213166Y0051137D01*
X0213215Y0051173D01*
X0213266Y0051206D01*
X0213318Y0051235D01*
X0213373Y0051262D01*
X0213428Y0051285D01*
X0213485Y0051305D01*
X0213544Y0051321D01*
X0213603Y0051334D01*
X0213662Y0051343D01*
X0213723Y0051348D01*
X0213783Y0051350D01*
X0214283Y0051350D01*
X0214343Y0051348D01*
X0214404Y0051343D01*
X0214463Y0051334D01*
X0214522Y0051321D01*
X0214581Y0051305D01*
X0214638Y0051285D01*
X0214693Y0051262D01*
X0214748Y0051235D01*
X0214800Y0051206D01*
X0214851Y0051173D01*
X0214900Y0051137D01*
X0214946Y0051099D01*
X0214990Y0051057D01*
X0215032Y0051013D01*
X0215070Y0050967D01*
X0215106Y0050918D01*
X0215139Y0050867D01*
X0215168Y0050815D01*
X0215195Y0050760D01*
X0215218Y0050705D01*
X0215238Y0050648D01*
X0215254Y0050589D01*
X0215267Y0050530D01*
X0215276Y0050471D01*
X0215281Y0050410D01*
X0215283Y0050350D01*
X0215283Y0048850D01*
X0199583Y0188950D02*
X0199583Y0189950D01*
X0199583Y0189450D02*
X0195083Y0189450D01*
X0195083Y0188950D02*
X0195083Y0189950D01*
X0196083Y0191785D02*
X0198583Y0191785D01*
X0198643Y0191787D01*
X0198704Y0191792D01*
X0198763Y0191801D01*
X0198822Y0191814D01*
X0198881Y0191830D01*
X0198938Y0191850D01*
X0198993Y0191873D01*
X0199048Y0191900D01*
X0199100Y0191929D01*
X0199151Y0191962D01*
X0199200Y0191998D01*
X0199246Y0192036D01*
X0199290Y0192078D01*
X0199332Y0192122D01*
X0199370Y0192168D01*
X0199406Y0192217D01*
X0199439Y0192268D01*
X0199468Y0192320D01*
X0199495Y0192375D01*
X0199518Y0192430D01*
X0199538Y0192487D01*
X0199554Y0192546D01*
X0199567Y0192605D01*
X0199576Y0192664D01*
X0199581Y0192725D01*
X0199583Y0192785D01*
X0199583Y0193785D01*
X0199583Y0195550D02*
X0199583Y0196800D01*
X0199581Y0196869D01*
X0199575Y0196938D01*
X0199566Y0197006D01*
X0199553Y0197073D01*
X0199536Y0197140D01*
X0199515Y0197206D01*
X0199491Y0197270D01*
X0199463Y0197333D01*
X0199432Y0197395D01*
X0199398Y0197455D01*
X0199360Y0197512D01*
X0199319Y0197568D01*
X0199276Y0197621D01*
X0199229Y0197672D01*
X0199180Y0197720D01*
X0199128Y0197765D01*
X0199073Y0197807D01*
X0199017Y0197846D01*
X0198958Y0197883D01*
X0198897Y0197915D01*
X0198835Y0197945D01*
X0198771Y0197971D01*
X0198706Y0197993D01*
X0198640Y0198012D01*
X0198573Y0198027D01*
X0198505Y0198038D01*
X0198436Y0198046D01*
X0198367Y0198050D01*
X0198299Y0198050D01*
X0198230Y0198046D01*
X0198161Y0198038D01*
X0198093Y0198027D01*
X0198026Y0198012D01*
X0197960Y0197993D01*
X0197895Y0197971D01*
X0197831Y0197945D01*
X0197769Y0197915D01*
X0197708Y0197883D01*
X0197649Y0197846D01*
X0197593Y0197807D01*
X0197538Y0197765D01*
X0197486Y0197720D01*
X0197437Y0197672D01*
X0197390Y0197621D01*
X0197347Y0197568D01*
X0197306Y0197512D01*
X0197268Y0197455D01*
X0197234Y0197395D01*
X0197203Y0197333D01*
X0197175Y0197270D01*
X0197151Y0197206D01*
X0197130Y0197140D01*
X0197113Y0197073D01*
X0197100Y0197006D01*
X0197091Y0196938D01*
X0197085Y0196869D01*
X0197083Y0196800D01*
X0197083Y0197050D02*
X0197083Y0196050D01*
X0197083Y0197050D02*
X0197081Y0197112D01*
X0197075Y0197173D01*
X0197066Y0197234D01*
X0197053Y0197294D01*
X0197036Y0197353D01*
X0197015Y0197411D01*
X0196991Y0197468D01*
X0196964Y0197523D01*
X0196933Y0197576D01*
X0196899Y0197628D01*
X0196862Y0197677D01*
X0196822Y0197724D01*
X0196779Y0197768D01*
X0196734Y0197809D01*
X0196686Y0197848D01*
X0196635Y0197884D01*
X0196583Y0197916D01*
X0196529Y0197945D01*
X0196473Y0197971D01*
X0196415Y0197993D01*
X0196357Y0198012D01*
X0196297Y0198027D01*
X0196236Y0198038D01*
X0196175Y0198046D01*
X0196114Y0198050D01*
X0196052Y0198050D01*
X0195991Y0198046D01*
X0195930Y0198038D01*
X0195869Y0198027D01*
X0195809Y0198012D01*
X0195751Y0197993D01*
X0195693Y0197971D01*
X0195637Y0197945D01*
X0195583Y0197916D01*
X0195531Y0197884D01*
X0195480Y0197848D01*
X0195432Y0197809D01*
X0195387Y0197768D01*
X0195344Y0197724D01*
X0195304Y0197677D01*
X0195267Y0197628D01*
X0195233Y0197576D01*
X0195202Y0197523D01*
X0195175Y0197468D01*
X0195151Y0197411D01*
X0195130Y0197353D01*
X0195113Y0197294D01*
X0195100Y0197234D01*
X0195091Y0197173D01*
X0195085Y0197112D01*
X0195083Y0197050D01*
X0195083Y0195550D01*
X0195083Y0193785D02*
X0195083Y0192785D01*
X0195085Y0192725D01*
X0195090Y0192664D01*
X0195099Y0192605D01*
X0195112Y0192546D01*
X0195128Y0192487D01*
X0195148Y0192430D01*
X0195171Y0192375D01*
X0195198Y0192320D01*
X0195227Y0192268D01*
X0195260Y0192217D01*
X0195296Y0192168D01*
X0195334Y0192122D01*
X0195376Y0192078D01*
X0195420Y0192036D01*
X0195466Y0191998D01*
X0195515Y0191962D01*
X0195566Y0191929D01*
X0195618Y0191900D01*
X0195673Y0191873D01*
X0195728Y0191850D01*
X0195785Y0191830D01*
X0195844Y0191814D01*
X0195903Y0191801D01*
X0195962Y0191792D01*
X0196023Y0191787D01*
X0196083Y0191785D01*
X0215783Y0197221D02*
X0219283Y0197221D01*
X0219343Y0197219D01*
X0219404Y0197214D01*
X0219463Y0197205D01*
X0219522Y0197192D01*
X0219581Y0197176D01*
X0219638Y0197156D01*
X0219693Y0197133D01*
X0219748Y0197106D01*
X0219800Y0197077D01*
X0219851Y0197044D01*
X0219900Y0197008D01*
X0219946Y0196970D01*
X0219990Y0196928D01*
X0220032Y0196884D01*
X0220070Y0196838D01*
X0220106Y0196789D01*
X0220139Y0196738D01*
X0220168Y0196686D01*
X0220195Y0196631D01*
X0220218Y0196576D01*
X0220238Y0196519D01*
X0220254Y0196460D01*
X0220267Y0196401D01*
X0220276Y0196342D01*
X0220281Y0196281D01*
X0220283Y0196221D01*
X0220283Y0195721D01*
X0220283Y0199575D02*
X0215783Y0199575D01*
X0215783Y0200825D01*
X0215785Y0200894D01*
X0215791Y0200963D01*
X0215800Y0201031D01*
X0215813Y0201098D01*
X0215830Y0201165D01*
X0215851Y0201231D01*
X0215875Y0201295D01*
X0215903Y0201358D01*
X0215934Y0201420D01*
X0215968Y0201480D01*
X0216006Y0201537D01*
X0216047Y0201593D01*
X0216090Y0201646D01*
X0216137Y0201697D01*
X0216186Y0201745D01*
X0216238Y0201790D01*
X0216293Y0201832D01*
X0216349Y0201871D01*
X0216408Y0201908D01*
X0216469Y0201940D01*
X0216531Y0201970D01*
X0216595Y0201996D01*
X0216660Y0202018D01*
X0216726Y0202037D01*
X0216793Y0202052D01*
X0216861Y0202063D01*
X0216930Y0202071D01*
X0216999Y0202075D01*
X0217067Y0202075D01*
X0217136Y0202071D01*
X0217205Y0202063D01*
X0217273Y0202052D01*
X0217340Y0202037D01*
X0217406Y0202018D01*
X0217471Y0201996D01*
X0217535Y0201970D01*
X0217597Y0201940D01*
X0217658Y0201908D01*
X0217717Y0201871D01*
X0217773Y0201832D01*
X0217828Y0201790D01*
X0217880Y0201745D01*
X0217929Y0201697D01*
X0217976Y0201646D01*
X0218019Y0201593D01*
X0218060Y0201537D01*
X0218098Y0201480D01*
X0218132Y0201420D01*
X0218163Y0201358D01*
X0218191Y0201295D01*
X0218215Y0201231D01*
X0218236Y0201165D01*
X0218253Y0201098D01*
X0218266Y0201031D01*
X0218275Y0200963D01*
X0218281Y0200894D01*
X0218283Y0200825D01*
X0218283Y0199575D01*
X0216783Y0203850D02*
X0215783Y0205100D01*
X0220283Y0205100D01*
X0220283Y0203850D02*
X0220283Y0206350D01*
X0305783Y0200825D02*
X0305783Y0199575D01*
X0310283Y0199575D01*
X0308283Y0199575D02*
X0308283Y0200825D01*
X0308281Y0200894D01*
X0308275Y0200963D01*
X0308266Y0201031D01*
X0308253Y0201098D01*
X0308236Y0201165D01*
X0308215Y0201231D01*
X0308191Y0201295D01*
X0308163Y0201358D01*
X0308132Y0201420D01*
X0308098Y0201480D01*
X0308060Y0201537D01*
X0308019Y0201593D01*
X0307976Y0201646D01*
X0307929Y0201697D01*
X0307880Y0201745D01*
X0307828Y0201790D01*
X0307773Y0201832D01*
X0307717Y0201871D01*
X0307658Y0201908D01*
X0307597Y0201940D01*
X0307535Y0201970D01*
X0307471Y0201996D01*
X0307406Y0202018D01*
X0307340Y0202037D01*
X0307273Y0202052D01*
X0307205Y0202063D01*
X0307136Y0202071D01*
X0307067Y0202075D01*
X0306999Y0202075D01*
X0306930Y0202071D01*
X0306861Y0202063D01*
X0306793Y0202052D01*
X0306726Y0202037D01*
X0306660Y0202018D01*
X0306595Y0201996D01*
X0306531Y0201970D01*
X0306469Y0201940D01*
X0306408Y0201908D01*
X0306349Y0201871D01*
X0306293Y0201832D01*
X0306238Y0201790D01*
X0306186Y0201745D01*
X0306137Y0201697D01*
X0306090Y0201646D01*
X0306047Y0201593D01*
X0306006Y0201537D01*
X0305968Y0201480D01*
X0305934Y0201420D01*
X0305903Y0201358D01*
X0305875Y0201295D01*
X0305851Y0201231D01*
X0305830Y0201165D01*
X0305813Y0201098D01*
X0305800Y0201031D01*
X0305791Y0200963D01*
X0305785Y0200894D01*
X0305783Y0200825D01*
X0310283Y0203850D02*
X0310283Y0206350D01*
X0310283Y0203850D02*
X0307783Y0205975D01*
X0305784Y0205225D02*
X0305786Y0205152D01*
X0305791Y0205080D01*
X0305800Y0205008D01*
X0305813Y0204936D01*
X0305829Y0204865D01*
X0305849Y0204795D01*
X0305873Y0204727D01*
X0305899Y0204659D01*
X0305930Y0204593D01*
X0305963Y0204528D01*
X0306000Y0204466D01*
X0306039Y0204405D01*
X0306082Y0204346D01*
X0306128Y0204289D01*
X0306176Y0204235D01*
X0306227Y0204184D01*
X0306281Y0204134D01*
X0306337Y0204088D01*
X0306395Y0204045D01*
X0306456Y0204004D01*
X0306518Y0203967D01*
X0306582Y0203933D01*
X0306648Y0203902D01*
X0306715Y0203874D01*
X0306784Y0203850D01*
X0307783Y0205975D02*
X0307737Y0206021D01*
X0307688Y0206065D01*
X0307637Y0206105D01*
X0307584Y0206143D01*
X0307529Y0206178D01*
X0307472Y0206210D01*
X0307414Y0206239D01*
X0307354Y0206265D01*
X0307292Y0206287D01*
X0307230Y0206306D01*
X0307167Y0206322D01*
X0307103Y0206334D01*
X0307038Y0206343D01*
X0306973Y0206348D01*
X0306908Y0206350D01*
X0306843Y0206348D01*
X0306777Y0206342D01*
X0306713Y0206333D01*
X0306649Y0206320D01*
X0306585Y0206303D01*
X0306523Y0206282D01*
X0306462Y0206258D01*
X0306403Y0206230D01*
X0306346Y0206199D01*
X0306290Y0206165D01*
X0306236Y0206127D01*
X0306185Y0206087D01*
X0306136Y0206043D01*
X0306090Y0205997D01*
X0306046Y0205948D01*
X0306006Y0205897D01*
X0305968Y0205843D01*
X0305934Y0205788D01*
X0305903Y0205730D01*
X0305875Y0205671D01*
X0305851Y0205610D01*
X0305830Y0205548D01*
X0305813Y0205484D01*
X0305800Y0205420D01*
X0305791Y0205356D01*
X0305785Y0205290D01*
X0305783Y0205225D01*
X0305783Y0197221D02*
X0309283Y0197221D01*
X0309343Y0197219D01*
X0309404Y0197214D01*
X0309463Y0197205D01*
X0309522Y0197192D01*
X0309581Y0197176D01*
X0309638Y0197156D01*
X0309693Y0197133D01*
X0309748Y0197106D01*
X0309800Y0197077D01*
X0309851Y0197044D01*
X0309900Y0197008D01*
X0309946Y0196970D01*
X0309990Y0196928D01*
X0310032Y0196884D01*
X0310070Y0196838D01*
X0310106Y0196789D01*
X0310139Y0196738D01*
X0310168Y0196686D01*
X0310195Y0196631D01*
X0310218Y0196576D01*
X0310238Y0196519D01*
X0310254Y0196460D01*
X0310267Y0196401D01*
X0310276Y0196342D01*
X0310281Y0196281D01*
X0310283Y0196221D01*
X0310283Y0195721D01*
D14*
X0183333Y0142050D03*
X0183333Y0120550D03*
X0183333Y0072050D03*
X0183333Y0050550D03*
D15*
X0188633Y0065671D02*
X0188633Y0066644D01*
X0188634Y0066644D02*
X0188636Y0066705D01*
X0188642Y0066766D01*
X0188651Y0066826D01*
X0188665Y0066886D01*
X0188682Y0066944D01*
X0188702Y0067002D01*
X0188727Y0067058D01*
X0188754Y0067112D01*
X0188785Y0067165D01*
X0188820Y0067215D01*
X0188857Y0067264D01*
X0188897Y0067309D01*
X0188941Y0067353D01*
X0188986Y0067393D01*
X0189035Y0067430D01*
X0189085Y0067465D01*
X0189138Y0067496D01*
X0189192Y0067523D01*
X0189248Y0067548D01*
X0189306Y0067568D01*
X0189364Y0067585D01*
X0189424Y0067599D01*
X0189484Y0067608D01*
X0189545Y0067614D01*
X0189606Y0067616D01*
X0189667Y0067614D01*
X0189728Y0067608D01*
X0189788Y0067599D01*
X0189848Y0067585D01*
X0189906Y0067568D01*
X0189964Y0067548D01*
X0190020Y0067523D01*
X0190074Y0067496D01*
X0190127Y0067465D01*
X0190177Y0067430D01*
X0190226Y0067393D01*
X0190271Y0067353D01*
X0190315Y0067309D01*
X0190355Y0067264D01*
X0190392Y0067215D01*
X0190427Y0067165D01*
X0190458Y0067112D01*
X0190485Y0067058D01*
X0190510Y0067002D01*
X0190530Y0066944D01*
X0190547Y0066886D01*
X0190561Y0066826D01*
X0190570Y0066766D01*
X0190576Y0066705D01*
X0190578Y0066644D01*
X0190578Y0065671D01*
X0190578Y0066838D02*
X0192133Y0067616D01*
X0192133Y0069156D02*
X0192133Y0071100D01*
X0192133Y0069156D02*
X0190189Y0070808D01*
X0188633Y0070225D02*
X0188635Y0070161D01*
X0188640Y0070097D01*
X0188649Y0070033D01*
X0188662Y0069970D01*
X0188679Y0069908D01*
X0188698Y0069847D01*
X0188722Y0069787D01*
X0188748Y0069729D01*
X0188778Y0069672D01*
X0188812Y0069617D01*
X0188848Y0069564D01*
X0188887Y0069513D01*
X0188929Y0069465D01*
X0188974Y0069418D01*
X0189021Y0069375D01*
X0189071Y0069334D01*
X0189123Y0069297D01*
X0189177Y0069262D01*
X0189233Y0069230D01*
X0189291Y0069202D01*
X0189350Y0069177D01*
X0189411Y0069156D01*
X0190189Y0070808D02*
X0190147Y0070849D01*
X0190103Y0070888D01*
X0190056Y0070923D01*
X0190008Y0070956D01*
X0189957Y0070986D01*
X0189905Y0071012D01*
X0189851Y0071035D01*
X0189796Y0071055D01*
X0189740Y0071071D01*
X0189683Y0071084D01*
X0189625Y0071093D01*
X0189567Y0071098D01*
X0189508Y0071100D01*
X0189451Y0071098D01*
X0189394Y0071093D01*
X0189337Y0071083D01*
X0189282Y0071070D01*
X0189227Y0071054D01*
X0189173Y0071033D01*
X0189121Y0071010D01*
X0189071Y0070983D01*
X0189022Y0070953D01*
X0188975Y0070919D01*
X0188931Y0070883D01*
X0188889Y0070844D01*
X0188850Y0070802D01*
X0188814Y0070758D01*
X0188780Y0070711D01*
X0188750Y0070663D01*
X0188723Y0070612D01*
X0188700Y0070560D01*
X0188679Y0070506D01*
X0188663Y0070451D01*
X0188650Y0070396D01*
X0188640Y0070339D01*
X0188635Y0070282D01*
X0188633Y0070225D01*
X0188633Y0065671D02*
X0192133Y0065671D01*
X0123962Y0042767D02*
X0123962Y0042572D01*
X0123962Y0042767D02*
X0123960Y0042823D01*
X0123954Y0042878D01*
X0123944Y0042932D01*
X0123930Y0042986D01*
X0123913Y0043039D01*
X0123892Y0043090D01*
X0123867Y0043140D01*
X0123838Y0043188D01*
X0123807Y0043233D01*
X0123772Y0043276D01*
X0123734Y0043317D01*
X0123693Y0043355D01*
X0123650Y0043390D01*
X0123605Y0043421D01*
X0123557Y0043450D01*
X0123507Y0043475D01*
X0123456Y0043496D01*
X0123403Y0043513D01*
X0123349Y0043527D01*
X0123295Y0043537D01*
X0123240Y0043543D01*
X0123184Y0043545D01*
X0123184Y0043544D02*
X0122018Y0043544D01*
X0122018Y0042572D01*
X0122020Y0042511D01*
X0122026Y0042450D01*
X0122035Y0042390D01*
X0122049Y0042330D01*
X0122066Y0042272D01*
X0122086Y0042214D01*
X0122111Y0042158D01*
X0122138Y0042104D01*
X0122169Y0042051D01*
X0122204Y0042001D01*
X0122241Y0041952D01*
X0122281Y0041907D01*
X0122325Y0041863D01*
X0122370Y0041823D01*
X0122419Y0041786D01*
X0122469Y0041751D01*
X0122522Y0041720D01*
X0122576Y0041693D01*
X0122632Y0041668D01*
X0122690Y0041648D01*
X0122748Y0041631D01*
X0122808Y0041617D01*
X0122868Y0041608D01*
X0122929Y0041602D01*
X0122990Y0041600D01*
X0123051Y0041602D01*
X0123112Y0041608D01*
X0123172Y0041617D01*
X0123232Y0041631D01*
X0123290Y0041648D01*
X0123348Y0041668D01*
X0123404Y0041693D01*
X0123458Y0041720D01*
X0123511Y0041751D01*
X0123561Y0041786D01*
X0123610Y0041823D01*
X0123655Y0041863D01*
X0123699Y0041907D01*
X0123739Y0041952D01*
X0123776Y0042001D01*
X0123811Y0042051D01*
X0123842Y0042104D01*
X0123869Y0042158D01*
X0123894Y0042214D01*
X0123914Y0042272D01*
X0123931Y0042330D01*
X0123945Y0042390D01*
X0123954Y0042450D01*
X0123960Y0042511D01*
X0123962Y0042572D01*
X0122017Y0043544D02*
X0122019Y0043623D01*
X0122025Y0043701D01*
X0122035Y0043780D01*
X0122049Y0043857D01*
X0122067Y0043934D01*
X0122088Y0044010D01*
X0122114Y0044084D01*
X0122143Y0044158D01*
X0122176Y0044229D01*
X0122213Y0044299D01*
X0122253Y0044367D01*
X0122296Y0044433D01*
X0122343Y0044496D01*
X0122392Y0044558D01*
X0122445Y0044616D01*
X0122501Y0044672D01*
X0122559Y0044725D01*
X0122621Y0044774D01*
X0122684Y0044821D01*
X0122750Y0044864D01*
X0122818Y0044904D01*
X0122888Y0044941D01*
X0122959Y0044974D01*
X0123033Y0045003D01*
X0123107Y0045029D01*
X0123183Y0045050D01*
X0123260Y0045068D01*
X0123337Y0045082D01*
X0123416Y0045092D01*
X0123494Y0045098D01*
X0123573Y0045100D01*
X0119700Y0043156D02*
X0120478Y0041600D01*
X0119506Y0043156D02*
X0118533Y0043156D01*
X0119506Y0043156D02*
X0119567Y0043158D01*
X0119628Y0043164D01*
X0119688Y0043173D01*
X0119748Y0043187D01*
X0119806Y0043204D01*
X0119864Y0043224D01*
X0119920Y0043249D01*
X0119974Y0043276D01*
X0120027Y0043307D01*
X0120077Y0043342D01*
X0120126Y0043379D01*
X0120171Y0043419D01*
X0120215Y0043463D01*
X0120255Y0043508D01*
X0120292Y0043557D01*
X0120327Y0043607D01*
X0120358Y0043660D01*
X0120385Y0043714D01*
X0120410Y0043770D01*
X0120430Y0043828D01*
X0120447Y0043886D01*
X0120461Y0043946D01*
X0120470Y0044006D01*
X0120476Y0044067D01*
X0120478Y0044128D01*
X0120476Y0044189D01*
X0120470Y0044250D01*
X0120461Y0044310D01*
X0120447Y0044370D01*
X0120430Y0044428D01*
X0120410Y0044486D01*
X0120385Y0044542D01*
X0120358Y0044596D01*
X0120327Y0044649D01*
X0120292Y0044699D01*
X0120255Y0044748D01*
X0120215Y0044793D01*
X0120171Y0044837D01*
X0120126Y0044877D01*
X0120077Y0044914D01*
X0120027Y0044949D01*
X0119974Y0044980D01*
X0119920Y0045007D01*
X0119864Y0045032D01*
X0119806Y0045052D01*
X0119748Y0045069D01*
X0119688Y0045083D01*
X0119628Y0045092D01*
X0119567Y0045098D01*
X0119506Y0045100D01*
X0118533Y0045100D01*
X0118533Y0041600D01*
X0118533Y0025100D02*
X0119506Y0025100D01*
X0119567Y0025098D01*
X0119628Y0025092D01*
X0119688Y0025083D01*
X0119748Y0025069D01*
X0119806Y0025052D01*
X0119864Y0025032D01*
X0119920Y0025007D01*
X0119974Y0024980D01*
X0120027Y0024949D01*
X0120077Y0024914D01*
X0120126Y0024877D01*
X0120171Y0024837D01*
X0120215Y0024793D01*
X0120255Y0024748D01*
X0120292Y0024699D01*
X0120327Y0024649D01*
X0120358Y0024596D01*
X0120385Y0024542D01*
X0120410Y0024486D01*
X0120430Y0024428D01*
X0120447Y0024370D01*
X0120461Y0024310D01*
X0120470Y0024250D01*
X0120476Y0024189D01*
X0120478Y0024128D01*
X0120476Y0024067D01*
X0120470Y0024006D01*
X0120461Y0023946D01*
X0120447Y0023886D01*
X0120430Y0023828D01*
X0120410Y0023770D01*
X0120385Y0023714D01*
X0120358Y0023660D01*
X0120327Y0023607D01*
X0120292Y0023557D01*
X0120255Y0023508D01*
X0120215Y0023463D01*
X0120171Y0023419D01*
X0120126Y0023379D01*
X0120077Y0023342D01*
X0120027Y0023307D01*
X0119974Y0023276D01*
X0119920Y0023249D01*
X0119864Y0023224D01*
X0119806Y0023204D01*
X0119748Y0023187D01*
X0119688Y0023173D01*
X0119628Y0023164D01*
X0119567Y0023158D01*
X0119506Y0023156D01*
X0118533Y0023156D01*
X0119700Y0023156D02*
X0120478Y0021600D01*
X0122018Y0022378D02*
X0123962Y0022378D01*
X0123379Y0023156D02*
X0123379Y0021600D01*
X0122018Y0022378D02*
X0122795Y0025100D01*
X0118533Y0025100D02*
X0118533Y0021600D01*
X0118533Y0081600D02*
X0118533Y0085100D01*
X0119506Y0085100D01*
X0119567Y0085098D01*
X0119628Y0085092D01*
X0119688Y0085083D01*
X0119748Y0085069D01*
X0119806Y0085052D01*
X0119864Y0085032D01*
X0119920Y0085007D01*
X0119974Y0084980D01*
X0120027Y0084949D01*
X0120077Y0084914D01*
X0120126Y0084877D01*
X0120171Y0084837D01*
X0120215Y0084793D01*
X0120255Y0084748D01*
X0120292Y0084699D01*
X0120327Y0084649D01*
X0120358Y0084596D01*
X0120385Y0084542D01*
X0120410Y0084486D01*
X0120430Y0084428D01*
X0120447Y0084370D01*
X0120461Y0084310D01*
X0120470Y0084250D01*
X0120476Y0084189D01*
X0120478Y0084128D01*
X0120476Y0084067D01*
X0120470Y0084006D01*
X0120461Y0083946D01*
X0120447Y0083886D01*
X0120430Y0083828D01*
X0120410Y0083770D01*
X0120385Y0083714D01*
X0120358Y0083660D01*
X0120327Y0083607D01*
X0120292Y0083557D01*
X0120255Y0083508D01*
X0120215Y0083463D01*
X0120171Y0083419D01*
X0120126Y0083379D01*
X0120077Y0083342D01*
X0120027Y0083307D01*
X0119974Y0083276D01*
X0119920Y0083249D01*
X0119864Y0083224D01*
X0119806Y0083204D01*
X0119748Y0083187D01*
X0119688Y0083173D01*
X0119628Y0083164D01*
X0119567Y0083158D01*
X0119506Y0083156D01*
X0118533Y0083156D01*
X0119700Y0083156D02*
X0120478Y0081600D01*
X0122018Y0081600D02*
X0122990Y0081600D01*
X0123051Y0081602D01*
X0123112Y0081608D01*
X0123172Y0081617D01*
X0123232Y0081631D01*
X0123290Y0081648D01*
X0123348Y0081668D01*
X0123404Y0081693D01*
X0123458Y0081720D01*
X0123511Y0081751D01*
X0123561Y0081786D01*
X0123610Y0081823D01*
X0123655Y0081863D01*
X0123699Y0081907D01*
X0123739Y0081952D01*
X0123776Y0082001D01*
X0123811Y0082051D01*
X0123842Y0082104D01*
X0123869Y0082158D01*
X0123894Y0082214D01*
X0123914Y0082272D01*
X0123931Y0082330D01*
X0123945Y0082390D01*
X0123954Y0082450D01*
X0123960Y0082511D01*
X0123962Y0082572D01*
X0123960Y0082633D01*
X0123954Y0082694D01*
X0123945Y0082754D01*
X0123931Y0082814D01*
X0123914Y0082872D01*
X0123894Y0082930D01*
X0123869Y0082986D01*
X0123842Y0083040D01*
X0123811Y0083093D01*
X0123776Y0083143D01*
X0123739Y0083192D01*
X0123699Y0083237D01*
X0123655Y0083281D01*
X0123610Y0083321D01*
X0123561Y0083358D01*
X0123511Y0083393D01*
X0123458Y0083424D01*
X0123404Y0083451D01*
X0123348Y0083476D01*
X0123290Y0083496D01*
X0123232Y0083513D01*
X0123172Y0083527D01*
X0123112Y0083536D01*
X0123051Y0083542D01*
X0122990Y0083544D01*
X0123184Y0083544D02*
X0122406Y0083544D01*
X0123184Y0083544D02*
X0123240Y0083546D01*
X0123295Y0083552D01*
X0123349Y0083562D01*
X0123403Y0083576D01*
X0123456Y0083593D01*
X0123507Y0083614D01*
X0123557Y0083639D01*
X0123605Y0083668D01*
X0123650Y0083699D01*
X0123693Y0083734D01*
X0123734Y0083772D01*
X0123772Y0083813D01*
X0123807Y0083856D01*
X0123838Y0083901D01*
X0123867Y0083949D01*
X0123892Y0083999D01*
X0123913Y0084050D01*
X0123930Y0084103D01*
X0123944Y0084157D01*
X0123954Y0084211D01*
X0123960Y0084266D01*
X0123962Y0084322D01*
X0123960Y0084378D01*
X0123954Y0084433D01*
X0123944Y0084487D01*
X0123930Y0084541D01*
X0123913Y0084594D01*
X0123892Y0084645D01*
X0123867Y0084695D01*
X0123838Y0084743D01*
X0123807Y0084788D01*
X0123772Y0084831D01*
X0123734Y0084872D01*
X0123693Y0084910D01*
X0123650Y0084945D01*
X0123605Y0084976D01*
X0123557Y0085005D01*
X0123507Y0085030D01*
X0123456Y0085051D01*
X0123403Y0085068D01*
X0123349Y0085082D01*
X0123295Y0085092D01*
X0123240Y0085098D01*
X0123184Y0085100D01*
X0122018Y0085100D01*
X0122018Y0101600D02*
X0123184Y0101600D01*
X0123240Y0101602D01*
X0123295Y0101608D01*
X0123349Y0101618D01*
X0123403Y0101632D01*
X0123456Y0101649D01*
X0123507Y0101670D01*
X0123557Y0101695D01*
X0123605Y0101724D01*
X0123650Y0101755D01*
X0123693Y0101790D01*
X0123734Y0101828D01*
X0123772Y0101869D01*
X0123807Y0101912D01*
X0123838Y0101957D01*
X0123867Y0102005D01*
X0123892Y0102055D01*
X0123913Y0102106D01*
X0123930Y0102159D01*
X0123944Y0102213D01*
X0123954Y0102267D01*
X0123960Y0102322D01*
X0123962Y0102378D01*
X0123962Y0102767D01*
X0123960Y0102823D01*
X0123954Y0102878D01*
X0123944Y0102932D01*
X0123930Y0102986D01*
X0123913Y0103039D01*
X0123892Y0103090D01*
X0123867Y0103140D01*
X0123838Y0103188D01*
X0123807Y0103233D01*
X0123772Y0103276D01*
X0123734Y0103317D01*
X0123693Y0103355D01*
X0123650Y0103390D01*
X0123605Y0103421D01*
X0123557Y0103450D01*
X0123507Y0103475D01*
X0123456Y0103496D01*
X0123403Y0103513D01*
X0123349Y0103527D01*
X0123295Y0103537D01*
X0123240Y0103543D01*
X0123184Y0103545D01*
X0123184Y0103544D02*
X0122018Y0103544D01*
X0122018Y0105100D01*
X0123962Y0105100D01*
X0119506Y0105100D02*
X0118533Y0105100D01*
X0118533Y0101600D01*
X0118533Y0103156D02*
X0119506Y0103156D01*
X0119700Y0103156D02*
X0120478Y0101600D01*
X0119506Y0103156D02*
X0119567Y0103158D01*
X0119628Y0103164D01*
X0119688Y0103173D01*
X0119748Y0103187D01*
X0119806Y0103204D01*
X0119864Y0103224D01*
X0119920Y0103249D01*
X0119974Y0103276D01*
X0120027Y0103307D01*
X0120077Y0103342D01*
X0120126Y0103379D01*
X0120171Y0103419D01*
X0120215Y0103463D01*
X0120255Y0103508D01*
X0120292Y0103557D01*
X0120327Y0103607D01*
X0120358Y0103660D01*
X0120385Y0103714D01*
X0120410Y0103770D01*
X0120430Y0103828D01*
X0120447Y0103886D01*
X0120461Y0103946D01*
X0120470Y0104006D01*
X0120476Y0104067D01*
X0120478Y0104128D01*
X0120476Y0104189D01*
X0120470Y0104250D01*
X0120461Y0104310D01*
X0120447Y0104370D01*
X0120430Y0104428D01*
X0120410Y0104486D01*
X0120385Y0104542D01*
X0120358Y0104596D01*
X0120327Y0104649D01*
X0120292Y0104699D01*
X0120255Y0104748D01*
X0120215Y0104793D01*
X0120171Y0104837D01*
X0120126Y0104877D01*
X0120077Y0104914D01*
X0120027Y0104949D01*
X0119974Y0104980D01*
X0119920Y0105007D01*
X0119864Y0105032D01*
X0119806Y0105052D01*
X0119748Y0105069D01*
X0119688Y0105083D01*
X0119628Y0105092D01*
X0119567Y0105098D01*
X0119506Y0105100D01*
X0174533Y0121500D02*
X0174533Y0122472D01*
X0174533Y0121500D02*
X0178033Y0121500D01*
X0176478Y0121500D02*
X0176478Y0122472D01*
X0176478Y0122667D02*
X0178033Y0123444D01*
X0178033Y0124984D02*
X0178033Y0126929D01*
X0178033Y0125956D02*
X0174533Y0125956D01*
X0175311Y0124984D01*
X0174534Y0122472D02*
X0174536Y0122533D01*
X0174542Y0122594D01*
X0174551Y0122654D01*
X0174565Y0122714D01*
X0174582Y0122772D01*
X0174602Y0122830D01*
X0174627Y0122886D01*
X0174654Y0122940D01*
X0174685Y0122993D01*
X0174720Y0123043D01*
X0174757Y0123092D01*
X0174797Y0123137D01*
X0174841Y0123181D01*
X0174886Y0123221D01*
X0174935Y0123258D01*
X0174985Y0123293D01*
X0175038Y0123324D01*
X0175092Y0123351D01*
X0175148Y0123376D01*
X0175206Y0123396D01*
X0175264Y0123413D01*
X0175324Y0123427D01*
X0175384Y0123436D01*
X0175445Y0123442D01*
X0175506Y0123444D01*
X0175567Y0123442D01*
X0175628Y0123436D01*
X0175688Y0123427D01*
X0175748Y0123413D01*
X0175806Y0123396D01*
X0175864Y0123376D01*
X0175920Y0123351D01*
X0175974Y0123324D01*
X0176027Y0123293D01*
X0176077Y0123258D01*
X0176126Y0123221D01*
X0176171Y0123181D01*
X0176215Y0123137D01*
X0176255Y0123092D01*
X0176292Y0123043D01*
X0176327Y0122993D01*
X0176358Y0122940D01*
X0176385Y0122886D01*
X0176410Y0122830D01*
X0176430Y0122772D01*
X0176447Y0122714D01*
X0176461Y0122654D01*
X0176470Y0122594D01*
X0176476Y0122533D01*
X0176478Y0122472D01*
D16*
X0139083Y0096300D03*
X0117583Y0096300D03*
X0117583Y0076300D03*
X0139083Y0076300D03*
X0139083Y0036300D03*
X0117583Y0036300D03*
X0117583Y0016300D03*
X0139083Y0016300D03*
M02*
